<svg width="506" height="506" viewBox="0 0 506 506" fill="none" xmlns="http://www.w3.org/2000/svg">
<mask id="mask0_1026_5088" style="mask-type:alpha" maskUnits="userSpaceOnUse" x="158" y="114" width="48" height="34">
<path d="M161 120.435C159.343 120.435 158 119.091 158 117.435C158 115.778 159.343 114.435 161 114.435H203C204.657 114.435 206 115.778 206 117.435C206 119.091 204.657 120.435 203 120.435H161ZM161 133.935C159.343 133.935 158 132.591 158 130.935C158 129.278 159.343 127.935 161 127.935H203C204.657 127.935 206 129.278 206 130.935C206 132.591 204.657 133.935 203 133.935H161ZM161 147.435C159.343 147.435 158 146.091 158 144.435C158 142.778 159.343 141.435 161 141.435H191C192.657 141.435 194 142.778 194 144.435C194 146.091 192.657 147.435 191 147.435H161ZM203 147.435C201.343 147.435 200 146.091 200 144.435C200 142.778 201.343 141.435 203 141.435C204.657 141.435 206 142.778 206 144.435C206 146.091 204.657 147.435 203 147.435Z" fill="white"/>
</mask>
<g mask="url(#mask0_1026_5088)">
<path d="M161 120.435C159.343 120.435 158 119.091 158 117.435C158 115.778 159.343 114.435 161 114.435H203C204.657 114.435 206 115.778 206 117.435C206 119.091 204.657 120.435 203 120.435H161ZM161 133.935C159.343 133.935 158 132.591 158 130.935C158 129.278 159.343 127.935 161 127.935H203C204.657 127.935 206 129.278 206 130.935C206 132.591 204.657 133.935 203 133.935H161ZM161 147.435C159.343 147.435 158 146.091 158 144.435C158 142.778 159.343 141.435 161 141.435H191C192.657 141.435 194 142.778 194 144.435C194 146.091 192.657 147.435 191 147.435H161ZM203 147.435C201.343 147.435 200 146.091 200 144.435C200 142.778 201.343 141.435 203 141.435C204.657 141.435 206 142.778 206 144.435C206 146.091 204.657 147.435 203 147.435Z" fill="#2D3B87"/>
<path d="M215 97.9346H149V163.935H215V97.9346Z" fill="#2D3B87"/>
</g>
<mask id="mask1_1026_5088" style="mask-type:alpha" maskUnits="userSpaceOnUse" x="309" y="108" width="40" height="46">
<path d="M334.371 142.628C339.458 140.754 343.074 135.919 343.074 130.261C343.074 125.707 340.717 121.55 336.89 119.135C335.506 118.262 335.092 116.432 335.966 115.048C336.839 113.664 338.668 113.25 340.052 114.124C345.578 117.61 349 123.646 349 130.261C349 138.579 343.639 145.649 336.158 148.284C337.553 149.018 338.135 150.728 337.457 152.168C336.76 153.648 334.994 154.283 333.514 153.586L325.667 149.89C323.936 149.075 323.42 146.858 324.612 145.362L330.036 138.56C331.056 137.28 332.92 137.07 334.2 138.09C335.479 139.111 335.69 140.975 334.669 142.254L334.371 142.628ZM321.451 120.274C317.54 122.581 314.926 126.797 314.926 131.608C314.926 136.162 317.283 140.319 321.11 142.734C322.494 143.607 322.908 145.437 322.034 146.821C321.161 148.205 319.332 148.619 317.948 147.745C312.422 144.259 309 138.224 309 131.608C309 123.599 313.97 116.747 321.016 113.897L320.48 113.644C318.999 112.947 318.364 111.182 319.062 109.701C319.759 108.221 321.524 107.586 323.005 108.283L330.852 111.979C332.582 112.794 333.099 115.011 331.906 116.507L326.483 123.309C325.462 124.589 323.598 124.799 322.319 123.779C321.246 122.923 320.925 121.474 321.451 120.274ZM328.259 133.897C326.623 133.897 325.296 132.571 325.296 130.935C325.296 129.298 326.623 127.972 328.259 127.972C329.896 127.972 331.222 129.298 331.222 130.935C331.222 132.571 329.896 133.897 328.259 133.897Z" fill="white"/>
</mask>
<g mask="url(#mask1_1026_5088)">
<path d="M334.371 142.628C339.458 140.754 343.074 135.919 343.074 130.261C343.074 125.707 340.717 121.55 336.89 119.135C335.506 118.262 335.092 116.432 335.966 115.048C336.839 113.664 338.668 113.25 340.052 114.124C345.578 117.61 349 123.646 349 130.261C349 138.579 343.639 145.649 336.158 148.284C337.553 149.018 338.135 150.728 337.457 152.168C336.76 153.648 334.994 154.283 333.514 153.586L325.667 149.89C323.936 149.075 323.42 146.858 324.612 145.362L330.036 138.56C331.056 137.28 332.92 137.07 334.2 138.09C335.479 139.111 335.69 140.975 334.669 142.254L334.371 142.628ZM321.451 120.274C317.54 122.581 314.926 126.797 314.926 131.608C314.926 136.162 317.283 140.319 321.11 142.734C322.494 143.607 322.908 145.437 322.034 146.821C321.161 148.205 319.332 148.619 317.948 147.745C312.422 144.259 309 138.224 309 131.608C309 123.599 313.97 116.747 321.016 113.897L320.48 113.644C318.999 112.947 318.364 111.182 319.062 109.701C319.759 108.221 321.524 107.586 323.005 108.283L330.852 111.979C332.582 112.794 333.099 115.011 331.906 116.507L326.483 123.309C325.462 124.589 323.598 124.799 322.319 123.779C321.246 122.923 320.925 121.474 321.451 120.274ZM328.259 133.897C326.623 133.897 325.296 132.571 325.296 130.935C325.296 129.298 326.623 127.972 328.259 127.972C329.896 127.972 331.222 129.298 331.222 130.935C331.222 132.571 329.896 133.897 328.259 133.897Z" fill="#2D3B87"/>
<path d="M360.852 98.3423H295.667V163.527H360.852V98.3423Z" fill="#2D3B87"/>
</g>
<mask id="mask2_1026_5088" style="mask-type:alpha" maskUnits="userSpaceOnUse" x="154" y="233" width="48" height="38">
<path d="M168.4 264.269H187.6V256.269C187.6 254.501 189.032 253.069 190.8 253.069C192.567 253.069 194 254.501 194 256.269V267.468C194 269.236 192.567 270.668 190.8 270.668H165.2C163.433 270.668 162 269.236 162 267.468V256.269C162 254.501 163.433 253.069 165.2 253.069C166.968 253.069 168.4 254.501 168.4 256.269V264.269ZM178 254.669C176.233 254.669 174.8 253.236 174.8 251.469C174.8 249.702 176.233 248.269 178 248.269C179.767 248.269 181.2 249.702 181.2 251.469C181.2 253.236 179.767 254.669 178 254.669ZM197.189 251.914L178.111 240.797L158.873 252.597C157.367 253.521 155.397 253.048 154.473 251.542C153.549 250.035 154.021 248.065 155.527 247.141L176.396 234.341C177.4 233.725 178.662 233.711 179.68 234.304L200.411 246.384C201.938 247.274 202.454 249.233 201.564 250.76C200.675 252.287 198.715 252.803 197.189 251.914Z" fill="white"/>
</mask>
<g mask="url(#mask2_1026_5088)">
<path d="M168.4 264.269H187.6V256.269C187.6 254.501 189.032 253.069 190.8 253.069C192.567 253.069 194 254.501 194 256.269V267.468C194 269.236 192.567 270.668 190.8 270.668H165.2C163.433 270.668 162 269.236 162 267.468V256.269C162 254.501 163.433 253.069 165.2 253.069C166.968 253.069 168.4 254.501 168.4 256.269V264.269ZM178 254.669C176.233 254.669 174.8 253.236 174.8 251.469C174.8 249.702 176.233 248.269 178 248.269C179.767 248.269 181.2 249.702 181.2 251.469C181.2 253.236 179.767 254.669 178 254.669ZM197.189 251.914L178.111 240.797L158.873 252.597C157.367 253.521 155.397 253.048 154.473 251.542C153.549 250.035 154.021 248.065 155.527 247.141L176.396 234.341C177.4 233.725 178.662 233.711 179.68 234.304L200.411 246.384C201.938 247.274 202.454 249.233 201.564 250.76C200.675 252.287 198.715 252.803 197.189 251.914Z" fill="#2D3B87"/>
<path d="M213.199 214.669H142.801V285.068H213.199V214.669Z" fill="#2D3B87"/>
</g>
<mask id="mask3_1026_5088" style="mask-type:alpha" maskUnits="userSpaceOnUse" x="305" y="239" width="48" height="27">
<path d="M340.2 253.869H330.501C329.714 260.183 324.327 265.069 317.8 265.069C310.731 265.069 305 259.338 305 252.269C305 245.2 310.731 239.469 317.8 239.469C323.172 239.469 327.771 242.778 329.67 247.469H349.8C351.567 247.469 353 248.901 353 250.669C353 252.436 351.567 253.869 349.8 253.869H346.6C346.6 255.636 345.167 257.069 343.4 257.069C341.633 257.069 340.2 255.636 340.2 253.869ZM317.8 258.669C321.335 258.669 324.2 255.803 324.2 252.269C324.2 248.734 321.335 245.869 317.8 245.869C314.265 245.869 311.4 248.734 311.4 252.269C311.4 255.803 314.265 258.669 317.8 258.669ZM343.4 265.069C341.633 265.069 340.2 263.636 340.2 261.869C340.2 260.101 341.633 258.669 343.4 258.669C345.167 258.669 346.6 260.101 346.6 261.869C346.6 263.636 345.167 265.069 343.4 265.069Z" fill="white"/>
</mask>
<g mask="url(#mask3_1026_5088)">
<path d="M340.2 253.869H330.501C329.714 260.183 324.327 265.069 317.8 265.069C310.731 265.069 305 259.338 305 252.269C305 245.2 310.731 239.469 317.8 239.469C323.172 239.469 327.771 242.778 329.67 247.469H349.8C351.567 247.469 353 248.901 353 250.669C353 252.436 351.567 253.869 349.8 253.869H346.6C346.6 255.636 345.167 257.069 343.4 257.069C341.633 257.069 340.2 255.636 340.2 253.869ZM317.8 258.669C321.335 258.669 324.2 255.803 324.2 252.269C324.2 248.734 321.335 245.869 317.8 245.869C314.265 245.869 311.4 248.734 311.4 252.269C311.4 255.803 314.265 258.669 317.8 258.669ZM343.4 265.069C341.633 265.069 340.2 263.636 340.2 261.869C340.2 260.101 341.633 258.669 343.4 258.669C345.167 258.669 346.6 260.101 346.6 261.869C346.6 263.636 345.167 265.069 343.4 265.069Z" fill="black"/>
<path d="M362.6 215.469H292.2V285.869H362.6V215.469Z" fill="#2D3B87"/>
</g>
<mask id="mask4_1026_5088" style="mask-type:alpha" maskUnits="userSpaceOnUse" x="154" y="353" width="48" height="46">
<path d="M178 355.468C179.409 354.214 181.306 353.489 183.647 353.489H199.176C200.736 353.489 202 354.753 202 356.313V391.607C202 393.166 200.736 394.43 199.176 394.43H183.647C182.703 394.43 182.005 394.811 181.404 395.532C181.072 395.931 180.845 396.338 180.734 396.594C180.603 397.117 180.337 397.548 179.988 397.88C179.446 398.423 178.722 398.676 178 398.668C177.278 398.676 176.554 398.423 176.012 397.88C175.663 397.548 175.397 397.117 175.266 396.594C175.155 396.338 174.928 395.931 174.596 395.532C173.995 394.811 173.297 394.43 172.353 394.43H156.824C155.264 394.43 154 393.166 154 391.607V356.313C154 354.753 155.264 353.489 156.824 353.489H172.353C174.694 353.489 176.591 354.214 178 355.468ZM196.353 359.136C193.296 359.136 193.268 359.136 189.492 359.136H183.647C182.286 359.136 181.651 359.559 181.231 360.399C180.933 360.995 180.824 361.653 180.824 361.96V389.25C181.688 388.947 182.631 388.783 183.647 388.783H196.353V359.136ZM159.665 359.136L159.647 388.783H172.353C173.369 388.783 174.312 388.947 175.176 389.25V361.96C175.176 361.653 175.067 360.995 174.769 360.399C174.349 359.559 173.714 359.136 172.353 359.136H166.508H159.665ZM165.294 370.43C163.735 370.43 162.471 369.166 162.471 367.607C162.471 366.048 163.735 364.783 165.294 364.783H169.529C171.089 364.783 172.353 366.048 172.353 367.607C172.353 369.166 171.089 370.43 169.529 370.43H165.294ZM165.294 377.489C163.735 377.489 162.471 376.225 162.471 374.666C162.471 373.106 163.735 371.842 165.294 371.842H169.529C171.089 371.842 172.353 373.106 172.353 374.666C172.353 376.225 171.089 377.489 169.529 377.489H165.294ZM165.294 384.548C163.735 384.548 162.471 383.284 162.471 381.725C162.471 380.165 163.735 378.901 165.294 378.901H169.529C171.089 378.901 172.353 380.165 172.353 381.725C172.353 383.284 171.089 384.548 169.529 384.548H165.294ZM186.471 370.43C184.911 370.43 183.647 369.166 183.647 367.607C183.647 366.048 184.911 364.783 186.471 364.783H190.706C192.265 364.783 193.529 366.048 193.529 367.607C193.529 369.166 192.265 370.43 190.706 370.43H186.471ZM186.471 377.489C184.911 377.489 183.647 376.225 183.647 374.666C183.647 373.106 184.911 371.842 186.471 371.842H190.706C192.265 371.842 193.529 373.106 193.529 374.666C193.529 376.225 192.265 377.489 190.706 377.489H186.471ZM186.471 384.548C184.911 384.548 183.647 383.284 183.647 381.725C183.647 380.165 184.911 378.901 186.471 378.901H190.706C192.265 378.901 193.529 380.165 193.529 381.725C193.529 383.284 192.265 384.548 190.706 384.548H186.471Z" fill="white"/>
</mask>
<g mask="url(#mask4_1026_5088)">
<path d="M178 355.468C179.409 354.214 181.306 353.489 183.647 353.489H199.176C200.736 353.489 202 354.753 202 356.313V391.607C202 393.166 200.736 394.43 199.176 394.43H183.647C182.703 394.43 182.005 394.811 181.404 395.532C181.072 395.931 180.845 396.338 180.734 396.594C180.603 397.117 180.337 397.548 179.988 397.88C179.446 398.423 178.722 398.676 178 398.668C177.278 398.676 176.554 398.423 176.012 397.88C175.663 397.548 175.397 397.117 175.266 396.594C175.155 396.338 174.928 395.931 174.596 395.532C173.995 394.811 173.297 394.43 172.353 394.43H156.824C155.264 394.43 154 393.166 154 391.607V356.313C154 354.753 155.264 353.489 156.824 353.489H172.353C174.694 353.489 176.591 354.214 178 355.468ZM196.353 359.136C193.296 359.136 193.268 359.136 189.492 359.136H183.647C182.286 359.136 181.651 359.559 181.231 360.399C180.933 360.995 180.824 361.653 180.824 361.96V389.25C181.688 388.947 182.631 388.783 183.647 388.783H196.353V359.136ZM159.665 359.136L159.647 388.783H172.353C173.369 388.783 174.312 388.947 175.176 389.25V361.96C175.176 361.653 175.067 360.995 174.769 360.399C174.349 359.559 173.714 359.136 172.353 359.136H166.508H159.665ZM165.294 370.43C163.735 370.43 162.471 369.166 162.471 367.607C162.471 366.048 163.735 364.783 165.294 364.783H169.529C171.089 364.783 172.353 366.048 172.353 367.607C172.353 369.166 171.089 370.43 169.529 370.43H165.294ZM165.294 377.489C163.735 377.489 162.471 376.225 162.471 374.666C162.471 373.106 163.735 371.842 165.294 371.842H169.529C171.089 371.842 172.353 373.106 172.353 374.666C172.353 376.225 171.089 377.489 169.529 377.489H165.294ZM165.294 384.548C163.735 384.548 162.471 383.284 162.471 381.725C162.471 380.165 163.735 378.901 165.294 378.901H169.529C171.089 378.901 172.353 380.165 172.353 381.725C172.353 383.284 171.089 384.548 169.529 384.548H165.294ZM186.471 370.43C184.911 370.43 183.647 369.166 183.647 367.607C183.647 366.048 184.911 364.783 186.471 364.783H190.706C192.265 364.783 193.529 366.048 193.529 367.607C193.529 369.166 192.265 370.43 190.706 370.43H186.471ZM186.471 377.489C184.911 377.489 183.647 376.225 183.647 374.666C183.647 373.106 184.911 371.842 186.471 371.842H190.706C192.265 371.842 193.529 373.106 193.529 374.666C193.529 376.225 192.265 377.489 190.706 377.489H186.471ZM186.471 384.548C184.911 384.548 183.647 383.284 183.647 381.725C183.647 380.165 184.911 378.901 186.471 378.901H190.706C192.265 378.901 193.529 380.165 193.529 381.725C193.529 383.284 192.265 384.548 190.706 384.548H186.471Z" fill="#2D3B87"/>
<path d="M209.059 345.019H146.941V407.136H209.059V345.019Z" fill="#2D3B87"/>
</g>
<mask id="mask5_1026_5088" style="mask-type:alpha" maskUnits="userSpaceOnUse" x="305" y="350" width="48" height="49">
<path d="M340.219 380.457L344.195 384.433C345.695 385.933 345.695 388.364 344.195 389.864C342.696 391.363 340.264 391.363 338.765 389.864L334.788 385.887C331.753 387.898 328.113 389.068 324.2 389.068C313.596 389.068 305 380.472 305 369.868C305 359.265 313.596 350.668 324.2 350.668C334.804 350.668 343.4 359.265 343.4 369.868C343.4 373.782 342.229 377.422 340.219 380.457ZM324.2 381.388C330.562 381.388 335.72 376.231 335.72 369.868C335.72 363.506 330.562 358.348 324.2 358.348C317.838 358.348 312.68 363.506 312.68 369.868C312.68 376.231 317.838 381.388 324.2 381.388ZM349.16 398.668C347.039 398.668 345.32 396.949 345.32 394.828C345.32 392.708 347.039 390.988 349.16 390.988C351.281 390.988 353 392.708 353 394.828C353 396.949 351.281 398.668 349.16 398.668Z" fill="white"/>
</mask>
<g mask="url(#mask5_1026_5088)">
<path d="M340.219 380.457L344.195 384.433C345.695 385.933 345.695 388.364 344.195 389.864C342.696 391.363 340.264 391.363 338.765 389.864L334.788 385.887C331.753 387.898 328.113 389.068 324.2 389.068C313.596 389.068 305 380.472 305 369.868C305 359.265 313.596 350.668 324.2 350.668C334.804 350.668 343.4 359.265 343.4 369.868C343.4 373.782 342.229 377.422 340.219 380.457ZM324.2 381.388C330.562 381.388 335.72 376.231 335.72 369.868C335.72 363.506 330.562 358.348 324.2 358.348C317.838 358.348 312.68 363.506 312.68 369.868C312.68 376.231 317.838 381.388 324.2 381.388ZM349.16 398.668C347.039 398.668 345.32 396.949 345.32 394.828C345.32 392.708 347.039 390.988 349.16 390.988C351.281 390.988 353 392.708 353 394.828C353 396.949 351.281 398.668 349.16 398.668Z" fill="#1AAFF0"/>
<path d="M368.36 331.469H283.88V415.949H368.36V331.469Z" fill="#2D3B87"/>
</g>
</svg>
