<svg width="16" height="17" viewBox="0 0 16 17" fill="none" xmlns="http://www.w3.org/2000/svg">
<g clip-path="url(#clip0_599_1407)">
<path d="M15.996 16.5V16.4993H16V10.6313C16 7.76065 15.382 5.54932 12.026 5.54932C10.4127 5.54932 9.33003 6.43465 8.88803 7.27399H8.84136V5.81732H5.65936V16.4993H8.9727V11.21C8.9727 9.81732 9.2367 8.47065 10.9614 8.47065C12.6607 8.47065 12.686 10.06 12.686 11.2993V16.5H15.996Z" fill="#4E575D"/>
<path d="M0.263977 5.81812H3.58131V16.5001H0.263977V5.81812Z" fill="#4E575D"/>
<path d="M1.92133 0.5C0.860667 0.5 0 1.36067 0 2.42133C0 3.482 0.860667 4.36067 1.92133 4.36067C2.982 4.36067 3.84267 3.482 3.84267 2.42133C3.842 1.36067 2.98133 0.5 1.92133 0.5V0.5Z" fill="#4E575D"/>
</g>
<defs>
<clipPath id="clip0_599_1407">
<rect width="16" height="16" fill="white" transform="translate(0 0.5)"/>
</clipPath>
</defs>
</svg>
