<svg width="374" height="151" viewBox="0 0 374 151" fill="none" xmlns="http://www.w3.org/2000/svg">
<g clip-path="url(#clip0_896_1397)">
<path d="M59 40.437C36.5 40.437 26 54.437 26 54.437H75.9269C77.7391 54.437 79.3249 52.496 79.7918 50.9638L83 40.437H59Z" fill="#A5DFDB"/>
<path d="M83 40.437L86.2082 28.4064C86.6751 26.6553 88.2664 25.4099 90.0695 25.5911C105.832 27.1749 116 40.437 116 40.437H83Z" fill="#A5DFDB"/>
<path d="M125 74.437C125 74.437 116 59.437 91 59.437H82.0731C80.2609 59.437 78.6751 60.6553 78.2082 62.4064L75 74.437H125Z" fill="#18AEB2"/>
<path d="M25 74.437C25 74.437 35.5 89.437 55 89.437H67.9269C69.7391 89.437 71.3249 88.2187 71.7918 86.4677L75 74.437H25Z" fill="#18AEB2"/>
<path d="M95 110.437C113 110.437 124 94.437 124 94.437H74.1231C72.2877 94.437 70.6877 95.6862 70.2426 97.4669L67 110.437H95Z" fill="#067384"/>
<path d="M67 110.437L63.7918 122.468C63.3249 124.219 61.7331 125.463 59.9291 125.29C43.7569 123.742 34 110.437 34 110.437H67Z" fill="#067384"/>
<g clip-path="url(#clip1_896_1397)">
<path d="M173.462 110.437C165.139 110.437 154.876 106.507 150.084 103.182L152.33 94.1931C152.546 93.328 153.787 93.1057 154.426 93.7275C158.824 98.0072 167.859 99.6678 173.247 99.6678C176.404 99.6678 178.843 99.237 180.565 98.3755C182.287 97.5139 183.148 96.3293 183.148 94.8216C183.148 93.6011 182.323 92.5601 180.673 91.6986C179.094 90.837 176.332 90.0114 172.386 89.2216C164.135 87.5704 158.323 85.4165 154.951 82.7601C151.65 80.0319 150 76.3703 150 71.7755C150 68.7601 150.933 65.9242 152.798 63.2678C154.664 60.6114 157.426 58.4934 161.085 56.9139C164.744 55.2627 169.121 54.437 174.215 54.437C180.858 54.437 191.836 58.0549 197.099 62.3722L194.697 72.3531C194.512 73.1245 193.539 73.3829 192.973 72.8272C185.72 65.7121 180.436 65.2062 174.43 65.2062C171.489 65.2062 169.121 65.7088 167.327 66.7139C165.605 67.7191 164.744 68.9396 164.744 70.3755C164.744 71.8832 165.605 73.1396 167.327 74.1447C169.049 75.1498 172.099 76.0832 176.475 76.9447C184.296 78.5242 189.821 80.6062 193.049 83.1909C196.35 85.7037 198 89.2216 198 93.7447C198 98.7703 195.848 102.827 191.543 105.914C187.309 108.929 181.283 110.437 173.462 110.437Z" fill="#24282B"/>
<path d="M257.222 100.422C258.07 100.422 258.83 100.379 259.501 100.294C260.217 100.203 260.9 100.794 260.811 101.51L259.889 108.929C257.815 109.934 255.407 110.437 252.667 110.437C245.556 110.437 241.296 107.745 239.889 102.36C238.259 105.016 235.741 107.027 232.333 108.391C228.926 109.755 224.889 110.437 220.222 110.437C214.815 110.437 210.593 109.252 207.556 106.883C204.519 104.514 203 101.104 203 96.6524C203 87.8934 210.222 82.2216 224.667 79.637L238 77.1601V74.5755C238 71.7037 237.148 69.4421 235.444 67.7909C233.815 66.0678 231.519 65.2062 228.556 65.2062C225.148 65.2062 222.37 65.9242 220.222 67.3601C219.168 68.0649 218.274 68.986 217.541 70.1234C216.222 72.1683 213.764 73.5364 211.512 72.6152L203.667 69.4062C204.852 64.7396 207.519 61.078 211.667 58.4216C215.815 55.7652 221.222 54.437 227.889 54.437C235.815 54.437 242 56.1242 246.444 59.4985C250.889 62.8011 253.111 67.7191 253.111 74.2524V96.3293C253.111 97.7652 253.444 98.8062 254.111 99.4524C254.778 100.099 255.815 100.422 257.222 100.422ZM225 100.422C228.259 100.422 231.222 99.6678 233.889 98.1601C236.63 96.5806 238 94.4627 238 91.8062V86.2062L226.111 88.7909C223.593 89.3652 221.704 90.155 220.444 91.1601C219.259 92.0934 218.667 93.4216 218.667 95.1447C218.667 96.8678 219.222 98.196 220.333 99.1293C221.444 99.9909 223 100.422 225 100.422Z" fill="#24282B"/>
<path d="M316.485 54.437C317.203 54.437 317.687 55.1702 317.405 55.8299L294.5 109.437C290.695 119.018 283.724 125.437 273 125.437C267.765 125.437 262.961 123.947 259 120.437L263.291 112.635C263.91 111.51 265.415 111.267 266.518 111.925C272.29 115.364 278.949 112.85 281.508 106.44L259.605 55.8342C259.319 55.174 259.803 54.437 260.522 54.437H272.292C273.927 54.437 275.398 55.4328 276.006 56.9514L289 89.437L302.961 56.8613C303.591 55.3906 305.037 54.437 306.638 54.437H316.485Z" fill="#24282B"/>
<path fill-rule="evenodd" clip-rule="evenodd" d="M344.381 103.862C341.699 102.808 338.674 101.619 338.5 92.437V54.42H331.5C331.5 54.42 334.013 51.0802 338.5 47.3613V25.437H328C325.791 25.437 324 27.2279 324 29.437V94.42C324 100.004 325.158 104.085 327.473 106.663C329.859 109.169 333.878 110.437 339 110.437C342.188 110.437 348.524 110.422 348.524 110.422C348.524 105.489 346.566 104.72 344.381 103.862Z" fill="#24282B"/>
</g>
</g>
<defs>
<clipPath id="clip0_896_1397">
<rect width="374" height="150" fill="white" transform="translate(0 0.437012)"/>
</clipPath>
<clipPath id="clip1_896_1397">
<rect width="249" height="150" fill="white" transform="translate(125 0.437012)"/>
</clipPath>
</defs>
</svg>
