<svg width="1028" height="578" viewBox="0 0 1028 578" fill="none" xmlns="http://www.w3.org/2000/svg">
<g clip-path="url(#clip0)">
<g opacity="0.05">
<path d="M959.134 11.6636L815.569 347.666C792.323 406.198 749.735 445.412 684.223 445.412C652.24 445.412 622.891 436.307 598.695 414.866L624.909 367.203C628.691 360.328 637.884 358.846 644.625 362.862C679.884 383.871 720.563 368.515 736.2 329.355L598.695 11.6636H679.897C689.889 11.6636 698.874 17.7471 702.585 27.0246L781.969 225.483L867.258 26.4741C871.109 17.4892 879.944 11.6636 889.719 11.6636H959.134Z" fill="white"/>
<path d="M76.131 353.775C25.2876 353.775 -37.4128 329.767 -66.6866 309.453L-52.9668 254.538C-51.6465 249.254 -44.0681 247.896 -40.164 251.694C-13.2913 277.84 41.9004 287.984 74.816 287.984C94.1023 287.984 109.005 285.353 119.525 280.089C130.045 274.826 135.305 267.589 135.305 258.378C135.305 250.922 130.264 244.562 120.183 239.299C110.539 234.036 93.664 228.992 69.5562 224.167C19.149 214.079 -16.3552 200.921 -36.9564 184.693C-57.1193 168.026 -67.2007 145.657 -67.2007 117.587C-67.2007 99.1651 -61.5025 81.8403 -50.1061 65.6119C-38.7097 49.3835 -21.8342 36.4447 0.520271 26.7954C22.8748 16.7075 49.6125 11.6636 80.7334 11.6636C121.317 11.6636 188.381 33.7658 220.53 60.1409L205.861 121.115C204.728 125.828 198.787 127.406 195.327 124.012C151.02 80.5448 118.735 77.4542 82.0484 77.4542C64.0771 77.4542 49.6125 80.5244 38.6544 86.6649C28.1346 92.8054 22.8747 100.262 22.8747 109.034C22.8747 118.244 28.1346 125.92 38.6544 132.06C49.1742 138.201 67.8029 143.903 94.5406 149.166C142.318 158.815 176.069 171.535 195.793 187.325C215.956 202.676 226.038 224.167 226.038 251.799C226.038 282.502 212.888 307.283 186.588 326.143C160.727 344.564 123.908 353.775 76.131 353.775Z" fill="white"/>
<path d="M587.834 292.59C593.013 292.59 597.654 292.329 601.758 291.808C606.131 291.253 610.303 294.864 609.759 299.239L604.125 344.564C591.454 350.705 576.747 353.775 560.004 353.775C516.561 353.775 490.541 337.327 481.943 304.432C471.987 320.66 456.601 332.941 435.785 341.275C414.968 349.608 390.306 353.775 361.796 353.775C328.762 353.775 302.968 346.538 284.414 332.064C265.86 317.59 256.583 296.756 256.583 269.563C256.583 216.053 300.705 181.403 388.948 165.614L470.403 150.482V134.692C470.403 117.148 465.199 103.332 454.791 93.244C444.835 82.7175 430.807 77.4542 412.706 77.4542C391.889 77.4542 374.92 81.8402 361.796 90.6123C355.354 94.9183 349.894 100.545 345.415 107.493C337.361 119.987 322.342 128.344 308.584 122.717L260.656 103.113C267.897 74.6033 284.188 52.2345 309.529 36.0061C334.871 19.7778 367.905 11.6636 408.633 11.6636C457.053 11.6636 494.84 21.9708 521.991 42.5852C549.143 62.761 562.719 92.8054 562.719 132.718V267.589C562.719 276.361 564.755 282.721 568.828 286.668C572.901 290.616 579.236 292.59 587.834 292.59ZM390.984 292.59C410.896 292.59 428.997 287.984 445.288 278.774C462.031 269.124 470.403 256.185 470.403 239.957V205.746L397.772 221.536C382.386 225.044 370.847 229.869 363.154 236.01C355.913 241.711 352.293 249.826 352.293 260.352C352.293 270.879 355.687 278.993 362.475 284.695C369.263 289.958 378.766 292.59 390.984 292.59Z" fill="white"/>
<path fill-rule="evenodd" clip-rule="evenodd" d="M1120.3 313.71C1103.92 307.272 1085.43 300.01 1084.37 243.915V11.6635H1041.61C1041.61 11.6635 1056.96 -8.73926 1084.37 -31.4585V-165.397H1020.22C1006.73 -165.397 995.788 -154.456 995.788 -140.96V256.029C995.788 290.145 1002.86 315.076 1017.01 330.822C1031.58 346.13 1056.13 353.879 1087.43 353.879C1106.9 353.879 1145.61 353.784 1145.61 353.784C1145.61 323.654 1133.65 318.955 1120.3 313.71Z" fill="white"/>
</g>
<g clip-path="url(#clip1)">
<path d="M299.903 229.925C262.415 229.925 244.921 253.251 244.921 253.251H328.105C331.125 253.251 333.767 250.017 334.545 247.464L339.89 229.925H299.903Z" fill="#5EECD7"/>
<path d="M339.89 229.925L345.235 209.881C346.013 206.963 348.665 204.888 351.669 205.19C377.932 207.829 394.872 229.925 394.872 229.925H339.89Z" fill="#5EECD7"/>
<path d="M409.867 286.574C409.867 286.574 394.872 261.582 353.219 261.582H338.346C335.326 261.582 332.684 263.612 331.906 266.529L326.561 286.574H409.867Z" fill="#12ACB3"/>
<path d="M243.255 286.574C243.255 286.574 260.749 311.566 293.239 311.566H314.777C317.796 311.566 320.438 309.536 321.216 306.618L326.561 286.574H243.255Z" fill="#12ACB3"/>
<path d="M359.884 346.554C389.874 346.554 408.201 319.896 408.201 319.896H325.1C322.042 319.896 319.376 321.977 318.634 324.944L313.232 346.554H359.884Z" fill="#025570"/>
<path d="M313.232 346.554L307.887 366.599C307.109 369.516 304.457 371.59 301.451 371.302C274.506 368.722 258.25 346.554 258.25 346.554H313.232Z" fill="#025570"/>
<path d="M731.43 253.251L692.276 344.888C685.936 360.851 674.321 371.546 656.454 371.546C647.732 371.546 639.727 369.063 633.128 363.215L640.278 350.216C641.309 348.341 643.816 347.937 645.655 349.032C655.271 354.762 666.365 350.574 670.63 339.894L633.128 253.251H655.274C657.999 253.251 660.45 254.91 661.462 257.44L683.112 311.565L706.373 257.29C707.423 254.84 709.833 253.251 712.499 253.251H731.43Z" fill="white"/>
<path d="M490.611 346.554C476.745 346.554 459.644 340.006 451.661 334.466L455.402 319.49C455.763 318.048 457.829 317.678 458.894 318.714C466.223 325.844 481.275 328.611 490.252 328.611C495.512 328.611 499.577 327.893 502.446 326.458C505.315 325.023 506.749 323.049 506.749 320.537C506.749 318.503 505.374 316.769 502.625 315.333C499.995 313.898 495.393 312.522 488.818 311.207C475.07 308.455 465.387 304.867 459.769 300.441C454.27 295.895 451.521 289.795 451.521 282.139C451.521 277.115 453.075 272.39 456.183 267.964C459.291 263.538 463.893 260.009 469.99 257.378C476.087 254.627 483.379 253.251 491.866 253.251C502.934 253.251 521.225 259.279 529.993 266.472L525.992 283.101C525.683 284.387 524.063 284.817 523.119 283.891C511.035 272.037 502.23 271.194 492.225 271.194C487.324 271.194 483.379 272.031 480.39 273.706C477.521 275.381 476.087 277.414 476.087 279.806C476.087 282.318 477.521 284.412 480.39 286.086C483.259 287.761 488.34 289.316 495.632 290.752C508.662 293.383 517.867 296.852 523.246 301.159C528.745 305.345 531.495 311.207 531.495 318.743C531.495 327.116 527.908 333.874 520.736 339.018C513.683 344.042 503.641 346.554 490.611 346.554Z" fill="white"/>
<path d="M630.166 329.867C631.579 329.867 632.844 329.796 633.964 329.654C635.156 329.503 636.294 330.487 636.146 331.681L634.609 344.042C631.154 345.717 627.143 346.554 622.576 346.554C610.728 346.554 603.632 342.068 601.287 333.097C598.572 337.523 594.375 340.872 588.698 343.145C583.021 345.418 576.295 346.554 568.52 346.554C559.51 346.554 552.475 344.58 547.415 340.633C542.355 336.685 539.825 331.004 539.825 323.587C539.825 308.994 551.858 299.544 575.925 295.237L598.14 291.11V286.804C598.14 282.019 596.72 278.251 593.882 275.5C591.167 272.629 587.341 271.194 582.404 271.194C576.727 271.194 572.099 272.39 568.52 274.782C566.763 275.957 565.273 277.491 564.052 279.386C561.855 282.794 557.759 285.073 554.007 283.538L540.936 278.192C542.911 270.416 547.354 264.316 554.265 259.89C561.176 255.464 570.186 253.251 581.293 253.251C594.499 253.251 604.804 256.062 612.209 261.684C619.614 267.187 623.317 275.381 623.317 286.266V323.049C623.317 325.441 623.872 327.176 624.983 328.252C626.094 329.329 627.821 329.867 630.166 329.867ZM576.48 329.867C581.91 329.867 586.847 328.611 591.29 326.099C595.856 323.468 598.14 319.939 598.14 315.513V306.183L578.331 310.489C574.135 311.446 570.988 312.762 568.89 314.436C566.915 315.991 565.928 318.204 565.928 321.075C565.928 323.946 566.853 326.159 568.705 327.714C570.556 329.149 573.148 329.867 576.48 329.867Z" fill="white"/>
<path fill-rule="evenodd" clip-rule="evenodd" d="M775.384 335.627C770.916 333.872 765.875 331.891 765.586 316.592V253.251H753.923C753.923 253.251 758.11 247.687 765.586 241.49V204.962H748.091C744.411 204.962 741.427 207.946 741.427 211.626V319.896C741.427 329.201 743.356 336 747.214 340.294C751.189 344.469 757.884 346.583 766.419 346.583C771.731 346.583 782.286 346.557 782.286 346.557C782.286 338.339 779.025 337.058 775.384 335.627Z" fill="white"/>
</g>
</g>
<defs>
<clipPath id="clip0">
<rect width="1028" height="578" fill="white"/>
</clipPath>
<clipPath id="clip1">
<rect width="623.131" height="249.919" fill="white" transform="translate(201.602 163.28)"/>
</clipPath>
</defs>
</svg>
