<svg width="1028" height="578" viewBox="0 0 1028 578" fill="none" xmlns="http://www.w3.org/2000/svg">
<path d="M693.925 358.528C685.392 208.025 434.813 301.939 434.811 161.477C434.81 115.705 553.508 40.727 659.015 110.275C764.522 179.823 743.575 318.963 693.925 358.528Z" fill="white"/>
<path d="M333.69 221.213C342.224 371.716 592.802 277.802 592.804 418.263C592.805 464.035 474.108 539.014 368.601 469.466C263.093 399.918 284.04 260.778 333.69 221.213Z" fill="white"/>
<path d="M682.007 289.482C682.007 381.874 607.109 456.772 514.718 456.772C422.326 456.772 347.428 381.874 347.428 289.482C347.428 249.044 361.742 212.021 385.606 183.097C416.332 145.857 462.75 122.193 514.718 122.193C607.109 122.193 682.007 197.091 682.007 289.482Z" stroke="#0C4F64" stroke-width="53.316" style="mix-blend-mode:multiply"/>
</svg>
