<svg width="260" height="261" viewBox="0 0 260 261" fill="none" xmlns="http://www.w3.org/2000/svg">
<path d="M102.267 69.7705C63.2667 69.7705 45.0667 94.0372 45.0667 94.0372H131.607C134.748 94.0372 137.496 90.6727 138.306 88.017L143.867 69.7705H102.267Z" fill="white"/>
<path d="M143.867 69.7705L149.428 48.9174C150.237 45.8823 152.995 43.7235 156.121 44.0375C183.443 46.7828 201.067 69.7705 201.067 69.7705H143.867Z" fill="white"/>
<path d="M216.667 128.704C216.667 128.704 201.067 102.704 157.733 102.704H142.26C139.119 102.704 136.37 104.815 135.561 107.85L130 128.704H216.667Z" fill="white"/>
<path d="M43.3333 128.704C43.3333 128.704 61.5333 154.704 95.3333 154.704H117.74C120.881 154.704 123.63 152.592 124.439 149.557L130 128.704H43.3333Z" fill="white"/>
<path d="M164.667 191.104C195.867 191.104 214.933 163.37 214.933 163.37H128.48C125.299 163.37 122.525 165.535 121.754 168.622L116.133 191.104H164.667Z" fill="white"/>
<path d="M116.133 191.104L110.572 211.957C109.763 214.992 107.004 217.149 103.877 216.85C75.8452 214.165 58.9333 191.104 58.9333 191.104H116.133Z" fill="white"/>
</svg>
