<svg width="506" height="506" viewBox="0 0 506 506" fill="none" xmlns="http://www.w3.org/2000/svg">
<path fill-rule="evenodd" clip-rule="evenodd" d="M307.313 198.121C306.583 197.041 305.555 195.816 304.146 194.406C303.38 193.638 302.573 192.914 301.732 192.238C301.626 192.153 301.526 192.063 301.43 191.967C299.905 190.441 299.972 187.967 301.564 186.536C301.768 186.352 301.768 186.352 301.803 186.322C307.713 180.981 311.147 173.42 311.147 165.307C311.147 149.685 298.47 137 282.859 137C267.248 137 254.572 149.685 254.572 165.307C254.572 180.929 267.248 193.614 282.859 193.614C284.92 193.614 286.591 195.286 286.591 197.349C286.591 199.411 284.92 201.083 282.859 201.083C274.979 201.083 267.691 198.527 261.779 194.198C261.701 194.274 261.623 194.351 261.546 194.429C255.899 200.079 252.727 207.742 252.727 215.733V258.979C252.727 259.506 252.618 260.008 252.421 260.462C252.45 261.852 251.699 263.202 250.377 263.872L244.582 266.813C247.661 270.43 249.972 274.603 251.409 279.076L269.009 270.272C270.853 269.349 273.094 270.097 274.016 271.942C274.937 273.787 274.19 276.03 272.347 276.952L254.344 285.958C253.89 286.185 253.412 286.311 252.936 286.344C253.062 287.565 253.127 288.798 253.127 290.037V299.611L290.391 280.969C292.235 280.047 294.476 280.795 295.398 282.64C295.641 283.127 295.768 283.642 295.789 284.154V273.015C295.789 263.057 299.736 253.508 306.764 246.459C301.088 240.126 297.634 231.758 297.634 222.589C297.634 213.128 301.311 204.521 307.313 198.121ZM253.127 307.961V322.329L295.789 300.982V284.46C295.735 285.774 294.987 287.02 293.729 287.65L253.127 307.961ZM253.127 330.68V345.353L295.789 324.007V309.332L253.127 330.68ZM245.663 351.32C245.662 351.372 245.662 351.424 245.663 351.476V371.866C245.663 373.355 246.534 374.641 247.794 375.24C248.813 375.76 250.057 375.806 251.159 375.254L301.543 350.045C303.358 349.137 304.111 346.947 303.253 345.119V326.4C303.254 326.341 303.254 326.282 303.253 326.223V303.353C303.253 303.309 303.253 303.266 303.253 303.222V273.015C303.253 265.024 306.424 257.361 312.071 251.711C312.148 251.633 312.226 251.556 312.305 251.479C318.217 255.808 325.505 258.365 333.385 258.365C335.446 258.365 337.117 256.693 337.117 254.63C337.117 252.568 335.446 250.896 333.385 250.896C317.774 250.896 305.097 238.211 305.097 222.589C305.097 214.6 308.413 207.379 313.742 202.23C313.826 202.189 313.902 202.144 313.976 202.095C314.246 201.914 314.469 201.663 314.853 201.233L314.871 201.195C319.835 196.889 326.309 194.283 333.385 194.283C348.995 194.283 361.672 206.968 361.672 222.589C361.672 230.703 358.239 238.263 352.329 243.603L352.328 243.604C352.29 243.638 352.29 243.639 352.097 243.811C350.498 245.24 350.427 247.72 351.955 249.249C352.051 249.345 352.151 249.436 352.257 249.52C353.097 250.195 353.904 250.92 354.677 251.692C360.314 257.334 363.483 264.988 363.483 272.969C363.483 275.824 363.585 281.006 363.851 292.648L363.862 293.139C364.155 305.957 364.24 310.095 364.24 312.536C364.24 314.599 365.911 316.271 367.971 316.271C370.032 316.271 371.703 314.599 371.703 312.536C371.703 310.005 371.619 305.91 371.324 292.968L371.313 292.477C371.049 280.93 370.946 275.737 370.946 272.969C370.946 263.033 367.011 253.501 360.006 246.463C365.817 239.982 369.135 231.547 369.135 222.589C369.135 202.843 353.117 186.814 333.385 186.814C325.807 186.814 318.776 189.178 312.99 193.21C312.072 191.961 310.908 190.615 309.477 189.179C315.298 182.684 318.61 174.256 318.61 165.307C318.61 145.56 302.592 129.531 282.859 129.531C263.126 129.531 247.109 145.56 247.109 165.307C247.109 174.476 250.563 182.844 256.238 189.178C249.212 196.224 245.264 205.774 245.264 215.733V222.756C239.104 213.965 228.902 208.214 217.366 208.214C208.917 208.214 201.183 211.3 195.229 216.405C195.076 215.933 194.825 215.486 194.479 215.094C199.807 209.084 203.043 201.177 203.043 192.519C203.043 173.73 187.802 158.477 169.026 158.477C150.25 158.477 135.008 173.73 135.008 192.519C135.008 200.916 138.073 208.832 143.456 214.964C136.867 221.659 133.17 230.682 133.17 240.088V315.58C133.17 317.642 134.841 319.314 136.902 319.314C137.718 319.314 138.474 319.051 139.088 318.606C140.01 318.924 141.054 318.882 141.992 318.406L181.603 298.307V312.673L181.578 312.684L181.541 312.703L160.088 323.437C158.245 324.359 157.497 326.602 158.419 328.447C159.341 330.292 161.582 331.039 163.426 330.117L181.603 321.022V339.761C181.603 341.824 183.273 343.496 185.334 343.496C187.395 343.496 189.066 341.824 189.066 339.761V289.992C189.066 282.487 192.045 275.291 197.348 269.984L197.427 269.905C198.025 270.338 198.639 270.753 199.269 271.149C201.013 272.248 203.317 271.723 204.414 269.977C205.512 268.231 204.987 265.926 203.242 264.827C195.547 259.983 190.78 251.541 190.78 242.289C190.78 227.606 202.694 215.683 217.366 215.683C232.039 215.683 243.953 227.606 243.953 242.289C243.953 256.97 232.039 268.893 217.366 268.893C215.305 268.893 213.635 270.565 213.635 272.627C213.635 274.69 215.305 276.362 217.366 276.362C224.803 276.362 231.687 273.971 237.289 269.917C237.317 269.944 237.344 269.971 237.371 269.998C242.68 275.311 245.663 282.52 245.663 290.037V351.32ZM253.127 365.92V353.703L295.789 332.357V344.574L253.127 365.92ZM181.521 289.974L140.633 310.721V240.088C140.633 232.571 143.617 225.362 148.928 220.048C149.403 219.573 149.891 219.118 150.392 218.683C150.896 218.477 151.362 218.157 151.75 217.724C153.017 216.315 153.014 214.207 151.816 212.805C151.804 212.788 151.79 212.771 151.777 212.755C151.553 212.476 151.298 212.238 151.02 212.041C145.609 207.042 142.471 200.034 142.471 192.519C142.471 177.855 154.371 165.946 169.026 165.946C183.68 165.946 195.58 177.855 195.58 192.519C195.58 207.183 183.68 219.091 169.026 219.091C166.965 219.091 165.294 220.763 165.294 222.826C165.294 224.888 166.965 226.56 169.026 226.56C176.463 226.56 183.345 224.167 188.945 220.11L188.991 220.155L189.043 220.207C189.509 220.673 190.067 220.99 190.659 221.158C186.062 226.967 183.316 234.309 183.316 242.289C183.316 250.797 186.466 258.772 191.887 264.888C185.312 271.563 181.618 280.557 181.603 289.934C181.575 289.947 181.548 289.961 181.521 289.974ZM286.552 164.692C286.552 162.555 288.327 160.82 290.515 160.82C292.702 160.82 294.476 162.555 294.476 164.692C294.476 166.828 292.702 168.562 290.515 168.562C288.327 168.562 286.552 166.828 286.552 164.692ZM272.508 160.82C270.321 160.82 268.545 162.555 268.545 164.692C268.545 166.828 270.321 168.562 272.508 168.562C274.695 168.562 276.471 166.828 276.471 164.692C276.471 162.555 274.695 160.82 272.508 160.82ZM312.155 225.883C312.155 223.746 313.929 222.011 316.116 222.011C318.303 222.011 320.079 223.746 320.079 225.883C320.079 228.019 318.303 229.753 316.116 229.753C313.929 229.753 312.155 228.019 312.155 225.883ZM238.551 243.823C238.551 241.802 236.873 240.16 234.804 240.16C232.735 240.16 231.055 241.802 231.055 243.823C231.055 245.845 232.735 247.485 234.804 247.485C236.873 247.485 238.551 245.845 238.551 243.823ZM169.643 190.786C171.712 190.786 173.391 192.428 173.391 194.449C173.391 196.469 171.712 198.111 169.643 198.111C167.575 198.111 165.896 196.469 165.896 194.449C165.896 192.428 167.575 190.786 169.643 190.786ZM190.423 194.449C190.423 192.428 188.744 190.786 186.675 190.786C184.607 190.786 182.928 192.428 182.928 194.449C182.928 196.469 184.607 198.111 186.675 198.111C188.744 198.111 190.423 196.469 190.423 194.449Z" fill="#009F30"/>
<mask id="mask0_1026_5140" style="mask-type:alpha" maskUnits="userSpaceOnUse" x="133" y="129" width="239" height="247">
<path fill-rule="evenodd" clip-rule="evenodd" d="M307.313 198.121C306.583 197.041 305.555 195.816 304.146 194.406C303.38 193.638 302.573 192.914 301.732 192.238C301.626 192.153 301.526 192.063 301.43 191.967C299.905 190.441 299.972 187.967 301.564 186.536C301.768 186.352 301.768 186.352 301.803 186.322C307.713 180.981 311.147 173.42 311.147 165.307C311.147 149.685 298.47 137 282.859 137C267.248 137 254.572 149.685 254.572 165.307C254.572 180.929 267.248 193.614 282.859 193.614C284.92 193.614 286.591 195.286 286.591 197.349C286.591 199.411 284.92 201.083 282.859 201.083C274.979 201.083 267.691 198.527 261.779 194.198C261.701 194.274 261.623 194.351 261.546 194.429C255.899 200.079 252.727 207.742 252.727 215.733V258.979C252.727 259.506 252.618 260.008 252.421 260.462C252.45 261.852 251.699 263.202 250.377 263.872L244.582 266.813C247.661 270.43 249.972 274.603 251.409 279.076L269.009 270.272C270.853 269.349 273.094 270.097 274.016 271.942C274.937 273.787 274.19 276.03 272.347 276.952L254.344 285.958C253.89 286.185 253.412 286.311 252.936 286.344C253.062 287.565 253.127 288.798 253.127 290.037V299.611L290.391 280.969C292.235 280.047 294.476 280.795 295.398 282.64C295.641 283.127 295.768 283.642 295.789 284.154V273.015C295.789 263.057 299.736 253.508 306.764 246.459C301.088 240.126 297.634 231.758 297.634 222.589C297.634 213.128 301.311 204.521 307.313 198.121ZM253.127 307.961V322.329L295.789 300.982V284.46C295.735 285.774 294.987 287.02 293.729 287.65L253.127 307.961ZM253.127 330.68V345.353L295.789 324.007V309.332L253.127 330.68ZM245.663 351.32C245.662 351.372 245.662 351.424 245.663 351.476V371.866C245.663 373.355 246.534 374.641 247.794 375.24C248.813 375.76 250.057 375.806 251.159 375.254L301.543 350.045C303.358 349.137 304.111 346.947 303.253 345.119V326.4C303.254 326.341 303.254 326.282 303.253 326.223V303.353C303.253 303.309 303.253 303.266 303.253 303.222V273.015C303.253 265.024 306.424 257.361 312.071 251.711C312.148 251.633 312.226 251.556 312.305 251.479C318.217 255.808 325.505 258.365 333.385 258.365C335.446 258.365 337.117 256.693 337.117 254.63C337.117 252.568 335.446 250.896 333.385 250.896C317.774 250.896 305.097 238.211 305.097 222.589C305.097 214.6 308.413 207.379 313.742 202.23C313.826 202.189 313.902 202.144 313.976 202.095C314.246 201.914 314.469 201.663 314.853 201.233L314.871 201.195C319.835 196.889 326.309 194.283 333.385 194.283C348.995 194.283 361.672 206.968 361.672 222.589C361.672 230.703 358.239 238.263 352.329 243.603L352.328 243.604C352.29 243.638 352.29 243.639 352.097 243.811C350.498 245.24 350.427 247.72 351.955 249.249C352.051 249.345 352.151 249.436 352.257 249.52C353.097 250.195 353.904 250.92 354.677 251.692C360.314 257.334 363.483 264.988 363.483 272.969C363.483 275.824 363.585 281.006 363.851 292.648L363.862 293.139C364.155 305.957 364.24 310.095 364.24 312.536C364.24 314.599 365.911 316.271 367.971 316.271C370.032 316.271 371.703 314.599 371.703 312.536C371.703 310.005 371.619 305.91 371.324 292.968L371.313 292.477C371.049 280.93 370.946 275.737 370.946 272.969C370.946 263.033 367.011 253.501 360.006 246.463C365.817 239.982 369.135 231.547 369.135 222.589C369.135 202.843 353.117 186.814 333.385 186.814C325.807 186.814 318.776 189.178 312.99 193.21C312.072 191.961 310.908 190.615 309.477 189.179C315.298 182.684 318.61 174.256 318.61 165.307C318.61 145.56 302.592 129.531 282.859 129.531C263.126 129.531 247.109 145.56 247.109 165.307C247.109 174.476 250.563 182.844 256.238 189.178C249.212 196.224 245.264 205.774 245.264 215.733V222.756C239.104 213.965 228.902 208.214 217.366 208.214C208.917 208.214 201.183 211.3 195.229 216.405C195.076 215.933 194.825 215.486 194.479 215.094C199.807 209.084 203.043 201.177 203.043 192.519C203.043 173.73 187.802 158.477 169.026 158.477C150.25 158.477 135.008 173.73 135.008 192.519C135.008 200.916 138.073 208.832 143.456 214.964C136.867 221.659 133.17 230.682 133.17 240.088V315.58C133.17 317.642 134.841 319.314 136.902 319.314C137.718 319.314 138.474 319.051 139.088 318.606C140.01 318.924 141.054 318.882 141.992 318.406L181.603 298.307V312.673L181.578 312.684L181.541 312.703L160.088 323.437C158.245 324.359 157.497 326.602 158.419 328.447C159.341 330.292 161.582 331.039 163.426 330.117L181.603 321.022V339.761C181.603 341.824 183.273 343.496 185.334 343.496C187.395 343.496 189.066 341.824 189.066 339.761V289.992C189.066 282.487 192.045 275.291 197.348 269.984L197.427 269.905C198.025 270.338 198.639 270.753 199.269 271.149C201.013 272.248 203.317 271.723 204.414 269.977C205.512 268.231 204.987 265.926 203.242 264.827C195.547 259.983 190.78 251.541 190.78 242.289C190.78 227.606 202.694 215.683 217.366 215.683C232.039 215.683 243.953 227.606 243.953 242.289C243.953 256.97 232.039 268.893 217.366 268.893C215.305 268.893 213.635 270.565 213.635 272.627C213.635 274.69 215.305 276.362 217.366 276.362C224.803 276.362 231.687 273.971 237.289 269.917C237.317 269.944 237.344 269.971 237.371 269.998C242.68 275.311 245.663 282.52 245.663 290.037V351.32ZM253.127 365.92V353.703L295.789 332.357V344.574L253.127 365.92ZM181.521 289.974L140.633 310.721V240.088C140.633 232.571 143.617 225.362 148.928 220.048C149.403 219.573 149.891 219.118 150.392 218.683C150.896 218.477 151.362 218.157 151.75 217.724C153.017 216.315 153.014 214.207 151.816 212.805C151.804 212.788 151.79 212.771 151.777 212.755C151.553 212.476 151.298 212.238 151.02 212.041C145.609 207.042 142.471 200.034 142.471 192.519C142.471 177.855 154.371 165.946 169.026 165.946C183.68 165.946 195.58 177.855 195.58 192.519C195.58 207.183 183.68 219.091 169.026 219.091C166.965 219.091 165.294 220.763 165.294 222.826C165.294 224.888 166.965 226.56 169.026 226.56C176.463 226.56 183.345 224.167 188.945 220.11L188.991 220.155L189.043 220.207C189.509 220.673 190.067 220.99 190.659 221.158C186.062 226.967 183.316 234.309 183.316 242.289C183.316 250.797 186.466 258.772 191.887 264.888C185.312 271.563 181.618 280.557 181.603 289.934C181.575 289.947 181.548 289.961 181.521 289.974ZM286.552 164.692C286.552 162.555 288.327 160.82 290.515 160.82C292.702 160.82 294.476 162.555 294.476 164.692C294.476 166.828 292.702 168.562 290.515 168.562C288.327 168.562 286.552 166.828 286.552 164.692ZM272.508 160.82C270.321 160.82 268.545 162.555 268.545 164.692C268.545 166.828 270.321 168.562 272.508 168.562C274.695 168.562 276.471 166.828 276.471 164.692C276.471 162.555 274.695 160.82 272.508 160.82ZM312.155 225.883C312.155 223.746 313.929 222.011 316.116 222.011C318.303 222.011 320.079 223.746 320.079 225.883C320.079 228.019 318.303 229.753 316.116 229.753C313.929 229.753 312.155 228.019 312.155 225.883ZM238.551 243.823C238.551 241.802 236.873 240.16 234.804 240.16C232.735 240.16 231.055 241.802 231.055 243.823C231.055 245.845 232.735 247.485 234.804 247.485C236.873 247.485 238.551 245.845 238.551 243.823ZM169.643 190.786C171.712 190.786 173.391 192.428 173.391 194.449C173.391 196.469 171.712 198.111 169.643 198.111C167.575 198.111 165.896 196.469 165.896 194.449C165.896 192.428 167.575 190.786 169.643 190.786ZM190.423 194.449C190.423 192.428 188.744 190.786 186.675 190.786C184.607 190.786 182.928 192.428 182.928 194.449C182.928 196.469 184.607 198.111 186.675 198.111C188.744 198.111 190.423 196.469 190.423 194.449Z" fill="white"/>
</mask>
<g mask="url(#mask0_1026_5140)">
<rect x="77" y="112" width="351" height="283.342" fill="#2D3B87"/>
</g>
</svg>
