<svg width="506" height="506" viewBox="0 0 506 506" fill="none" xmlns="http://www.w3.org/2000/svg">
<path d="M0 0H498C502.418 0 506 3.58172 506 8V498C506 502.418 502.418 506 498 506H0V0Z" fill="#E9EDF0"/>
<rect x="32" y="32" width="205" height="213" rx="24" fill="#131313"/>
<rect x="32" y="261" width="205" height="212" rx="24" fill="#F3F3F3"/>
<rect x="261" y="32" width="205" height="213" rx="24" fill="#D39060"/>
<rect x="261" y="261" width="205" height="213" rx="24" fill="#EABF9F"/>
<path d="M85.5259 146.162C84.6859 146.162 83.9479 146 83.3119 145.676C82.6759 145.34 82.1779 144.872 81.8179 144.272C81.4699 143.66 81.2959 142.958 81.2959 142.166V137.216C81.2959 136.436 81.4699 135.746 81.8179 135.146C82.1779 134.546 82.6759 134.084 83.3119 133.76C83.9479 133.424 84.6859 133.256 85.5259 133.256C86.3659 133.256 87.1039 133.418 87.7399 133.742C88.3759 134.066 88.8679 134.522 89.2159 135.11C89.5759 135.698 89.7559 136.376 89.7559 137.144C89.7559 137.204 89.7379 137.252 89.7019 137.288C89.6659 137.324 89.6239 137.342 89.5759 137.342L88.6579 137.396C88.5379 137.396 88.4779 137.342 88.4779 137.234V137.18C88.4779 136.328 88.2079 135.65 87.6679 135.146C87.1279 134.63 86.4139 134.372 85.5259 134.372C84.6379 134.372 83.9239 134.63 83.3839 135.146C82.8439 135.662 82.5739 136.34 82.5739 137.18V142.22C82.5739 143.06 82.8439 143.738 83.3839 144.254C83.9239 144.77 84.6379 145.028 85.5259 145.028C86.4139 145.028 87.1279 144.776 87.6679 144.272C88.2079 143.756 88.4779 143.072 88.4779 142.22V142.184C88.4779 142.076 88.5379 142.022 88.6579 142.022L89.5759 142.076C89.6959 142.076 89.7559 142.13 89.7559 142.238C89.7559 143.018 89.5759 143.708 89.2159 144.308C88.8679 144.896 88.3759 145.352 87.7399 145.676C87.1039 146 86.3659 146.162 85.5259 146.162Z" fill="white"/>
<path d="M96.1535 136.766C97.1135 136.766 97.8755 137.048 98.4395 137.612C99.0155 138.176 99.3035 138.932 99.3035 139.88V145.82C99.3035 145.94 99.2435 146 99.1235 146H98.2055C98.0855 146 98.0255 145.94 98.0255 145.82V140.132C98.0255 139.472 97.8215 138.932 97.4135 138.512C97.0175 138.092 96.5015 137.882 95.8655 137.882C95.2055 137.882 94.6715 138.086 94.2635 138.494C93.8555 138.902 93.6515 139.436 93.6515 140.096V145.82C93.6515 145.94 93.5915 146 93.4715 146H92.5535C92.4335 146 92.3735 145.94 92.3735 145.82V133.58C92.3735 133.46 92.4335 133.4 92.5535 133.4H93.4715C93.5915 133.4 93.6515 133.46 93.6515 133.58V137.846C93.6515 137.87 93.6575 137.888 93.6695 137.9C93.6935 137.912 93.7115 137.906 93.7235 137.882C94.2515 137.138 95.0615 136.766 96.1535 136.766Z" fill="white"/>
<path d="M102.941 135.236C102.653 135.236 102.413 135.14 102.221 134.948C102.029 134.756 101.933 134.516 101.933 134.228C101.933 133.928 102.029 133.688 102.221 133.508C102.413 133.316 102.653 133.22 102.941 133.22C103.229 133.22 103.469 133.316 103.661 133.508C103.853 133.688 103.949 133.928 103.949 134.228C103.949 134.516 103.853 134.756 103.661 134.948C103.469 135.14 103.229 135.236 102.941 135.236ZM102.437 145.982C102.317 145.982 102.257 145.922 102.257 145.802V137.054C102.257 136.934 102.317 136.874 102.437 136.874H103.355C103.475 136.874 103.535 136.934 103.535 137.054V145.802C103.535 145.922 103.475 145.982 103.355 145.982H102.437Z" fill="white"/>
<path d="M110.445 136.766C111.405 136.766 112.167 137.048 112.731 137.612C113.307 138.176 113.595 138.932 113.595 139.88V145.82C113.595 145.94 113.535 146 113.415 146H112.497C112.377 146 112.317 145.94 112.317 145.82V140.132C112.317 139.472 112.113 138.932 111.705 138.512C111.309 138.092 110.793 137.882 110.157 137.882C109.497 137.882 108.963 138.086 108.555 138.494C108.147 138.902 107.943 139.436 107.943 140.096V145.82C107.943 145.94 107.883 146 107.763 146H106.845C106.725 146 106.665 145.94 106.665 145.82V137.072C106.665 136.952 106.725 136.892 106.845 136.892H107.763C107.883 136.892 107.943 136.952 107.943 137.072V137.846C107.943 137.87 107.949 137.888 107.961 137.9C107.985 137.912 108.003 137.906 108.015 137.882C108.543 137.138 109.353 136.766 110.445 136.766Z" fill="white"/>
<path d="M123.229 139.916C123.277 140.252 123.301 140.672 123.301 141.176V141.752C123.301 141.872 123.241 141.932 123.121 141.932H117.307C117.259 141.932 117.235 141.956 117.235 142.004C117.259 142.664 117.295 143.09 117.343 143.282C117.475 143.822 117.757 144.248 118.189 144.56C118.621 144.872 119.173 145.028 119.845 145.028C120.349 145.028 120.793 144.914 121.177 144.686C121.561 144.458 121.861 144.134 122.077 143.714C122.149 143.606 122.233 143.582 122.329 143.642L123.031 144.056C123.127 144.116 123.151 144.2 123.103 144.308C122.803 144.884 122.353 145.34 121.753 145.676C121.153 146 120.463 146.162 119.683 146.162C118.831 146.15 118.117 145.946 117.541 145.55C116.965 145.154 116.551 144.602 116.299 143.894C116.083 143.318 115.975 142.49 115.975 141.41C115.975 140.906 115.981 140.498 115.993 140.186C116.017 139.862 116.065 139.574 116.137 139.322C116.341 138.542 116.749 137.918 117.361 137.45C117.985 136.982 118.735 136.748 119.611 136.748C120.703 136.748 121.543 137.024 122.131 137.576C122.719 138.128 123.085 138.908 123.229 139.916ZM119.611 137.864C119.023 137.864 118.531 138.02 118.135 138.332C117.751 138.632 117.499 139.04 117.379 139.556C117.307 139.808 117.259 140.216 117.235 140.78C117.235 140.828 117.259 140.852 117.307 140.852H121.969C122.017 140.852 122.041 140.828 122.041 140.78C122.017 140.24 121.981 139.856 121.933 139.628C121.801 139.088 121.531 138.662 121.123 138.35C120.727 138.026 120.223 137.864 119.611 137.864Z" fill="white"/>
<path d="M128.672 146.09C128 146.09 127.4 145.982 126.872 145.766C126.356 145.55 125.954 145.262 125.666 144.902C125.39 144.542 125.252 144.14 125.252 143.696V143.48C125.252 143.36 125.312 143.3 125.432 143.3H126.296C126.416 143.3 126.476 143.36 126.476 143.48V143.624C126.476 144.02 126.68 144.368 127.088 144.668C127.508 144.956 128.03 145.1 128.654 145.1C129.278 145.1 129.782 144.962 130.166 144.686C130.55 144.398 130.742 144.038 130.742 143.606C130.742 143.306 130.64 143.06 130.436 142.868C130.244 142.676 130.01 142.526 129.734 142.418C129.47 142.31 129.056 142.172 128.492 142.004C127.82 141.812 127.268 141.62 126.836 141.428C126.404 141.236 126.038 140.972 125.738 140.636C125.45 140.288 125.306 139.85 125.306 139.322C125.306 138.554 125.606 137.942 126.206 137.486C126.806 137.03 127.598 136.802 128.582 136.802C129.242 136.802 129.824 136.91 130.328 137.126C130.844 137.342 131.24 137.642 131.516 138.026C131.792 138.398 131.93 138.818 131.93 139.286V139.34C131.93 139.46 131.87 139.52 131.75 139.52H130.904C130.784 139.52 130.724 139.46 130.724 139.34V139.286C130.724 138.878 130.526 138.536 130.13 138.26C129.746 137.984 129.224 137.846 128.564 137.846C127.952 137.846 127.46 137.972 127.088 138.224C126.716 138.464 126.53 138.8 126.53 139.232C126.53 139.64 126.71 139.952 127.07 140.168C127.43 140.384 127.988 140.6 128.744 140.816C129.44 141.02 130.004 141.212 130.436 141.392C130.868 141.572 131.24 141.836 131.552 142.184C131.864 142.52 132.02 142.964 132.02 143.516C132.02 144.296 131.714 144.92 131.102 145.388C130.49 145.856 129.68 146.09 128.672 146.09Z" fill="white"/>
<path d="M141.334 139.916C141.382 140.252 141.406 140.672 141.406 141.176V141.752C141.406 141.872 141.346 141.932 141.226 141.932H135.412C135.364 141.932 135.34 141.956 135.34 142.004C135.364 142.664 135.4 143.09 135.448 143.282C135.58 143.822 135.862 144.248 136.294 144.56C136.726 144.872 137.278 145.028 137.95 145.028C138.454 145.028 138.898 144.914 139.282 144.686C139.666 144.458 139.966 144.134 140.182 143.714C140.254 143.606 140.338 143.582 140.434 143.642L141.136 144.056C141.232 144.116 141.256 144.2 141.208 144.308C140.908 144.884 140.458 145.34 139.858 145.676C139.258 146 138.568 146.162 137.788 146.162C136.936 146.15 136.222 145.946 135.646 145.55C135.07 145.154 134.656 144.602 134.404 143.894C134.188 143.318 134.08 142.49 134.08 141.41C134.08 140.906 134.086 140.498 134.098 140.186C134.122 139.862 134.17 139.574 134.242 139.322C134.446 138.542 134.854 137.918 135.466 137.45C136.09 136.982 136.84 136.748 137.716 136.748C138.808 136.748 139.648 137.024 140.236 137.576C140.824 138.128 141.19 138.908 141.334 139.916ZM137.716 137.864C137.128 137.864 136.636 138.02 136.24 138.332C135.856 138.632 135.604 139.04 135.484 139.556C135.412 139.808 135.364 140.216 135.34 140.78C135.34 140.828 135.364 140.852 135.412 140.852H140.074C140.122 140.852 140.146 140.828 140.146 140.78C140.122 140.24 140.086 139.856 140.038 139.628C139.906 139.088 139.636 138.662 139.228 138.35C138.832 138.026 138.328 137.864 137.716 137.864Z" fill="white"/>
<path d="M154.121 139.43C154.061 139.466 154.061 139.502 154.121 139.538C154.769 139.802 155.261 140.192 155.597 140.708C155.933 141.224 156.101 141.848 156.101 142.58C156.101 143.66 155.753 144.5 155.057 145.1C154.373 145.7 153.467 146 152.339 146H147.983C147.863 146 147.803 145.94 147.803 145.82V133.58C147.803 133.46 147.863 133.4 147.983 133.4H152.213C153.377 133.4 154.289 133.688 154.949 134.264C155.621 134.84 155.957 135.65 155.957 136.694C155.957 137.354 155.795 137.918 155.471 138.386C155.159 138.842 154.709 139.19 154.121 139.43ZM149.153 134.516C149.105 134.516 149.081 134.54 149.081 134.588V138.908C149.081 138.956 149.105 138.98 149.153 138.98H152.213C152.969 138.98 153.569 138.782 154.013 138.386C154.469 137.99 154.697 137.462 154.697 136.802C154.697 136.106 154.469 135.554 154.013 135.146C153.569 134.726 152.969 134.516 152.213 134.516H149.153ZM152.339 144.866C153.095 144.866 153.695 144.65 154.139 144.218C154.595 143.786 154.823 143.204 154.823 142.472C154.823 141.74 154.589 141.158 154.121 140.726C153.665 140.282 153.047 140.06 152.267 140.06H149.153C149.105 140.06 149.081 140.084 149.081 140.132V144.794C149.081 144.842 149.105 144.866 149.153 144.866H152.339Z" fill="white"/>
<path d="M159.016 146C158.896 146 158.836 145.94 158.836 145.82V133.58C158.836 133.46 158.896 133.4 159.016 133.4H159.934C160.054 133.4 160.114 133.46 160.114 133.58V145.82C160.114 145.94 160.054 146 159.934 146H159.016Z" fill="white"/>
<path d="M166.135 136.748C167.215 136.748 168.049 137.024 168.637 137.576C169.225 138.128 169.519 138.86 169.519 139.772V145.82C169.519 145.94 169.459 146 169.339 146H168.421C168.301 146 168.241 145.94 168.241 145.82V145.082C168.241 145.058 168.229 145.04 168.205 145.028C168.193 145.016 168.175 145.022 168.151 145.046C167.851 145.406 167.461 145.682 166.981 145.874C166.501 146.054 165.967 146.144 165.379 146.144C164.527 146.144 163.813 145.928 163.237 145.496C162.661 145.064 162.373 144.404 162.373 143.516C162.373 142.616 162.697 141.908 163.345 141.392C164.005 140.864 164.917 140.6 166.081 140.6H168.169C168.217 140.6 168.241 140.576 168.241 140.528V139.844C168.241 139.232 168.067 138.752 167.719 138.404C167.383 138.044 166.855 137.864 166.135 137.864C165.559 137.864 165.091 137.978 164.731 138.206C164.371 138.422 164.149 138.728 164.065 139.124C164.029 139.244 163.957 139.298 163.849 139.286L162.877 139.16C162.745 139.136 162.691 139.088 162.715 139.016C162.811 138.344 163.171 137.798 163.795 137.378C164.419 136.958 165.199 136.748 166.135 136.748ZM165.631 145.046C166.339 145.046 166.951 144.872 167.467 144.524C167.983 144.164 168.241 143.684 168.241 143.084V141.68C168.241 141.632 168.217 141.608 168.169 141.608H166.279C165.487 141.608 164.851 141.77 164.371 142.094C163.891 142.418 163.651 142.868 163.651 143.444C163.651 143.972 163.831 144.374 164.191 144.65C164.563 144.914 165.043 145.046 165.631 145.046Z" fill="white"/>
<path d="M175.616 146.144C174.752 146.144 174.008 145.922 173.384 145.478C172.772 145.022 172.352 144.41 172.124 143.642C171.968 143.114 171.89 142.37 171.89 141.41C171.89 140.546 171.968 139.814 172.124 139.214C172.34 138.47 172.76 137.876 173.384 137.432C174.008 136.976 174.752 136.748 175.616 136.748C176.492 136.748 177.248 136.97 177.884 137.414C178.532 137.858 178.952 138.41 179.144 139.07C179.204 139.286 179.24 139.466 179.252 139.61V139.646C179.252 139.73 179.198 139.784 179.09 139.808L178.19 139.934H178.154C178.07 139.934 178.016 139.88 177.992 139.772L177.938 139.502C177.83 139.046 177.566 138.662 177.146 138.35C176.726 138.026 176.216 137.864 175.616 137.864C175.016 137.864 174.512 138.026 174.104 138.35C173.708 138.662 173.45 139.082 173.33 139.61C173.222 140.066 173.168 140.672 173.168 141.428C173.168 142.22 173.222 142.832 173.33 143.264C173.45 143.804 173.708 144.236 174.104 144.56C174.512 144.872 175.016 145.028 175.616 145.028C176.204 145.028 176.708 144.878 177.128 144.578C177.56 144.266 177.83 143.87 177.938 143.39V143.318L177.956 143.246C177.968 143.126 178.04 143.078 178.172 143.102L179.054 143.246C179.174 143.27 179.228 143.336 179.216 143.444L179.144 143.804C178.964 144.5 178.55 145.064 177.902 145.496C177.254 145.928 176.492 146.144 175.616 146.144Z" fill="white"/>
<path d="M181.71 146C181.59 146 181.53 145.94 181.53 145.82V133.58C181.53 133.46 181.59 133.4 181.71 133.4H182.628C182.748 133.4 182.808 133.46 182.808 133.58V140.942C182.808 140.966 182.814 140.984 182.826 140.996C182.85 141.008 182.874 141.002 182.898 140.978L186.714 136.982C186.774 136.922 186.846 136.892 186.93 136.892H188.01C188.082 136.892 188.13 136.916 188.154 136.964C188.178 137.012 188.166 137.06 188.118 137.108L185.814 139.664C185.79 139.688 185.784 139.718 185.796 139.754L188.55 145.784L188.568 145.856C188.568 145.952 188.514 146 188.406 146H187.434C187.338 146 187.272 145.952 187.236 145.856L184.914 140.6C184.89 140.552 184.86 140.546 184.824 140.582L182.844 142.67C182.82 142.694 182.808 142.724 182.808 142.76V145.82C182.808 145.94 182.748 146 182.628 146H181.71Z" fill="white"/>
<path d="M328.036 146C327.928 146 327.856 145.958 327.82 145.874L325.174 140.294C325.162 140.258 325.138 140.24 325.102 140.24H322.042C321.994 140.24 321.97 140.264 321.97 140.312V145.82C321.97 145.94 321.91 146 321.79 146H320.872C320.752 146 320.692 145.94 320.692 145.82V133.58C320.692 133.46 320.752 133.4 320.872 133.4H325.534C326.566 133.4 327.4 133.724 328.036 134.372C328.672 135.008 328.99 135.842 328.99 136.874C328.99 137.714 328.762 138.428 328.306 139.016C327.85 139.604 327.232 139.982 326.452 140.15C326.404 140.174 326.392 140.204 326.416 140.24L329.116 145.784C329.128 145.808 329.134 145.838 329.134 145.874C329.134 145.958 329.086 146 328.99 146H328.036ZM322.042 134.516C321.994 134.516 321.97 134.54 321.97 134.588V139.142C321.97 139.19 321.994 139.214 322.042 139.214H325.39C326.086 139.214 326.65 138.998 327.082 138.566C327.514 138.134 327.73 137.57 327.73 136.874C327.73 136.178 327.514 135.614 327.082 135.182C326.65 134.738 326.086 134.516 325.39 134.516H322.042Z" fill="white"/>
<path d="M334.611 136.748C335.691 136.748 336.525 137.024 337.113 137.576C337.701 138.128 337.995 138.86 337.995 139.772V145.82C337.995 145.94 337.935 146 337.815 146H336.897C336.777 146 336.717 145.94 336.717 145.82V145.082C336.717 145.058 336.705 145.04 336.681 145.028C336.669 145.016 336.651 145.022 336.627 145.046C336.327 145.406 335.937 145.682 335.457 145.874C334.977 146.054 334.443 146.144 333.855 146.144C333.003 146.144 332.289 145.928 331.713 145.496C331.137 145.064 330.849 144.404 330.849 143.516C330.849 142.616 331.173 141.908 331.821 141.392C332.481 140.864 333.393 140.6 334.557 140.6H336.645C336.693 140.6 336.717 140.576 336.717 140.528V139.844C336.717 139.232 336.543 138.752 336.195 138.404C335.859 138.044 335.331 137.864 334.611 137.864C334.035 137.864 333.567 137.978 333.207 138.206C332.847 138.422 332.625 138.728 332.541 139.124C332.505 139.244 332.433 139.298 332.325 139.286L331.353 139.16C331.221 139.136 331.167 139.088 331.191 139.016C331.287 138.344 331.647 137.798 332.271 137.378C332.895 136.958 333.675 136.748 334.611 136.748ZM334.107 145.046C334.815 145.046 335.427 144.872 335.943 144.524C336.459 144.164 336.717 143.684 336.717 143.084V141.68C336.717 141.632 336.693 141.608 336.645 141.608H334.755C333.963 141.608 333.327 141.77 332.847 142.094C332.367 142.418 332.127 142.868 332.127 143.444C332.127 143.972 332.307 144.374 332.667 144.65C333.039 144.914 333.519 145.046 334.107 145.046Z" fill="white"/>
<path d="M342.439 146C342.343 146 342.277 145.952 342.241 145.856L339.685 137.09L339.667 137.036C339.667 136.94 339.727 136.892 339.847 136.892H340.783C340.891 136.892 340.957 136.946 340.981 137.054L342.889 144.146C342.901 144.17 342.913 144.182 342.925 144.182C342.949 144.182 342.967 144.17 342.979 144.146L344.923 137.054C344.947 136.946 345.013 136.892 345.121 136.892H345.985C346.093 136.892 346.159 136.94 346.183 137.036L348.145 144.128C348.157 144.152 348.175 144.164 348.199 144.164C348.223 144.164 348.241 144.152 348.253 144.128L350.215 137.054C350.239 136.946 350.305 136.892 350.413 136.892L351.349 136.91C351.409 136.91 351.451 136.928 351.475 136.964C351.511 137 351.523 137.048 351.511 137.108L348.919 145.856C348.883 145.952 348.817 146 348.721 146H347.767C347.671 146 347.605 145.952 347.569 145.856L345.607 139.124C345.595 139.1 345.577 139.088 345.553 139.088C345.541 139.088 345.529 139.1 345.517 139.124L343.609 145.856C343.573 145.952 343.507 146 343.411 146H342.439Z" fill="white"/>
<path d="M361.013 146.144C359.657 146.144 358.583 145.838 357.791 145.226C357.011 144.614 356.621 143.798 356.621 142.778V142.22C356.621 142.1 356.681 142.04 356.801 142.04H357.683C357.803 142.04 357.863 142.1 357.863 142.22V142.706C357.863 143.402 358.151 143.966 358.727 144.398C359.303 144.818 360.101 145.028 361.121 145.028C362.045 145.028 362.747 144.836 363.227 144.452C363.707 144.056 363.947 143.534 363.947 142.886C363.947 142.466 363.833 142.106 363.605 141.806C363.389 141.506 363.047 141.224 362.579 140.96C362.123 140.696 361.475 140.39 360.635 140.042C359.735 139.682 359.033 139.37 358.529 139.106C358.037 138.83 357.635 138.482 357.323 138.062C357.023 137.63 356.873 137.09 356.873 136.442C356.873 135.434 357.221 134.654 357.917 134.102C358.625 133.538 359.591 133.256 360.815 133.256C362.147 133.256 363.197 133.568 363.965 134.192C364.733 134.816 365.117 135.644 365.117 136.676V137.072C365.117 137.192 365.057 137.252 364.937 137.252H364.037C363.917 137.252 363.857 137.192 363.857 137.072V136.748C363.857 136.052 363.581 135.482 363.029 135.038C362.489 134.594 361.733 134.372 360.761 134.372C359.909 134.372 359.255 134.546 358.799 134.894C358.343 135.242 358.115 135.746 358.115 136.406C358.115 136.838 358.223 137.198 358.439 137.486C358.667 137.762 358.985 138.008 359.393 138.224C359.813 138.428 360.455 138.698 361.319 139.034C362.195 139.394 362.897 139.73 363.425 140.042C363.965 140.354 364.397 140.738 364.721 141.194C365.057 141.638 365.225 142.184 365.225 142.832C365.225 143.84 364.853 144.644 364.109 145.244C363.365 145.844 362.333 146.144 361.013 146.144Z" fill="white"/>
<path d="M368.501 135.236C368.213 135.236 367.973 135.14 367.781 134.948C367.589 134.756 367.493 134.516 367.493 134.228C367.493 133.928 367.589 133.688 367.781 133.508C367.973 133.316 368.213 133.22 368.501 133.22C368.789 133.22 369.029 133.316 369.221 133.508C369.413 133.688 369.509 133.928 369.509 134.228C369.509 134.516 369.413 134.756 369.221 134.948C369.029 135.14 368.789 135.236 368.501 135.236ZM367.997 145.982C367.877 145.982 367.817 145.922 367.817 145.802V137.054C367.817 136.934 367.877 136.874 367.997 136.874H368.915C369.035 136.874 369.095 136.934 369.095 137.054V145.802C369.095 145.922 369.035 145.982 368.915 145.982H367.997Z" fill="white"/>
<path d="M379.209 139.916C379.257 140.252 379.281 140.672 379.281 141.176V141.752C379.281 141.872 379.221 141.932 379.101 141.932H373.287C373.239 141.932 373.215 141.956 373.215 142.004C373.239 142.664 373.275 143.09 373.323 143.282C373.455 143.822 373.737 144.248 374.169 144.56C374.601 144.872 375.153 145.028 375.825 145.028C376.329 145.028 376.773 144.914 377.157 144.686C377.541 144.458 377.841 144.134 378.057 143.714C378.129 143.606 378.213 143.582 378.309 143.642L379.011 144.056C379.107 144.116 379.131 144.2 379.083 144.308C378.783 144.884 378.333 145.34 377.733 145.676C377.133 146 376.443 146.162 375.663 146.162C374.811 146.15 374.097 145.946 373.521 145.55C372.945 145.154 372.531 144.602 372.279 143.894C372.063 143.318 371.955 142.49 371.955 141.41C371.955 140.906 371.961 140.498 371.973 140.186C371.997 139.862 372.045 139.574 372.117 139.322C372.321 138.542 372.729 137.918 373.341 137.45C373.965 136.982 374.715 136.748 375.591 136.748C376.683 136.748 377.523 137.024 378.111 137.576C378.699 138.128 379.065 138.908 379.209 139.916ZM375.591 137.864C375.003 137.864 374.511 138.02 374.115 138.332C373.731 138.632 373.479 139.04 373.359 139.556C373.287 139.808 373.239 140.216 373.215 140.78C373.215 140.828 373.239 140.852 373.287 140.852H377.949C377.997 140.852 378.021 140.828 378.021 140.78C377.997 140.24 377.961 139.856 377.913 139.628C377.781 139.088 377.511 138.662 377.103 138.35C376.707 138.026 376.203 137.864 375.591 137.864Z" fill="white"/>
<path d="M385.603 136.766C386.563 136.766 387.325 137.048 387.889 137.612C388.465 138.176 388.753 138.932 388.753 139.88V145.82C388.753 145.94 388.693 146 388.573 146H387.655C387.535 146 387.475 145.94 387.475 145.82V140.132C387.475 139.472 387.271 138.932 386.863 138.512C386.467 138.092 385.951 137.882 385.315 137.882C384.655 137.882 384.121 138.086 383.713 138.494C383.305 138.902 383.101 139.436 383.101 140.096V145.82C383.101 145.94 383.041 146 382.921 146H382.003C381.883 146 381.823 145.94 381.823 145.82V137.072C381.823 136.952 381.883 136.892 382.003 136.892H382.921C383.041 136.892 383.101 136.952 383.101 137.072V137.846C383.101 137.87 383.107 137.888 383.119 137.9C383.143 137.912 383.161 137.906 383.173 137.882C383.701 137.138 384.511 136.766 385.603 136.766Z" fill="white"/>
<path d="M395.306 136.766C396.266 136.766 397.028 137.048 397.592 137.612C398.168 138.176 398.456 138.932 398.456 139.88V145.82C398.456 145.94 398.396 146 398.276 146H397.358C397.238 146 397.178 145.94 397.178 145.82V140.132C397.178 139.472 396.974 138.932 396.566 138.512C396.17 138.092 395.654 137.882 395.018 137.882C394.358 137.882 393.824 138.086 393.416 138.494C393.008 138.902 392.804 139.436 392.804 140.096V145.82C392.804 145.94 392.744 146 392.624 146H391.706C391.586 146 391.526 145.94 391.526 145.82V137.072C391.526 136.952 391.586 136.892 391.706 136.892H392.624C392.744 136.892 392.804 136.952 392.804 137.072V137.846C392.804 137.87 392.81 137.888 392.822 137.9C392.846 137.912 392.864 137.906 392.876 137.882C393.404 137.138 394.214 136.766 395.306 136.766Z" fill="white"/>
<path d="M404.379 136.748C405.459 136.748 406.293 137.024 406.881 137.576C407.469 138.128 407.763 138.86 407.763 139.772V145.82C407.763 145.94 407.703 146 407.583 146H406.665C406.545 146 406.485 145.94 406.485 145.82V145.082C406.485 145.058 406.473 145.04 406.449 145.028C406.437 145.016 406.419 145.022 406.395 145.046C406.095 145.406 405.705 145.682 405.225 145.874C404.745 146.054 404.211 146.144 403.623 146.144C402.771 146.144 402.057 145.928 401.481 145.496C400.905 145.064 400.617 144.404 400.617 143.516C400.617 142.616 400.941 141.908 401.589 141.392C402.249 140.864 403.161 140.6 404.325 140.6H406.413C406.461 140.6 406.485 140.576 406.485 140.528V139.844C406.485 139.232 406.311 138.752 405.963 138.404C405.627 138.044 405.099 137.864 404.379 137.864C403.803 137.864 403.335 137.978 402.975 138.206C402.615 138.422 402.393 138.728 402.309 139.124C402.273 139.244 402.201 139.298 402.093 139.286L401.121 139.16C400.989 139.136 400.935 139.088 400.959 139.016C401.055 138.344 401.415 137.798 402.039 137.378C402.663 136.958 403.443 136.748 404.379 136.748ZM403.875 145.046C404.583 145.046 405.195 144.872 405.711 144.524C406.227 144.164 406.485 143.684 406.485 143.084V141.68C406.485 141.632 406.461 141.608 406.413 141.608H404.523C403.731 141.608 403.095 141.77 402.615 142.094C402.135 142.418 401.895 142.868 401.895 143.444C401.895 143.972 402.075 144.374 402.435 144.65C402.807 144.914 403.287 145.046 403.875 145.046Z" fill="white"/>
<path d="M317.872 375C317.752 375 317.692 374.94 317.692 374.82V362.58C317.692 362.46 317.752 362.4 317.872 362.4H322.12C323.308 362.4 324.25 362.712 324.946 363.336C325.654 363.96 326.008 364.806 326.008 365.874V371.526C326.008 372.594 325.654 373.44 324.946 374.064C324.25 374.688 323.308 375 322.12 375H317.872ZM318.97 373.812C318.97 373.86 318.994 373.884 319.042 373.884H322.174C322.954 373.884 323.572 373.656 324.028 373.2C324.496 372.744 324.73 372.132 324.73 371.364V366.054C324.73 365.274 324.502 364.656 324.046 364.2C323.59 363.744 322.966 363.516 322.174 363.516H319.042C318.994 363.516 318.97 363.54 318.97 363.588V373.812Z" fill="#24282B"/>
<path d="M335.551 368.916C335.599 369.252 335.623 369.672 335.623 370.176V370.752C335.623 370.872 335.563 370.932 335.443 370.932H329.629C329.581 370.932 329.557 370.956 329.557 371.004C329.581 371.664 329.617 372.09 329.665 372.282C329.797 372.822 330.079 373.248 330.511 373.56C330.943 373.872 331.495 374.028 332.167 374.028C332.671 374.028 333.115 373.914 333.499 373.686C333.883 373.458 334.183 373.134 334.399 372.714C334.471 372.606 334.555 372.582 334.651 372.642L335.353 373.056C335.449 373.116 335.473 373.2 335.425 373.308C335.125 373.884 334.675 374.34 334.075 374.676C333.475 375 332.785 375.162 332.005 375.162C331.153 375.15 330.439 374.946 329.863 374.55C329.287 374.154 328.873 373.602 328.621 372.894C328.405 372.318 328.297 371.49 328.297 370.41C328.297 369.906 328.303 369.498 328.315 369.186C328.339 368.862 328.387 368.574 328.459 368.322C328.663 367.542 329.071 366.918 329.683 366.45C330.307 365.982 331.057 365.748 331.933 365.748C333.025 365.748 333.865 366.024 334.453 366.576C335.041 367.128 335.407 367.908 335.551 368.916ZM331.933 366.864C331.345 366.864 330.853 367.02 330.457 367.332C330.073 367.632 329.821 368.04 329.701 368.556C329.629 368.808 329.581 369.216 329.557 369.78C329.557 369.828 329.581 369.852 329.629 369.852H334.291C334.339 369.852 334.363 369.828 334.363 369.78C334.339 369.24 334.303 368.856 334.255 368.628C334.123 368.088 333.853 367.662 333.445 367.35C333.049 367.026 332.545 366.864 331.933 366.864Z" fill="#24282B"/>
<path d="M340.994 375.09C340.322 375.09 339.722 374.982 339.194 374.766C338.678 374.55 338.276 374.262 337.988 373.902C337.712 373.542 337.574 373.14 337.574 372.696V372.48C337.574 372.36 337.634 372.3 337.754 372.3H338.618C338.738 372.3 338.798 372.36 338.798 372.48V372.624C338.798 373.02 339.002 373.368 339.41 373.668C339.83 373.956 340.352 374.1 340.976 374.1C341.6 374.1 342.104 373.962 342.488 373.686C342.872 373.398 343.064 373.038 343.064 372.606C343.064 372.306 342.962 372.06 342.758 371.868C342.566 371.676 342.332 371.526 342.056 371.418C341.792 371.31 341.378 371.172 340.814 371.004C340.142 370.812 339.59 370.62 339.158 370.428C338.726 370.236 338.36 369.972 338.06 369.636C337.772 369.288 337.628 368.85 337.628 368.322C337.628 367.554 337.928 366.942 338.528 366.486C339.128 366.03 339.92 365.802 340.904 365.802C341.564 365.802 342.146 365.91 342.65 366.126C343.166 366.342 343.562 366.642 343.838 367.026C344.114 367.398 344.252 367.818 344.252 368.286V368.34C344.252 368.46 344.192 368.52 344.072 368.52H343.226C343.106 368.52 343.046 368.46 343.046 368.34V368.286C343.046 367.878 342.848 367.536 342.452 367.26C342.068 366.984 341.546 366.846 340.886 366.846C340.274 366.846 339.782 366.972 339.41 367.224C339.038 367.464 338.852 367.8 338.852 368.232C338.852 368.64 339.032 368.952 339.392 369.168C339.752 369.384 340.31 369.6 341.066 369.816C341.762 370.02 342.326 370.212 342.758 370.392C343.19 370.572 343.562 370.836 343.874 371.184C344.186 371.52 344.342 371.964 344.342 372.516C344.342 373.296 344.036 373.92 343.424 374.388C342.812 374.856 342.002 375.09 340.994 375.09Z" fill="#24282B"/>
<path d="M353.656 368.916C353.704 369.252 353.728 369.672 353.728 370.176V370.752C353.728 370.872 353.668 370.932 353.548 370.932H347.734C347.686 370.932 347.662 370.956 347.662 371.004C347.686 371.664 347.722 372.09 347.77 372.282C347.902 372.822 348.184 373.248 348.616 373.56C349.048 373.872 349.6 374.028 350.272 374.028C350.776 374.028 351.22 373.914 351.604 373.686C351.988 373.458 352.288 373.134 352.504 372.714C352.576 372.606 352.66 372.582 352.756 372.642L353.458 373.056C353.554 373.116 353.578 373.2 353.53 373.308C353.23 373.884 352.78 374.34 352.18 374.676C351.58 375 350.89 375.162 350.11 375.162C349.258 375.15 348.544 374.946 347.968 374.55C347.392 374.154 346.978 373.602 346.726 372.894C346.51 372.318 346.402 371.49 346.402 370.41C346.402 369.906 346.408 369.498 346.42 369.186C346.444 368.862 346.492 368.574 346.564 368.322C346.768 367.542 347.176 366.918 347.788 366.45C348.412 365.982 349.162 365.748 350.038 365.748C351.13 365.748 351.97 366.024 352.558 366.576C353.146 367.128 353.512 367.908 353.656 368.916ZM350.038 366.864C349.45 366.864 348.958 367.02 348.562 367.332C348.178 367.632 347.926 368.04 347.806 368.556C347.734 368.808 347.686 369.216 347.662 369.78C347.662 369.828 347.686 369.852 347.734 369.852H352.396C352.444 369.852 352.468 369.828 352.468 369.78C352.444 369.24 352.408 368.856 352.36 368.628C352.228 368.088 351.958 367.662 351.55 367.35C351.154 367.026 350.65 366.864 350.038 366.864Z" fill="#24282B"/>
<path d="M359.942 365.802C360.338 365.802 360.68 365.88 360.968 366.036C361.064 366.084 361.1 366.162 361.076 366.27L360.878 367.152C360.842 367.272 360.764 367.308 360.644 367.26C360.44 367.176 360.206 367.134 359.942 367.134L359.708 367.152C359.084 367.176 358.568 367.41 358.16 367.854C357.752 368.286 357.548 368.838 357.548 369.51V374.82C357.548 374.94 357.488 375 357.368 375H356.45C356.33 375 356.27 374.94 356.27 374.82V366.072C356.27 365.952 356.33 365.892 356.45 365.892H357.368C357.488 365.892 357.548 365.952 357.548 366.072V367.17C357.548 367.206 357.554 367.23 357.566 367.242C357.59 367.242 357.608 367.23 357.62 367.206C357.872 366.762 358.19 366.42 358.574 366.18C358.97 365.928 359.426 365.802 359.942 365.802Z" fill="#24282B"/>
<path d="M367.159 366.774C367.159 366.894 367.099 366.954 366.979 366.954H364.945C364.897 366.954 364.873 366.978 364.873 367.026V372.336C364.873 372.912 364.999 373.32 365.251 373.56C365.515 373.788 365.923 373.902 366.475 373.902H366.925C367.045 373.902 367.105 373.962 367.105 374.082V374.82C367.105 374.94 367.045 375 366.925 375C366.781 375.012 366.559 375.018 366.259 375.018C365.395 375.018 364.741 374.856 364.297 374.532C363.853 374.208 363.631 373.608 363.631 372.732V367.026C363.631 366.978 363.607 366.954 363.559 366.954H362.461C362.341 366.954 362.281 366.894 362.281 366.774V366.072C362.281 365.952 362.341 365.892 362.461 365.892H363.559C363.607 365.892 363.631 365.868 363.631 365.82V363.732C363.631 363.612 363.691 363.552 363.811 363.552H364.693C364.813 363.552 364.873 363.612 364.873 363.732V365.82C364.873 365.868 364.897 365.892 364.945 365.892H366.979C367.099 365.892 367.159 365.952 367.159 366.072V366.774Z" fill="#24282B"/>
<path d="M377.121 375.144C375.765 375.144 374.691 374.838 373.899 374.226C373.119 373.614 372.729 372.798 372.729 371.778V371.22C372.729 371.1 372.789 371.04 372.909 371.04H373.791C373.911 371.04 373.971 371.1 373.971 371.22V371.706C373.971 372.402 374.259 372.966 374.835 373.398C375.411 373.818 376.209 374.028 377.229 374.028C378.153 374.028 378.855 373.836 379.335 373.452C379.815 373.056 380.055 372.534 380.055 371.886C380.055 371.466 379.941 371.106 379.713 370.806C379.497 370.506 379.155 370.224 378.687 369.96C378.231 369.696 377.583 369.39 376.743 369.042C375.843 368.682 375.141 368.37 374.637 368.106C374.145 367.83 373.743 367.482 373.431 367.062C373.131 366.63 372.981 366.09 372.981 365.442C372.981 364.434 373.329 363.654 374.025 363.102C374.733 362.538 375.699 362.256 376.923 362.256C378.255 362.256 379.305 362.568 380.073 363.192C380.841 363.816 381.225 364.644 381.225 365.676V366.072C381.225 366.192 381.165 366.252 381.045 366.252H380.145C380.025 366.252 379.965 366.192 379.965 366.072V365.748C379.965 365.052 379.689 364.482 379.137 364.038C378.597 363.594 377.841 363.372 376.869 363.372C376.017 363.372 375.363 363.546 374.907 363.894C374.451 364.242 374.223 364.746 374.223 365.406C374.223 365.838 374.331 366.198 374.547 366.486C374.775 366.762 375.093 367.008 375.501 367.224C375.921 367.428 376.563 367.698 377.427 368.034C378.303 368.394 379.005 368.73 379.533 369.042C380.073 369.354 380.505 369.738 380.829 370.194C381.165 370.638 381.333 371.184 381.333 371.832C381.333 372.84 380.961 373.644 380.217 374.244C379.473 374.844 378.441 375.144 377.121 375.144Z" fill="#24282B"/>
<path d="M386.859 365.748C387.939 365.748 388.773 366.024 389.361 366.576C389.949 367.128 390.243 367.86 390.243 368.772V374.82C390.243 374.94 390.183 375 390.063 375H389.145C389.025 375 388.965 374.94 388.965 374.82V374.082C388.965 374.058 388.953 374.04 388.929 374.028C388.917 374.016 388.899 374.022 388.875 374.046C388.575 374.406 388.185 374.682 387.705 374.874C387.225 375.054 386.691 375.144 386.103 375.144C385.251 375.144 384.537 374.928 383.961 374.496C383.385 374.064 383.097 373.404 383.097 372.516C383.097 371.616 383.421 370.908 384.069 370.392C384.729 369.864 385.641 369.6 386.805 369.6H388.893C388.941 369.6 388.965 369.576 388.965 369.528V368.844C388.965 368.232 388.791 367.752 388.443 367.404C388.107 367.044 387.579 366.864 386.859 366.864C386.283 366.864 385.815 366.978 385.455 367.206C385.095 367.422 384.873 367.728 384.789 368.124C384.753 368.244 384.681 368.298 384.573 368.286L383.601 368.16C383.469 368.136 383.415 368.088 383.439 368.016C383.535 367.344 383.895 366.798 384.519 366.378C385.143 365.958 385.923 365.748 386.859 365.748ZM386.355 374.046C387.063 374.046 387.675 373.872 388.191 373.524C388.707 373.164 388.965 372.684 388.965 372.084V370.68C388.965 370.632 388.941 370.608 388.893 370.608H387.003C386.211 370.608 385.575 370.77 385.095 371.094C384.615 371.418 384.375 371.868 384.375 372.444C384.375 372.972 384.555 373.374 384.915 373.65C385.287 373.914 385.767 374.046 386.355 374.046Z" fill="#24282B"/>
<path d="M396.683 365.766C397.643 365.766 398.405 366.048 398.969 366.612C399.545 367.176 399.833 367.932 399.833 368.88V374.82C399.833 374.94 399.773 375 399.653 375H398.735C398.615 375 398.555 374.94 398.555 374.82V369.132C398.555 368.472 398.351 367.932 397.943 367.512C397.547 367.092 397.031 366.882 396.395 366.882C395.735 366.882 395.201 367.086 394.793 367.494C394.385 367.902 394.181 368.436 394.181 369.096V374.82C394.181 374.94 394.121 375 394.001 375H393.083C392.963 375 392.903 374.94 392.903 374.82V366.072C392.903 365.952 392.963 365.892 393.083 365.892H394.001C394.121 365.892 394.181 365.952 394.181 366.072V366.846C394.181 366.87 394.187 366.888 394.199 366.9C394.223 366.912 394.241 366.906 394.253 366.882C394.781 366.138 395.591 365.766 396.683 365.766Z" fill="#24282B"/>
<path d="M408.135 362.58C408.135 362.46 408.195 362.4 408.315 362.4H409.233C409.353 362.4 409.413 362.46 409.413 362.58V374.82C409.413 374.94 409.353 375 409.233 375H408.315C408.195 375 408.135 374.94 408.135 374.82V374.064C408.135 374.04 408.123 374.028 408.099 374.028C408.087 374.016 408.069 374.022 408.045 374.046C407.781 374.394 407.451 374.664 407.055 374.856C406.671 375.048 406.239 375.144 405.759 375.144C404.919 375.144 404.211 374.928 403.635 374.496C403.071 374.064 402.681 373.476 402.465 372.732C402.297 372.192 402.213 371.43 402.213 370.446C402.213 369.45 402.285 368.706 402.429 368.214C402.645 367.446 403.041 366.846 403.617 366.414C404.193 365.97 404.907 365.748 405.759 365.748C406.227 365.748 406.659 365.844 407.055 366.036C407.451 366.216 407.781 366.48 408.045 366.828C408.069 366.852 408.087 366.864 408.099 366.864C408.123 366.852 408.135 366.834 408.135 366.81V362.58ZM407.811 372.642C407.919 372.402 407.997 372.12 408.045 371.796C408.093 371.472 408.117 371.022 408.117 370.446C408.117 369.87 408.093 369.42 408.045 369.096C407.997 368.76 407.913 368.466 407.793 368.214C407.649 367.806 407.409 367.482 407.073 367.242C406.749 366.99 406.359 366.864 405.903 366.864C405.423 366.864 405.009 366.984 404.661 367.224C404.313 367.464 404.061 367.782 403.905 368.178C403.761 368.442 403.653 368.742 403.581 369.078C403.521 369.402 403.491 369.858 403.491 370.446C403.491 371.01 403.515 371.454 403.563 371.778C403.611 372.09 403.695 372.372 403.815 372.624C403.959 373.056 404.211 373.398 404.571 373.65C404.943 373.902 405.381 374.028 405.885 374.028C406.365 374.028 406.767 373.902 407.091 373.65C407.415 373.398 407.655 373.062 407.811 372.642Z" fill="#24282B"/>
<path d="M78.1618 375C78.0538 375 77.9818 374.952 77.9458 374.856L77.2258 372.588C77.2138 372.552 77.1898 372.534 77.1538 372.534H71.7718C71.7358 372.534 71.7118 372.552 71.6998 372.588L70.9798 374.856C70.9438 374.952 70.8718 375 70.7638 375H69.7918C69.6598 375 69.6118 374.934 69.6478 374.802L73.6258 362.544C73.6618 362.448 73.7338 362.4 73.8418 362.4H75.0658C75.1738 362.4 75.2458 362.448 75.2818 362.544L79.2778 374.802L79.2958 374.874C79.2958 374.958 79.2418 375 79.1338 375H78.1618ZM72.0598 371.4C72.0478 371.424 72.0478 371.448 72.0598 371.472C72.0838 371.484 72.1078 371.49 72.1318 371.49H76.7758C76.7998 371.49 76.8178 371.484 76.8298 371.472C76.8538 371.448 76.8598 371.424 76.8478 371.4L74.5078 364.056C74.4958 364.032 74.4778 364.02 74.4538 364.02C74.4298 364.02 74.4118 364.032 74.3998 364.056L72.0598 371.4Z" fill="#24282B"/>
<path d="M85.1534 365.766C86.1134 365.766 86.8754 366.048 87.4394 366.612C88.0154 367.176 88.3034 367.932 88.3034 368.88V374.82C88.3034 374.94 88.2434 375 88.1234 375H87.2054C87.0854 375 87.0254 374.94 87.0254 374.82V369.132C87.0254 368.472 86.8214 367.932 86.4134 367.512C86.0174 367.092 85.5014 366.882 84.8654 366.882C84.2054 366.882 83.6714 367.086 83.2634 367.494C82.8554 367.902 82.6514 368.436 82.6514 369.096V374.82C82.6514 374.94 82.5914 375 82.4714 375H81.5534C81.4334 375 81.3734 374.94 81.3734 374.82V366.072C81.3734 365.952 81.4334 365.892 81.5534 365.892H82.4714C82.5914 365.892 82.6514 365.952 82.6514 366.072V366.846C82.6514 366.87 82.6574 366.888 82.6694 366.9C82.6934 366.912 82.7114 366.906 82.7234 366.882C83.2514 366.138 84.0614 365.766 85.1534 365.766Z" fill="#24282B"/>
<path d="M95.1625 366.774C95.1625 366.894 95.1025 366.954 94.9825 366.954H92.9485C92.9005 366.954 92.8765 366.978 92.8765 367.026V372.336C92.8765 372.912 93.0025 373.32 93.2545 373.56C93.5185 373.788 93.9265 373.902 94.4785 373.902H94.9285C95.0485 373.902 95.1085 373.962 95.1085 374.082V374.82C95.1085 374.94 95.0485 375 94.9285 375C94.7845 375.012 94.5625 375.018 94.2625 375.018C93.3985 375.018 92.7445 374.856 92.3005 374.532C91.8565 374.208 91.6345 373.608 91.6345 372.732V367.026C91.6345 366.978 91.6105 366.954 91.5625 366.954H90.4645C90.3445 366.954 90.2845 366.894 90.2845 366.774V366.072C90.2845 365.952 90.3445 365.892 90.4645 365.892H91.5625C91.6105 365.892 91.6345 365.868 91.6345 365.82V363.732C91.6345 363.612 91.6945 363.552 91.8145 363.552H92.6965C92.8165 363.552 92.8765 363.612 92.8765 363.732V365.82C92.8765 365.868 92.9005 365.892 92.9485 365.892H94.9825C95.1025 365.892 95.1625 365.952 95.1625 366.072V366.774Z" fill="#24282B"/>
<path d="M98.4972 364.236C98.2092 364.236 97.9692 364.14 97.7772 363.948C97.5852 363.756 97.4892 363.516 97.4892 363.228C97.4892 362.928 97.5852 362.688 97.7772 362.508C97.9692 362.316 98.2092 362.22 98.4972 362.22C98.7852 362.22 99.0252 362.316 99.2172 362.508C99.4092 362.688 99.5052 362.928 99.5052 363.228C99.5052 363.516 99.4092 363.756 99.2172 363.948C99.0252 364.14 98.7852 364.236 98.4972 364.236ZM97.9932 374.982C97.8732 374.982 97.8132 374.922 97.8132 374.802V366.054C97.8132 365.934 97.8732 365.874 97.9932 365.874H98.9112C99.0312 365.874 99.0912 365.934 99.0912 366.054V374.802C99.0912 374.922 99.0312 374.982 98.9112 374.982H97.9932Z" fill="#24282B"/>
<path d="M101.663 369.96C101.543 369.96 101.483 369.9 101.483 369.78V369.024C101.483 368.904 101.543 368.844 101.663 368.844H106.991C107.111 368.844 107.171 368.904 107.171 369.024V369.78C107.171 369.9 107.111 369.96 106.991 369.96H101.663Z" fill="#24282B"/>
<path d="M117.693 363.336C117.693 363.456 117.633 363.516 117.513 363.516H110.907C110.859 363.516 110.835 363.54 110.835 363.588V368.034C110.835 368.082 110.859 368.106 110.907 368.106H115.533C115.653 368.106 115.713 368.166 115.713 368.286V369.042C115.713 369.162 115.653 369.222 115.533 369.222H110.907C110.859 369.222 110.835 369.246 110.835 369.294V374.82C110.835 374.94 110.775 375 110.655 375H109.737C109.617 375 109.557 374.94 109.557 374.82V362.58C109.557 362.46 109.617 362.4 109.737 362.4H117.513C117.633 362.4 117.693 362.46 117.693 362.58V363.336Z" fill="#24282B"/>
<path d="M119.716 375C119.596 375 119.536 374.94 119.536 374.82V362.58C119.536 362.46 119.596 362.4 119.716 362.4H120.634C120.754 362.4 120.814 362.46 120.814 362.58V374.82C120.814 374.94 120.754 375 120.634 375H119.716Z" fill="#24282B"/>
<path d="M126.834 365.748C127.914 365.748 128.748 366.024 129.336 366.576C129.924 367.128 130.218 367.86 130.218 368.772V374.82C130.218 374.94 130.158 375 130.038 375H129.12C129 375 128.94 374.94 128.94 374.82V374.082C128.94 374.058 128.928 374.04 128.904 374.028C128.892 374.016 128.874 374.022 128.85 374.046C128.55 374.406 128.16 374.682 127.68 374.874C127.2 375.054 126.666 375.144 126.078 375.144C125.226 375.144 124.512 374.928 123.936 374.496C123.36 374.064 123.072 373.404 123.072 372.516C123.072 371.616 123.396 370.908 124.044 370.392C124.704 369.864 125.616 369.6 126.78 369.6H128.868C128.916 369.6 128.94 369.576 128.94 369.528V368.844C128.94 368.232 128.766 367.752 128.418 367.404C128.082 367.044 127.554 366.864 126.834 366.864C126.258 366.864 125.79 366.978 125.43 367.206C125.07 367.422 124.848 367.728 124.764 368.124C124.728 368.244 124.656 368.298 124.548 368.286L123.576 368.16C123.444 368.136 123.39 368.088 123.414 368.016C123.51 367.344 123.87 366.798 124.494 366.378C125.118 365.958 125.898 365.748 126.834 365.748ZM126.33 374.046C127.038 374.046 127.65 373.872 128.166 373.524C128.682 373.164 128.94 372.684 128.94 372.084V370.68C128.94 370.632 128.916 370.608 128.868 370.608H126.978C126.186 370.608 125.55 370.77 125.07 371.094C124.59 371.418 124.35 371.868 124.35 372.444C124.35 372.972 124.53 373.374 124.89 373.65C125.262 373.914 125.742 374.046 126.33 374.046Z" fill="#24282B"/>
<path d="M135.865 375.09C135.193 375.09 134.593 374.982 134.065 374.766C133.549 374.55 133.147 374.262 132.859 373.902C132.583 373.542 132.445 373.14 132.445 372.696V372.48C132.445 372.36 132.505 372.3 132.625 372.3H133.489C133.609 372.3 133.669 372.36 133.669 372.48V372.624C133.669 373.02 133.873 373.368 134.281 373.668C134.701 373.956 135.223 374.1 135.847 374.1C136.471 374.1 136.975 373.962 137.359 373.686C137.743 373.398 137.935 373.038 137.935 372.606C137.935 372.306 137.833 372.06 137.629 371.868C137.437 371.676 137.203 371.526 136.927 371.418C136.663 371.31 136.249 371.172 135.685 371.004C135.013 370.812 134.461 370.62 134.029 370.428C133.597 370.236 133.231 369.972 132.931 369.636C132.643 369.288 132.499 368.85 132.499 368.322C132.499 367.554 132.799 366.942 133.399 366.486C133.999 366.03 134.791 365.802 135.775 365.802C136.435 365.802 137.017 365.91 137.521 366.126C138.037 366.342 138.433 366.642 138.709 367.026C138.985 367.398 139.123 367.818 139.123 368.286V368.34C139.123 368.46 139.063 368.52 138.943 368.52H138.097C137.977 368.52 137.917 368.46 137.917 368.34V368.286C137.917 367.878 137.719 367.536 137.323 367.26C136.939 366.984 136.417 366.846 135.757 366.846C135.145 366.846 134.653 366.972 134.281 367.224C133.909 367.464 133.723 367.8 133.723 368.232C133.723 368.64 133.903 368.952 134.263 369.168C134.623 369.384 135.181 369.6 135.937 369.816C136.633 370.02 137.197 370.212 137.629 370.392C138.061 370.572 138.433 370.836 138.745 371.184C139.057 371.52 139.213 371.964 139.213 372.516C139.213 373.296 138.907 373.92 138.295 374.388C137.683 374.856 136.873 375.09 135.865 375.09Z" fill="#24282B"/>
<path d="M145.323 365.766C146.283 365.766 147.045 366.048 147.609 366.612C148.185 367.176 148.473 367.932 148.473 368.88V374.82C148.473 374.94 148.413 375 148.293 375H147.375C147.255 375 147.195 374.94 147.195 374.82V369.132C147.195 368.472 146.991 367.932 146.583 367.512C146.187 367.092 145.671 366.882 145.035 366.882C144.375 366.882 143.841 367.086 143.433 367.494C143.025 367.902 142.821 368.436 142.821 369.096V374.82C142.821 374.94 142.761 375 142.641 375H141.723C141.603 375 141.543 374.94 141.543 374.82V362.58C141.543 362.46 141.603 362.4 141.723 362.4H142.641C142.761 362.4 142.821 362.46 142.821 362.58V366.846C142.821 366.87 142.827 366.888 142.839 366.9C142.863 366.912 142.881 366.906 142.893 366.882C143.421 366.138 144.231 365.766 145.323 365.766Z" fill="#24282B"/>
<path d="M157.568 375C157.472 375 157.406 374.952 157.37 374.856L153.914 362.598L153.896 362.544C153.896 362.448 153.956 362.4 154.076 362.4H155.03C155.138 362.4 155.204 362.448 155.228 362.544L157.964 372.408C157.976 372.432 157.988 372.444 158 372.444C158.024 372.444 158.042 372.432 158.054 372.408L160.592 362.562C160.616 362.454 160.682 362.4 160.79 362.4H161.762C161.87 362.4 161.936 362.454 161.96 362.562L164.606 372.408C164.618 372.432 164.63 372.444 164.642 372.444C164.666 372.444 164.684 372.432 164.696 372.408L167.432 362.544C167.456 362.448 167.522 362.4 167.63 362.4H168.548C168.608 362.4 168.65 362.418 168.674 362.454C168.71 362.49 168.722 362.538 168.71 362.598L165.308 374.856C165.284 374.952 165.218 375 165.11 375H164.156C164.048 375 163.982 374.946 163.958 374.838L161.33 364.758C161.318 364.734 161.3 364.722 161.276 364.722C161.264 364.722 161.252 364.734 161.24 364.758L158.666 374.838C158.654 374.946 158.588 375 158.468 375H157.568Z" fill="#24282B"/>
<path d="M174.433 365.766C175.393 365.766 176.155 366.048 176.719 366.612C177.295 367.176 177.583 367.932 177.583 368.88V374.82C177.583 374.94 177.523 375 177.403 375H176.485C176.365 375 176.305 374.94 176.305 374.82V369.132C176.305 368.472 176.101 367.932 175.693 367.512C175.297 367.092 174.781 366.882 174.145 366.882C173.485 366.882 172.951 367.086 172.543 367.494C172.135 367.902 171.931 368.436 171.931 369.096V374.82C171.931 374.94 171.871 375 171.751 375H170.833C170.713 375 170.653 374.94 170.653 374.82V362.58C170.653 362.46 170.713 362.4 170.833 362.4H171.751C171.871 362.4 171.931 362.46 171.931 362.58V366.846C171.931 366.87 171.937 366.888 171.949 366.9C171.973 366.912 171.991 366.906 172.003 366.882C172.531 366.138 173.341 365.766 174.433 365.766Z" fill="#24282B"/>
<path d="M181.22 364.236C180.932 364.236 180.692 364.14 180.5 363.948C180.308 363.756 180.212 363.516 180.212 363.228C180.212 362.928 180.308 362.688 180.5 362.508C180.692 362.316 180.932 362.22 181.22 362.22C181.508 362.22 181.748 362.316 181.94 362.508C182.132 362.688 182.228 362.928 182.228 363.228C182.228 363.516 182.132 363.756 181.94 363.948C181.748 364.14 181.508 364.236 181.22 364.236ZM180.716 374.982C180.596 374.982 180.536 374.922 180.536 374.802V366.054C180.536 365.934 180.596 365.874 180.716 365.874H181.634C181.754 365.874 181.814 365.934 181.814 366.054V374.802C181.814 374.922 181.754 374.982 181.634 374.982H180.716Z" fill="#24282B"/>
<path d="M189.03 366.774C189.03 366.894 188.97 366.954 188.85 366.954H186.816C186.768 366.954 186.744 366.978 186.744 367.026V372.336C186.744 372.912 186.87 373.32 187.122 373.56C187.386 373.788 187.794 373.902 188.346 373.902H188.796C188.916 373.902 188.976 373.962 188.976 374.082V374.82C188.976 374.94 188.916 375 188.796 375C188.652 375.012 188.43 375.018 188.13 375.018C187.266 375.018 186.612 374.856 186.168 374.532C185.724 374.208 185.502 373.608 185.502 372.732V367.026C185.502 366.978 185.478 366.954 185.43 366.954H184.332C184.212 366.954 184.152 366.894 184.152 366.774V366.072C184.152 365.952 184.212 365.892 184.332 365.892H185.43C185.478 365.892 185.502 365.868 185.502 365.82V363.732C185.502 363.612 185.562 363.552 185.682 363.552H186.564C186.684 363.552 186.744 363.612 186.744 363.732V365.82C186.744 365.868 186.768 365.892 186.816 365.892H188.85C188.97 365.892 189.03 365.952 189.03 366.072V366.774Z" fill="#24282B"/>
<path d="M198.221 368.916C198.269 369.252 198.293 369.672 198.293 370.176V370.752C198.293 370.872 198.233 370.932 198.113 370.932H192.299C192.251 370.932 192.227 370.956 192.227 371.004C192.251 371.664 192.287 372.09 192.335 372.282C192.467 372.822 192.749 373.248 193.181 373.56C193.613 373.872 194.165 374.028 194.837 374.028C195.341 374.028 195.785 373.914 196.169 373.686C196.553 373.458 196.853 373.134 197.069 372.714C197.141 372.606 197.225 372.582 197.321 372.642L198.023 373.056C198.119 373.116 198.143 373.2 198.095 373.308C197.795 373.884 197.345 374.34 196.745 374.676C196.145 375 195.455 375.162 194.675 375.162C193.823 375.15 193.109 374.946 192.533 374.55C191.957 374.154 191.543 373.602 191.291 372.894C191.075 372.318 190.967 371.49 190.967 370.41C190.967 369.906 190.973 369.498 190.985 369.186C191.009 368.862 191.057 368.574 191.129 368.322C191.333 367.542 191.741 366.918 192.353 366.45C192.977 365.982 193.727 365.748 194.603 365.748C195.695 365.748 196.535 366.024 197.123 366.576C197.711 367.128 198.077 367.908 198.221 368.916ZM194.603 366.864C194.015 366.864 193.523 367.02 193.127 367.332C192.743 367.632 192.491 368.04 192.371 368.556C192.299 368.808 192.251 369.216 192.227 369.78C192.227 369.828 192.251 369.852 192.299 369.852H196.961C197.009 369.852 197.033 369.828 197.033 369.78C197.009 369.24 196.973 368.856 196.925 368.628C196.793 368.088 196.523 367.662 196.115 367.35C195.719 367.026 195.215 366.864 194.603 366.864Z" fill="#24282B"/>
</svg>
