<svg width="1028" height="506" viewBox="0 0 1028 506" fill="none" xmlns="http://www.w3.org/2000/svg">
<g clip-path="url(#clip0_936_1545)">
<path d="M0 7.99999C0 3.58171 3.58172 0 8 0H1020C1024.42 0 1028 3.58172 1028 8V498C1028 502.418 1024.42 506 1020 506H8C3.58172 506 0 502.418 0 498V7.99999Z" fill="#D39060"/>
<path d="M198.6 213V209.04C201.64 208.88 203.72 208.2 204.84 207C205.96 205.72 206.56 204 206.64 201.84C206.8 199.6 206.88 197.08 206.88 194.28V142.44C206.88 140.84 206.92 139.32 207 137.88C207.08 136.36 207.16 135 207.24 133.8C205.8 133.88 204.36 133.96 202.92 134.04C201.48 134.12 200.04 134.2 198.6 134.28V129H254.28L254.88 150H250.92C250.92 145.28 250.16 141.72 248.64 139.32C247.12 136.84 245.12 135.2 242.64 134.4C240.16 133.52 237.4 133.12 234.36 133.2L225.6 133.44C222.64 133.52 220.6 134.24 219.48 135.6C218.36 136.88 217.72 138.6 217.56 140.76C217.4 142.92 217.32 145.4 217.32 148.2V168.84L238.2 168.96L237.36 158.52H242.64V183.84H238.8C238.8 180.24 238.28 177.68 237.24 176.16C236.28 174.64 234.76 173.72 232.68 173.4C230.6 173.08 227.88 173 224.52 173.16L217.32 173.52V198.72C217.32 200.88 217.28 202.76 217.2 204.36C217.2 205.88 217.12 207.16 216.96 208.2C218.32 208.12 219.68 208.08 221.04 208.08C222.4 208 223.76 207.92 225.12 207.84C226.48 207.76 227.84 207.72 229.2 207.72V213H198.6Z" fill="white"/>
<path d="M261.85 209.4C264.33 209.4 266.05 208.8 267.01 207.6C267.97 206.32 268.53 204.6 268.69 202.44C268.85 200.2 268.93 197.64 268.93 194.76V167.4C268.93 166.12 268.93 164.84 268.93 163.56C269.01 162.28 269.17 160.96 269.41 159.6C267.97 159.68 266.53 159.76 265.09 159.84C263.73 159.84 262.33 159.88 260.89 159.96V155.04H264.61C268.05 155.04 270.41 154.72 271.69 154.08C273.05 153.36 274.17 152.6 275.05 151.8H278.53C278.69 153.08 278.81 154.68 278.89 156.6C278.97 158.44 279.05 160.8 279.13 163.68C280.33 161.68 281.97 159.72 284.05 157.8C286.13 155.88 288.45 154.28 291.01 153C293.65 151.72 296.41 151.08 299.29 151.08C301.53 151.08 303.49 151.68 305.17 152.88C306.85 154.08 307.69 156 307.69 158.64C307.69 159.28 307.49 160.08 307.09 161.04C306.69 161.92 306.05 162.72 305.17 163.44C304.29 164.08 303.13 164.4 301.69 164.4C299.93 164.32 298.53 163.64 297.49 162.36C296.45 161 296.05 159.44 296.29 157.68C294.29 157.6 292.21 158.12 290.05 159.24C287.97 160.36 286.01 161.92 284.17 163.92C282.33 165.84 280.69 168.12 279.25 170.76L279.37 200.28C279.37 201.88 279.33 203.32 279.25 204.6C279.25 205.8 279.13 207.08 278.89 208.44C280.17 208.36 281.41 208.32 282.61 208.32C283.89 208.24 285.17 208.16 286.45 208.08V213H261.85V209.4Z" fill="white"/>
<path d="M341.984 214.92C336.464 214.92 331.464 213.64 326.984 211.08C322.584 208.44 319.104 204.76 316.544 200.04C313.984 195.24 312.704 189.6 312.704 183.12C312.704 177.52 313.944 172.28 316.424 167.4C318.984 162.52 322.544 158.6 327.104 155.64C331.664 152.6 336.944 151.08 342.944 151.08C346.304 151.08 349.424 151.64 352.304 152.76C355.264 153.8 357.864 155.44 360.104 157.68C362.344 159.84 364.104 162.6 365.384 165.96C366.664 169.24 367.304 173.12 367.304 177.6L325.064 178.32C325.064 184.4 325.704 189.76 326.984 194.4C328.344 198.96 330.504 202.52 333.464 205.08C336.424 207.56 340.224 208.8 344.864 208.8C347.344 208.8 349.864 208.36 352.424 207.48C355.064 206.6 357.504 205.4 359.744 203.88C361.984 202.36 363.784 200.68 365.144 198.84L368.024 201.24C365.864 204.6 363.264 207.28 360.224 209.28C357.184 211.28 354.064 212.72 350.864 213.6C347.664 214.48 344.704 214.92 341.984 214.92ZM325.424 173.28H356.024C356.024 170.4 355.584 167.64 354.704 165C353.904 162.28 352.544 160.08 350.624 158.4C348.704 156.64 346.184 155.76 343.064 155.76C338.424 155.76 334.544 157.16 331.424 159.96C328.384 162.68 326.384 167.12 325.424 173.28Z" fill="white"/>
<path d="M406.437 214.92C400.917 214.92 395.917 213.64 391.437 211.08C387.037 208.44 383.557 204.76 380.997 200.04C378.437 195.24 377.157 189.6 377.157 183.12C377.157 177.52 378.397 172.28 380.877 167.4C383.437 162.52 386.997 158.6 391.557 155.64C396.117 152.6 401.397 151.08 407.397 151.08C410.757 151.08 413.877 151.64 416.757 152.76C419.717 153.8 422.317 155.44 424.557 157.68C426.797 159.84 428.557 162.6 429.837 165.96C431.117 169.24 431.757 173.12 431.757 177.6L389.517 178.32C389.517 184.4 390.157 189.76 391.437 194.4C392.797 198.96 394.957 202.52 397.917 205.08C400.877 207.56 404.677 208.8 409.317 208.8C411.797 208.8 414.317 208.36 416.877 207.48C419.517 206.6 421.957 205.4 424.197 203.88C426.437 202.36 428.237 200.68 429.597 198.84L432.477 201.24C430.317 204.6 427.717 207.28 424.677 209.28C421.637 211.28 418.517 212.72 415.317 213.6C412.117 214.48 409.157 214.92 406.437 214.92ZM389.877 173.28H420.477C420.477 170.4 420.037 167.64 419.157 165C418.357 162.28 416.997 160.08 415.077 158.4C413.157 156.64 410.637 155.76 407.517 155.76C402.877 155.76 398.997 157.16 395.877 159.96C392.837 162.68 390.837 167.12 389.877 173.28Z" fill="white"/>
<path d="M498.56 214.92C494.56 214.92 491 214.36 487.88 213.24C484.76 212.2 482.2 211 480.2 209.64L480.68 213.84H475.64L474.92 193.2H478.64C478.8 196.48 479.72 199.44 481.4 202.08C483.08 204.64 485.24 206.64 487.88 208.08C490.52 209.52 493.36 210.24 496.4 210.24C498.48 210.24 500.52 209.92 502.52 209.28C504.52 208.56 506.2 207.52 507.56 206.16C508.92 204.72 509.6 202.92 509.6 200.76C509.6 198.52 508.92 196.68 507.56 195.24C506.28 193.72 504.56 192.4 502.4 191.28C500.24 190.16 497.92 189.12 495.44 188.16C493.04 187.2 490.64 186.2 488.24 185.16C485.84 184.12 483.6 182.88 481.52 181.44C479.52 180 477.92 178.24 476.72 176.16C475.52 174.08 474.92 171.52 474.92 168.48C474.92 166.8 475.24 164.96 475.88 162.96C476.52 160.96 477.6 159.08 479.12 157.32C480.64 155.48 482.72 154 485.36 152.88C488 151.68 491.36 151.08 495.44 151.08C497.6 151.08 500 151.44 502.64 152.16C505.28 152.88 507.84 154.24 510.32 156.24L510.08 151.68H515.12V172.68H511.28C511.12 169.88 510.48 167.2 509.36 164.64C508.24 162 506.6 159.84 504.44 158.16C502.28 156.4 499.48 155.52 496.04 155.52C492.36 155.52 489.48 156.44 487.4 158.28C485.32 160.12 484.28 162.24 484.28 164.64C484.28 167.12 485.04 169.2 486.56 170.88C488.16 172.48 490.2 173.88 492.68 175.08C495.16 176.28 497.8 177.44 500.6 178.56C503.64 179.84 506.6 181.24 509.48 182.76C512.36 184.28 514.72 186.2 516.56 188.52C518.4 190.76 519.32 193.68 519.32 197.28C519.32 201.28 518.28 204.6 516.2 207.24C514.2 209.88 511.6 211.8 508.4 213C505.28 214.28 502 214.92 498.56 214.92Z" fill="white"/>
<path d="M568.027 209.4C570.507 209.4 572.227 208.8 573.187 207.6C574.147 206.32 574.707 204.6 574.867 202.44C575.027 200.2 575.107 197.64 575.107 194.76V177.96C575.107 171.08 573.987 165.92 571.747 162.48C569.587 159.04 566.147 157.36 561.427 157.44C558.467 157.52 555.547 158.24 552.667 159.6C549.867 160.96 547.587 162.72 545.827 164.88V200.28C545.827 201.88 545.787 203.32 545.707 204.6C545.627 205.8 545.467 207.08 545.227 208.44C546.507 208.36 547.747 208.32 548.947 208.32C550.227 208.24 551.507 208.16 552.787 208.08V213H528.307V209.4C530.787 209.4 532.507 208.8 533.467 207.6C534.427 206.32 534.987 204.6 535.147 202.44C535.387 200.2 535.507 197.64 535.507 194.76V138C535.507 136.72 535.507 135.52 535.507 134.4C535.587 133.2 535.707 131.8 535.867 130.2C534.427 130.28 532.987 130.36 531.547 130.44C530.187 130.52 528.787 130.6 527.347 130.68V125.64C530.867 125.64 533.587 125.48 535.507 125.16C537.507 124.84 538.987 124.44 539.947 123.96C540.987 123.48 541.787 122.96 542.347 122.4H545.827V159C547.587 157.48 549.547 156.16 551.707 155.04C553.947 153.84 556.227 152.88 558.547 152.16C560.947 151.44 563.267 151.08 565.507 151.08C572.467 151.08 577.467 153.28 580.507 157.68C583.627 162 585.227 168.76 585.307 177.96L585.427 200.28C585.427 201.88 585.387 203.32 585.307 204.6C585.307 205.8 585.187 207.08 584.947 208.44C586.227 208.36 587.467 208.32 588.667 208.32C589.947 208.24 591.227 208.16 592.507 208.08V213H568.027V209.4Z" fill="white"/>
<path d="M601.343 209.4C603.823 209.4 605.543 208.8 606.503 207.6C607.463 206.32 608.023 204.6 608.183 202.44C608.343 200.2 608.423 197.64 608.423 194.76V167.4C608.423 166.12 608.463 164.92 608.543 163.8C608.623 162.6 608.743 161.2 608.903 159.6C607.463 159.68 606.023 159.76 604.583 159.84C603.223 159.92 601.823 160 600.383 160.08V155.04C603.903 155.04 606.623 154.88 608.543 154.56C610.463 154.24 611.903 153.84 612.863 153.36C613.903 152.88 614.703 152.36 615.263 151.8H618.743V200.28C618.743 201.88 618.703 203.32 618.623 204.6C618.623 205.8 618.503 207.08 618.263 208.44C619.543 208.36 620.783 208.32 621.983 208.32C623.263 208.24 624.543 208.16 625.823 208.08V213H601.343V209.4ZM612.983 139.92C611.303 139.92 609.823 139.24 608.543 137.88C607.263 136.52 606.623 134.84 606.623 132.84C606.623 130.84 607.263 129.16 608.543 127.8C609.903 126.36 611.423 125.64 613.103 125.64C614.943 125.64 616.463 126.36 617.663 127.8C618.943 129.16 619.583 130.84 619.583 132.84C619.583 134.84 618.903 136.52 617.543 137.88C616.263 139.24 614.743 139.92 612.983 139.92Z" fill="white"/>
<path d="M634.013 243.6V240C636.493 240 638.213 239.36 639.173 238.08C640.133 236.88 640.693 235.16 640.853 232.92C641.013 230.76 641.093 228.24 641.093 225.36L641.333 167.4C641.333 166.12 641.333 164.84 641.333 163.56C641.413 162.28 641.573 160.96 641.813 159.6C640.373 159.68 638.933 159.76 637.493 159.84C636.133 159.92 634.733 160 633.293 160.08V155.04C636.813 155.04 639.453 154.88 641.213 154.56C643.053 154.24 644.373 153.84 645.173 153.36C646.053 152.88 646.773 152.36 647.333 151.8H650.933C651.013 152.6 651.093 153.56 651.173 154.68C651.253 155.72 651.333 156.92 651.413 158.28C653.813 156.12 656.653 154.4 659.933 153.12C663.293 151.76 666.653 151.08 670.013 151.08C674.653 151.08 678.973 152.28 682.973 154.68C686.973 157.08 690.213 160.52 692.693 165C695.173 169.4 696.413 174.68 696.413 180.84C696.413 187.64 694.973 193.6 692.093 198.72C689.293 203.84 685.573 207.84 680.933 210.72C676.293 213.52 671.253 214.92 665.813 214.92C663.013 214.92 660.413 214.56 658.013 213.84C655.693 213.2 653.493 212.24 651.413 210.96V230.88C651.413 232.48 651.373 233.88 651.293 235.08C651.293 236.36 651.173 237.68 650.933 239.04C652.213 238.96 653.453 238.88 654.653 238.8C655.933 238.8 657.213 238.76 658.493 238.68V243.6H634.013ZM665.573 210.12C669.413 210.12 672.693 208.96 675.413 206.64C678.213 204.24 680.333 201 681.773 196.92C683.293 192.76 684.053 188.04 684.053 182.76C684.053 178.44 683.413 174.32 682.133 170.4C680.933 166.4 678.973 163.16 676.253 160.68C673.613 158.2 670.093 156.96 665.693 156.96C662.973 156.96 660.333 157.64 657.773 159C655.293 160.28 653.213 161.84 651.533 163.68C651.533 164 651.533 164.48 651.533 165.12C651.613 165.68 651.653 166.72 651.653 168.24C651.653 169.68 651.653 171.88 651.653 174.84C651.653 177.72 651.613 181.64 651.533 186.6C651.533 191.56 651.533 197.84 651.533 205.44C653.533 206.96 655.693 208.12 658.013 208.92C660.413 209.72 662.933 210.12 665.573 210.12Z" fill="white"/>
<path d="M705.614 243.6V240C708.094 240 709.814 239.36 710.774 238.08C711.734 236.88 712.294 235.16 712.454 232.92C712.614 230.76 712.694 228.24 712.694 225.36L712.934 167.4C712.934 166.12 712.934 164.84 712.934 163.56C713.014 162.28 713.174 160.96 713.414 159.6C711.974 159.68 710.534 159.76 709.094 159.84C707.734 159.92 706.334 160 704.894 160.08V155.04C708.414 155.04 711.054 154.88 712.814 154.56C714.654 154.24 715.974 153.84 716.774 153.36C717.654 152.88 718.374 152.36 718.934 151.8H722.534C722.614 152.6 722.694 153.56 722.774 154.68C722.854 155.72 722.934 156.92 723.014 158.28C725.414 156.12 728.254 154.4 731.534 153.12C734.894 151.76 738.254 151.08 741.614 151.08C746.254 151.08 750.574 152.28 754.574 154.68C758.574 157.08 761.814 160.52 764.294 165C766.774 169.4 768.014 174.68 768.014 180.84C768.014 187.64 766.574 193.6 763.694 198.72C760.894 203.84 757.174 207.84 752.534 210.72C747.894 213.52 742.854 214.92 737.414 214.92C734.614 214.92 732.014 214.56 729.614 213.84C727.294 213.2 725.094 212.24 723.014 210.96V230.88C723.014 232.48 722.974 233.88 722.894 235.08C722.894 236.36 722.774 237.68 722.534 239.04C723.814 238.96 725.054 238.88 726.254 238.8C727.534 238.8 728.814 238.76 730.094 238.68V243.6H705.614ZM737.174 210.12C741.014 210.12 744.294 208.96 747.014 206.64C749.814 204.24 751.934 201 753.374 196.92C754.894 192.76 755.654 188.04 755.654 182.76C755.654 178.44 755.014 174.32 753.734 170.4C752.534 166.4 750.574 163.16 747.854 160.68C745.214 158.2 741.694 156.96 737.294 156.96C734.574 156.96 731.934 157.64 729.374 159C726.894 160.28 724.814 161.84 723.134 163.68C723.134 164 723.134 164.48 723.134 165.12C723.214 165.68 723.254 166.72 723.254 168.24C723.254 169.68 723.254 171.88 723.254 174.84C723.254 177.72 723.214 181.64 723.134 186.6C723.134 191.56 723.134 197.84 723.134 205.44C725.134 206.96 727.294 208.12 729.614 208.92C732.014 209.72 734.534 210.12 737.174 210.12Z" fill="white"/>
<path d="M778.296 209.4C780.776 209.4 782.496 208.8 783.456 207.6C784.416 206.32 784.976 204.6 785.136 202.44C785.296 200.2 785.376 197.64 785.376 194.76V167.4C785.376 166.12 785.416 164.92 785.496 163.8C785.576 162.6 785.696 161.2 785.856 159.6C784.416 159.68 782.976 159.76 781.536 159.84C780.176 159.92 778.776 160 777.336 160.08V155.04C780.856 155.04 783.576 154.88 785.496 154.56C787.416 154.24 788.856 153.84 789.816 153.36C790.856 152.88 791.656 152.36 792.216 151.8H795.696V200.28C795.696 201.88 795.656 203.32 795.576 204.6C795.576 205.8 795.456 207.08 795.216 208.44C796.496 208.36 797.736 208.32 798.936 208.32C800.216 208.24 801.496 208.16 802.776 208.08V213H778.296V209.4ZM789.936 139.92C788.256 139.92 786.776 139.24 785.496 137.88C784.216 136.52 783.576 134.84 783.576 132.84C783.576 130.84 784.216 129.16 785.496 127.8C786.856 126.36 788.376 125.64 790.056 125.64C791.896 125.64 793.416 126.36 794.616 127.8C795.896 129.16 796.536 130.84 796.536 132.84C796.536 134.84 795.856 136.52 794.496 137.88C793.216 139.24 791.696 139.92 789.936 139.92Z" fill="white"/>
<path d="M812.046 213V209.4C814.526 209.4 816.246 208.8 817.206 207.6C818.166 206.32 818.726 204.6 818.886 202.44C819.046 200.2 819.126 197.64 819.126 194.76L819.246 167.4C819.246 166.12 819.246 164.84 819.246 163.56C819.326 162.28 819.486 160.96 819.726 159.6C818.286 159.68 816.846 159.76 815.406 159.84C814.046 159.92 812.646 160 811.206 160.08V155.04C814.726 155.04 817.366 154.88 819.126 154.56C820.966 154.24 822.326 153.84 823.206 153.36C824.086 152.88 824.806 152.36 825.366 151.8H828.846C828.926 152.36 828.966 153 828.966 153.72C829.046 154.44 829.126 155.24 829.206 156.12C829.286 157 829.326 158 829.326 159.12C831.086 157.6 833.006 156.24 835.086 155.04C837.246 153.84 839.486 152.88 841.806 152.16C844.206 151.44 846.566 151.08 848.886 151.08C855.846 151.08 860.926 153.28 864.126 157.68C867.326 162 868.926 168.76 868.926 177.96V200.28C868.926 201.88 868.886 203.32 868.806 204.6C868.806 205.8 868.686 207.08 868.446 208.44C869.726 208.36 870.966 208.32 872.166 208.32C873.446 208.24 874.726 208.16 876.006 208.08V213H851.526V209.4C854.006 209.4 855.726 208.8 856.686 207.6C857.646 206.32 858.206 204.6 858.366 202.44C858.526 200.2 858.606 197.64 858.606 194.76V177.96C858.526 171.08 857.366 165.88 855.126 162.36C852.966 158.84 849.526 157.12 844.806 157.2C841.926 157.28 839.086 158.04 836.286 159.48C833.566 160.92 831.286 162.76 829.446 165C829.526 165.64 829.566 166.36 829.566 167.16C829.566 167.96 829.566 168.8 829.566 169.68L829.446 200.28C829.446 201.88 829.406 203.32 829.326 204.6C829.326 205.8 829.206 207.08 828.966 208.44C830.246 208.36 831.486 208.32 832.686 208.32C833.966 208.24 835.246 208.16 836.526 208.08V213H812.046Z" fill="white"/>
<path d="M913.856 245.52C906.656 245.52 900.856 244.72 896.456 243.12C892.056 241.52 888.856 239.48 886.856 237C884.856 234.52 883.856 231.96 883.856 229.32C883.856 226.84 884.416 224.64 885.536 222.72C886.736 220.88 888.176 219.28 889.856 217.92C891.616 216.56 893.296 215.56 894.896 214.92C892.336 214.04 890.296 212.88 888.776 211.44C887.336 209.92 886.616 207.92 886.616 205.44C886.616 202.64 887.736 200.04 889.976 197.64C892.216 195.16 895.096 193.64 898.616 193.08C894.936 191.32 891.976 188.88 889.736 185.76C887.576 182.64 886.496 179 886.496 174.84C886.496 170.04 887.736 165.88 890.216 162.36C892.696 158.76 895.856 156 899.696 154.08C903.616 152.08 907.656 151.08 911.816 151.08C914.456 151.08 917.096 151.48 919.736 152.28C922.376 153 924.816 154.08 927.056 155.52C927.856 153.28 928.976 151.28 930.416 149.52C931.936 147.76 933.656 146.4 935.576 145.44C937.496 144.4 939.496 143.88 941.576 143.88C943.656 143.88 945.216 144.44 946.256 145.56C947.376 146.6 947.936 148.04 947.936 149.88C947.936 150.44 947.776 151.12 947.456 151.92C947.136 152.72 946.576 153.4 945.776 153.96C945.056 154.52 944.056 154.8 942.776 154.8C941.416 154.8 940.296 154.4 939.416 153.6C938.536 152.8 937.976 151.8 937.736 150.6C935.736 150.92 934.176 151.88 933.056 153.48C931.936 155 931.176 156.68 930.776 158.52C932.696 160.28 934.216 162.4 935.336 164.88C936.536 167.36 937.136 170 937.136 172.8C937.136 177.28 935.936 181.28 933.536 184.8C931.216 188.32 928.136 191.08 924.296 193.08C920.456 195 916.296 195.96 911.816 195.96C910.296 195.96 908.976 195.88 907.856 195.72C906.736 195.48 905.376 195.36 903.776 195.36C900.816 195.36 898.416 196.08 896.576 197.52C894.736 198.96 894.096 200.68 894.656 202.68C895.296 204.6 897.256 205.84 900.536 206.4C903.816 206.88 908.216 207.24 913.736 207.48C919.896 207.72 925.176 208.44 929.576 209.64C933.976 210.84 937.336 212.68 939.656 215.16C942.056 217.72 943.256 221.16 943.256 225.48C943.256 228.68 942.376 231.52 940.616 234C938.936 236.56 936.656 238.68 933.776 240.36C930.976 242.04 927.816 243.32 924.296 244.2C920.856 245.08 917.376 245.52 913.856 245.52ZM913.736 240.84C920.616 240.84 925.976 239.56 929.816 237C933.656 234.44 935.576 231.44 935.576 228C935.576 225.04 934.576 222.76 932.576 221.16C930.576 219.64 927.856 218.56 924.416 217.92C920.976 217.36 917.016 217.04 912.536 216.96C910.376 216.88 908.256 216.76 906.176 216.6C904.096 216.52 902.096 216.32 900.176 216C898.016 217.44 896.336 219.2 895.136 221.28C893.936 223.36 893.336 225.56 893.336 227.88C893.336 231.8 895.176 234.92 898.856 237.24C902.616 239.64 907.576 240.84 913.736 240.84ZM912.176 191.64C915.136 191.64 917.576 190.92 919.496 189.48C921.496 188.04 922.976 186.08 923.936 183.6C924.976 181.12 925.496 178.32 925.496 175.2C925.496 171.68 924.976 168.4 923.936 165.36C922.896 162.32 921.336 159.88 919.256 158.04C917.256 156.2 914.696 155.28 911.576 155.28C907.256 155.28 903.896 156.92 901.496 160.2C899.176 163.4 898.016 167.4 898.016 172.2C898.016 176.04 898.576 179.44 899.696 182.4C900.816 185.28 902.416 187.56 904.496 189.24C906.656 190.84 909.216 191.64 912.176 191.64Z" fill="white"/>
<path d="M1012.55 214.92C1006.95 214.92 1001.87 213.64 997.308 211.08C992.748 208.44 989.108 204.84 986.388 200.28C983.748 195.64 982.428 190.36 982.428 184.44C982.428 178.12 983.748 172.44 986.388 167.4C989.028 162.36 992.628 158.4 997.188 155.52C1001.75 152.56 1006.87 151.08 1012.55 151.08C1018.15 151.08 1023.23 152.44 1027.79 155.16C1032.35 157.8 1035.99 161.4 1038.71 165.96C1041.43 170.52 1042.79 175.72 1042.79 181.56C1042.79 187.72 1041.43 193.36 1038.71 198.48C1036.07 203.52 1032.47 207.52 1027.91 210.48C1023.35 213.44 1018.23 214.92 1012.55 214.92ZM1013.51 210.12C1017.75 210.12 1021.11 208.92 1023.59 206.52C1026.07 204.12 1027.83 201 1028.87 197.16C1029.99 193.32 1030.55 189.28 1030.55 185.04C1030.55 181.44 1030.19 177.92 1029.47 174.48C1028.83 170.96 1027.79 167.8 1026.35 165C1024.91 162.12 1023.03 159.84 1020.71 158.16C1018.47 156.48 1015.75 155.64 1012.55 155.64C1008.39 155.64 1004.99 156.84 1002.35 159.24C999.708 161.64 997.748 164.76 996.468 168.6C995.268 172.44 994.668 176.56 994.668 180.96C994.668 185.92 995.348 190.64 996.708 195.12C998.068 199.52 1000.15 203.12 1002.95 205.92C1005.75 208.72 1009.27 210.12 1013.51 210.12Z" fill="white"/>
<path d="M1075.2 213.36L1058.04 174.24C1056.76 171.2 1055.76 168.6 1055.04 166.44C1054.32 164.28 1053.8 162.48 1053.48 161.04C1053.24 159.6 1053.08 158.44 1053 157.56L1047.84 157.92V153H1069.92V156.6C1067.52 156.6 1065.96 157.24 1065.24 158.52C1064.6 159.72 1064.52 161.36 1065 163.44C1065.48 165.44 1066.2 167.6 1067.16 169.92L1076.4 191.04C1077.04 192.4 1077.64 193.84 1078.2 195.36C1078.84 196.8 1079.44 198.32 1080 199.92H1080.12C1080.52 198.72 1080.96 197.44 1081.44 196.08C1082 194.72 1082.48 193.4 1082.88 192.12L1092.48 165.84C1093.12 163.92 1093.8 162.24 1094.52 160.8C1095.24 159.36 1095.76 158.28 1096.08 157.56L1088.4 157.92V153H1107.36V156.6C1105.6 156.6 1104.12 157.2 1102.92 158.4C1101.72 159.6 1100.56 161.4 1099.44 163.8C1098.4 166.2 1097.16 169.2 1095.72 172.8L1080 213.36H1075.2Z" fill="white"/>
<path d="M1141.44 214.92C1135.92 214.92 1130.92 213.64 1126.44 211.08C1122.04 208.44 1118.56 204.76 1116 200.04C1113.44 195.24 1112.16 189.6 1112.16 183.12C1112.16 177.52 1113.4 172.28 1115.88 167.4C1118.44 162.52 1122 158.6 1126.56 155.64C1131.12 152.6 1136.4 151.08 1142.4 151.08C1145.76 151.08 1148.88 151.64 1151.76 152.76C1154.72 153.8 1157.32 155.44 1159.56 157.68C1161.8 159.84 1163.56 162.6 1164.84 165.96C1166.12 169.24 1166.76 173.12 1166.76 177.6L1124.52 178.32C1124.52 184.4 1125.16 189.76 1126.44 194.4C1127.8 198.96 1129.96 202.52 1132.92 205.08C1135.88 207.56 1139.68 208.8 1144.32 208.8C1146.8 208.8 1149.32 208.36 1151.88 207.48C1154.52 206.6 1156.96 205.4 1159.2 203.88C1161.44 202.36 1163.24 200.68 1164.6 198.84L1167.48 201.24C1165.32 204.6 1162.72 207.28 1159.68 209.28C1156.64 211.28 1153.52 212.72 1150.32 213.6C1147.12 214.48 1144.16 214.92 1141.44 214.92ZM1124.88 173.28H1155.48C1155.48 170.4 1155.04 167.64 1154.16 165C1153.36 162.28 1152 160.08 1150.08 158.4C1148.16 156.64 1145.64 155.76 1142.52 155.76C1137.88 155.76 1134 157.16 1130.88 159.96C1127.84 162.68 1125.84 167.12 1124.88 173.28Z" fill="white"/>
<path d="M1177.44 209.4C1179.92 209.4 1181.64 208.8 1182.6 207.6C1183.56 206.32 1184.12 204.6 1184.28 202.44C1184.44 200.2 1184.52 197.64 1184.52 194.76V167.4C1184.52 166.12 1184.52 164.84 1184.52 163.56C1184.6 162.28 1184.76 160.96 1185 159.6C1183.56 159.68 1182.12 159.76 1180.68 159.84C1179.32 159.84 1177.92 159.88 1176.48 159.96V155.04H1180.2C1183.64 155.04 1186 154.72 1187.28 154.08C1188.64 153.36 1189.76 152.6 1190.64 151.8H1194.12C1194.28 153.08 1194.4 154.68 1194.48 156.6C1194.56 158.44 1194.64 160.8 1194.72 163.68C1195.92 161.68 1197.56 159.72 1199.64 157.8C1201.72 155.88 1204.04 154.28 1206.6 153C1209.24 151.72 1212 151.08 1214.88 151.08C1217.12 151.08 1219.08 151.68 1220.76 152.88C1222.44 154.08 1223.28 156 1223.28 158.64C1223.28 159.28 1223.08 160.08 1222.68 161.04C1222.28 161.92 1221.64 162.72 1220.76 163.44C1219.88 164.08 1218.72 164.4 1217.28 164.4C1215.52 164.32 1214.12 163.64 1213.08 162.36C1212.04 161 1211.64 159.44 1211.88 157.68C1209.88 157.6 1207.8 158.12 1205.64 159.24C1203.56 160.36 1201.6 161.92 1199.76 163.92C1197.92 165.84 1196.28 168.12 1194.84 170.76L1194.96 200.28C1194.96 201.88 1194.92 203.32 1194.84 204.6C1194.84 205.8 1194.72 207.08 1194.48 208.44C1195.76 208.36 1197 208.32 1198.2 208.32C1199.48 208.24 1200.76 208.16 1202.04 208.08V213H1177.44V209.4Z" fill="white"/>
<path d="M1286.07 214.92C1280.95 214.92 1276.59 214.08 1272.99 212.4C1269.39 210.64 1266.63 208.48 1264.71 205.92C1262.79 203.36 1261.83 200.92 1261.83 198.6C1261.83 196.76 1262.31 195.24 1263.27 194.04C1264.23 192.76 1265.59 192.08 1267.35 192C1268.79 191.92 1269.91 192.2 1270.71 192.84C1271.59 193.4 1272.19 194.12 1272.51 195C1272.83 195.88 1272.99 196.68 1272.99 197.4C1272.99 198.2 1272.87 199 1272.63 199.8C1272.39 200.6 1272.07 201.36 1271.67 202.08C1271.99 204 1272.99 205.6 1274.67 206.88C1276.35 208.08 1278.27 208.96 1280.43 209.52C1282.67 210.08 1284.71 210.32 1286.55 210.24C1290.47 210.08 1293.63 209.04 1296.03 207.12C1298.43 205.12 1300.19 202.6 1301.31 199.56C1302.51 196.52 1303.11 193.32 1303.11 189.96C1303.11 187.72 1302.91 185.24 1302.51 182.52C1302.19 179.8 1301.39 177.24 1300.11 174.84C1298.91 172.36 1297.07 170.32 1294.59 168.72C1292.11 167.12 1288.75 166.32 1284.51 166.32C1283.15 166.32 1281.47 166.48 1279.47 166.8C1277.55 167.12 1275.59 167.6 1273.59 168.24C1271.67 168.88 1270.03 169.64 1268.67 170.52L1265.31 167.4L1265.07 129H1296.15C1300.71 129 1303.83 128.4 1305.51 127.2C1307.27 125.92 1308.15 123.92 1308.15 121.2H1311.39L1310.67 137.04L1270.59 137.88V164.28C1272.51 163.48 1274.99 162.72 1278.03 162C1281.15 161.28 1284.47 160.92 1287.99 160.92C1292.95 160.92 1297.15 161.72 1300.59 163.32C1304.11 164.84 1306.95 166.92 1309.11 169.56C1311.35 172.12 1312.99 175 1314.03 178.2C1315.07 181.32 1315.59 184.52 1315.59 187.8C1315.59 193.72 1314.19 198.72 1311.39 202.8C1308.67 206.8 1305.07 209.84 1300.59 211.92C1296.11 213.92 1291.27 214.92 1286.07 214.92Z" fill="white"/>
<path d="M1358.3 214.92C1352.22 214.92 1347.18 213.64 1343.18 211.08C1339.18 208.44 1336.06 205 1333.82 200.76C1331.58 196.44 1329.98 191.72 1329.02 186.6C1328.14 181.48 1327.7 176.4 1327.7 171.36C1327.7 166.32 1328.26 161.2 1329.38 156C1330.58 150.8 1332.42 146.04 1334.9 141.72C1337.38 137.32 1340.58 133.8 1344.5 131.16C1348.42 128.44 1353.18 127.08 1358.78 127.08C1364.62 127.08 1369.46 128.4 1373.3 131.04C1377.22 133.68 1380.3 137.16 1382.54 141.48C1384.86 145.72 1386.5 150.4 1387.46 155.52C1388.42 160.64 1388.9 165.72 1388.9 170.76C1388.9 175.72 1388.34 180.8 1387.22 186C1386.1 191.2 1384.34 196 1381.94 200.4C1379.54 204.72 1376.38 208.24 1372.46 210.96C1368.62 213.6 1363.9 214.92 1358.3 214.92ZM1359.02 210.24C1362.46 210.24 1365.3 209.16 1367.54 207C1369.78 204.84 1371.54 201.96 1372.82 198.36C1374.18 194.76 1375.14 190.8 1375.7 186.48C1376.26 182.08 1376.54 177.68 1376.54 173.28C1376.54 168.4 1376.26 163.52 1375.7 158.64C1375.14 153.76 1374.18 149.28 1372.82 145.2C1371.46 141.12 1369.62 137.84 1367.3 135.36C1364.98 132.88 1362.06 131.64 1358.54 131.64C1355.1 131.64 1352.18 132.72 1349.78 134.88C1347.46 137.04 1345.58 139.92 1344.14 143.52C1342.7 147.12 1341.66 151.12 1341.02 155.52C1340.38 159.92 1340.06 164.36 1340.06 168.84C1340.06 172.2 1340.22 175.76 1340.54 179.52C1340.86 183.28 1341.42 187 1342.22 190.68C1343.1 194.28 1344.26 197.56 1345.7 200.52C1347.14 203.48 1348.94 205.84 1351.1 207.6C1353.26 209.36 1355.9 210.24 1359.02 210.24Z" fill="white"/>
<path d="M1448.92 214.92C1442.2 214.92 1436.24 213.56 1431.04 210.84C1425.92 208.12 1421.72 204.36 1418.44 199.56C1415.16 194.76 1412.88 189.28 1411.6 183.12L1399.72 183.24L1401.4 176.04H1410.76C1410.68 174.36 1410.64 172.64 1410.64 170.88C1410.64 169.12 1410.72 167.4 1410.88 165.72H1399.72L1401.4 158.52H1412.32C1413.84 152.84 1416.24 147.64 1419.52 142.92C1422.8 138.12 1426.96 134.28 1432 131.4C1437.12 128.52 1443.04 127.08 1449.76 127.08C1454.08 127.08 1458 127.64 1461.52 128.76C1465.12 129.88 1468.64 131.6 1472.08 133.92L1472.2 128.04H1478.68L1476.28 152.28H1471.96C1471.4 148.44 1470.32 145 1468.72 141.96C1467.12 138.92 1464.84 136.52 1461.88 134.76C1459 133 1455.24 132.12 1450.6 132.12C1446.28 132.12 1442.2 133.16 1438.36 135.24C1434.6 137.24 1431.36 140.2 1428.64 144.12C1425.92 148.04 1423.96 152.84 1422.76 158.52L1463.08 158.76L1459.84 165.48L1421.8 165.6C1421.72 167.28 1421.68 169.04 1421.68 170.88C1421.68 172.72 1421.72 174.48 1421.8 176.16L1454.92 176.28L1451.56 183L1423 183.12C1424.92 190.88 1428.48 197.04 1433.68 201.6C1438.88 206.08 1445 208.32 1452.04 208.32C1457.24 208.32 1462.16 207.24 1466.8 205.08C1471.44 202.84 1475.36 199.48 1478.56 195L1481.68 197.52C1478.24 202.24 1474.6 205.88 1470.76 208.44C1467 210.92 1463.24 212.6 1459.48 213.48C1455.72 214.44 1452.2 214.92 1448.92 214.92Z" fill="white"/>
<path d="M1501.33 214.92C1499.49 214.92 1497.85 214.2 1496.41 212.76C1495.05 211.24 1494.37 209.4 1494.37 207.24C1494.37 205.08 1495.09 203.24 1496.53 201.72C1497.97 200.2 1499.61 199.44 1501.45 199.44C1503.45 199.44 1505.09 200.2 1506.37 201.72C1507.73 203.24 1508.41 205.08 1508.41 207.24C1508.41 209.4 1507.69 211.24 1506.25 212.76C1504.81 214.2 1503.17 214.92 1501.33 214.92Z" fill="white"/>
<path d="M-49.1343 380V376.04C-46.0943 375.88 -44.0143 375.2 -42.8943 374C-41.7743 372.72 -41.1743 371 -41.0943 368.84C-40.9343 366.6 -40.8543 364.08 -40.8543 361.28V309.44C-40.8543 307.84 -40.8143 306.32 -40.7343 304.88C-40.6543 303.36 -40.5743 302 -40.4943 300.8C-41.9343 300.88 -43.3743 300.96 -44.8143 301.04C-46.2543 301.12 -47.6943 301.2 -49.1343 301.28V296H-22.1343V299.96C-25.0943 300.04 -27.1743 300.72 -28.3743 302C-29.4943 303.28 -30.1343 305 -30.2943 307.16C-30.3743 309.32 -30.4143 311.84 -30.4143 314.72V334.64H12.5457V309.44C12.5457 307.84 12.5857 306.32 12.6657 304.88C12.7457 303.36 12.8257 302 12.9057 300.8C11.4657 300.88 10.0257 300.96 8.58572 301.04C7.14572 301.12 5.70572 301.2 4.26572 301.28V296H31.2657V299.96C28.3057 300.04 26.2257 300.72 25.0257 302C23.9057 303.28 23.2657 305 23.1057 307.16C23.0257 309.32 22.9857 311.84 22.9857 314.72V365.72C22.9857 367.88 22.9457 369.76 22.8657 371.36C22.8657 372.88 22.7857 374.16 22.6257 375.2C24.0657 375.12 25.5057 375.04 26.9457 374.96C28.3857 374.88 29.8257 374.8 31.2657 374.72V380H4.26572V376.04C7.30573 375.88 9.38573 375.2 10.5057 374C11.6257 372.72 12.2257 371 12.3057 368.84C12.4657 366.6 12.5457 364.08 12.5457 361.28V339.44L-30.4143 339.92V365.72C-30.4143 367.88 -30.4543 369.76 -30.5343 371.36C-30.5343 372.88 -30.6143 374.16 -30.7743 375.2C-29.3343 375.12 -27.8943 375.04 -26.4543 374.96C-25.0143 374.88 -23.5743 374.8 -22.1343 374.72V380H-49.1343Z" fill="white"/>
<path d="M70.2432 381.92C64.6432 381.92 59.5632 380.64 55.0032 378.08C50.4432 375.44 46.8032 371.84 44.0832 367.28C41.4432 362.64 40.1232 357.36 40.1232 351.44C40.1232 345.12 41.4432 339.44 44.0832 334.4C46.7232 329.36 50.3232 325.4 54.8832 322.52C59.4432 319.56 64.5632 318.08 70.2432 318.08C75.8432 318.08 80.9232 319.44 85.4832 322.16C90.0432 324.8 93.6832 328.4 96.4032 332.96C99.1232 337.52 100.483 342.72 100.483 348.56C100.483 354.72 99.1232 360.36 96.4032 365.48C93.7632 370.52 90.1632 374.52 85.6032 377.48C81.0432 380.44 75.9232 381.92 70.2432 381.92ZM71.2032 377.12C75.4432 377.12 78.8032 375.92 81.2832 373.52C83.7632 371.12 85.5232 368 86.5632 364.16C87.6832 360.32 88.2432 356.28 88.2432 352.04C88.2432 348.44 87.8832 344.92 87.1632 341.48C86.5232 337.96 85.4832 334.8 84.0432 332C82.6032 329.12 80.7232 326.84 78.4032 325.16C76.1632 323.48 73.4432 322.64 70.2432 322.64C66.0832 322.64 62.6832 323.84 60.0432 326.24C57.4032 328.64 55.4432 331.76 54.1632 335.6C52.9632 339.44 52.3632 343.56 52.3632 347.96C52.3632 352.92 53.0432 357.64 54.4032 362.12C55.7632 366.52 57.8432 370.12 60.6432 372.92C63.4432 375.72 66.9632 377.12 71.2032 377.12Z" fill="white"/>
<path d="M110.679 380V376.4C113.159 376.4 114.879 375.8 115.839 374.6C116.799 373.32 117.359 371.6 117.519 369.44C117.679 367.2 117.759 364.64 117.759 361.76V334.4C117.759 333.12 117.759 331.84 117.759 330.56C117.839 329.28 117.999 327.96 118.239 326.6C116.799 326.68 115.359 326.76 113.919 326.84C112.559 326.92 111.159 327 109.719 327.08V322.04C113.239 322.04 115.879 321.88 117.639 321.56C119.479 321.24 120.839 320.84 121.719 320.36C122.599 319.88 123.319 319.36 123.879 318.8H127.359C127.519 319.6 127.599 320.52 127.599 321.56C127.679 322.6 127.759 323.8 127.839 325.16C130.239 323.08 132.999 321.4 136.119 320.12C139.239 318.76 142.359 318.08 145.479 318.08C149.479 318.08 152.839 318.8 155.559 320.24C158.279 321.68 160.399 323.64 161.919 326.12C164.639 323.88 167.759 322 171.279 320.48C174.879 318.88 178.399 318.08 181.839 318.08C188.799 318.08 193.919 320.2 197.199 324.44C200.479 328.6 202.039 335.44 201.879 344.96L201.759 367.28C201.759 368.88 201.719 370.32 201.639 371.6C201.639 372.8 201.519 374.08 201.279 375.44C202.559 375.36 203.799 375.32 204.999 375.32C206.279 375.24 207.559 375.16 208.839 375.08V380H184.359V376.4C186.839 376.4 188.559 375.8 189.519 374.6C190.479 373.32 191.039 371.6 191.199 369.44C191.359 367.2 191.439 364.64 191.439 361.76V344.96C191.439 338.08 190.319 332.92 188.079 329.48C185.919 326.04 182.479 324.36 177.759 324.44C175.279 324.44 172.799 325 170.319 326.12C167.839 327.24 165.679 328.64 163.839 330.32C164.239 331.6 164.519 333 164.679 334.52C164.919 335.96 165.039 337.48 165.039 339.08C164.959 343.72 164.919 348.4 164.919 353.12C164.919 357.84 164.879 362.56 164.799 367.28C164.799 368.88 164.759 370.32 164.679 371.6C164.679 372.8 164.559 374.08 164.319 375.44C165.599 375.36 166.839 375.32 168.039 375.32C169.319 375.24 170.599 375.16 171.879 375.08V380H147.399V376.4C149.879 376.4 151.559 375.8 152.439 374.6C153.399 373.32 153.959 371.6 154.119 369.44C154.359 367.2 154.479 364.64 154.479 361.76L154.599 344.96C154.679 338.08 153.679 332.88 151.599 329.36C149.519 325.84 146.119 324.12 141.399 324.2C138.919 324.2 136.479 324.76 134.079 325.88C131.679 326.92 129.639 328.28 127.959 329.96C127.959 330.92 127.959 331.96 127.959 333.08C128.039 334.12 128.079 335.24 128.079 336.44V367.28C128.079 368.88 128.039 370.32 127.959 371.6C127.959 372.8 127.839 374.08 127.599 375.44C128.879 375.36 130.119 375.32 131.319 375.32C132.599 375.24 133.879 375.16 135.159 375.08V380H110.679Z" fill="white"/>
<path d="M246.945 381.92C241.425 381.92 236.425 380.64 231.945 378.08C227.545 375.44 224.065 371.76 221.505 367.04C218.945 362.24 217.665 356.6 217.665 350.12C217.665 344.52 218.905 339.28 221.385 334.4C223.945 329.52 227.505 325.6 232.065 322.64C236.625 319.6 241.905 318.08 247.905 318.08C251.265 318.08 254.385 318.64 257.265 319.76C260.225 320.8 262.825 322.44 265.065 324.68C267.305 326.84 269.065 329.6 270.345 332.96C271.625 336.24 272.265 340.12 272.265 344.6L230.025 345.32C230.025 351.4 230.665 356.76 231.945 361.4C233.305 365.96 235.465 369.52 238.425 372.08C241.385 374.56 245.185 375.8 249.825 375.8C252.305 375.8 254.825 375.36 257.385 374.48C260.025 373.6 262.465 372.4 264.705 370.88C266.945 369.36 268.745 367.68 270.105 365.84L272.985 368.24C270.825 371.6 268.225 374.28 265.185 376.28C262.145 378.28 259.025 379.72 255.825 380.6C252.625 381.48 249.665 381.92 246.945 381.92ZM230.385 340.28H260.985C260.985 337.4 260.545 334.64 259.665 332C258.865 329.28 257.505 327.08 255.585 325.4C253.665 323.64 251.145 322.76 248.025 322.76C243.385 322.76 239.505 324.16 236.385 326.96C233.345 329.68 231.345 334.12 230.385 340.28Z" fill="white"/>
<path d="M340.148 381.92C335.268 381.92 330.868 380.72 326.948 378.32C323.028 375.84 319.908 372.32 317.588 367.76C315.348 363.2 314.228 357.84 314.228 351.68C314.228 345.12 315.548 339.32 318.188 334.28C320.828 329.24 324.468 325.28 329.108 322.4C333.828 319.52 339.148 318.08 345.068 318.08C347.708 318.08 350.308 318.44 352.868 319.16C355.508 319.8 357.588 320.56 359.108 321.44V305C359.108 303.72 359.108 302.52 359.108 301.4C359.188 300.2 359.308 298.8 359.468 297.2C358.028 297.28 356.588 297.36 355.148 297.44C353.788 297.52 352.388 297.6 350.948 297.68V292.64C354.468 292.64 357.188 292.48 359.108 292.16C361.028 291.84 362.468 291.44 363.428 290.96C364.468 290.48 365.268 289.96 365.828 289.4H369.308V367.28C369.308 368.56 369.268 369.84 369.188 371.12C369.108 372.4 368.988 373.84 368.828 375.44C370.268 375.36 371.668 375.28 373.028 375.2C374.468 375.12 375.908 375.04 377.348 374.96V380H360.188C359.948 378.8 359.748 377.72 359.588 376.76C359.508 375.72 359.428 374.72 359.348 373.76C357.108 376.24 354.348 378.24 351.068 379.76C347.788 381.2 344.148 381.92 340.148 381.92ZM344.468 376.04C347.108 376.04 349.748 375.28 352.388 373.76C355.108 372.24 357.348 370.36 359.108 368.12C359.028 367.16 358.988 366.16 358.988 365.12C358.988 364 358.988 362.8 358.988 361.52L359.108 326.96C357.188 325.52 355.068 324.48 352.748 323.84C350.508 323.12 348.188 322.76 345.788 322.76C341.788 322.76 338.308 323.92 335.348 326.24C332.388 328.56 330.148 331.8 328.628 335.96C327.108 340.12 326.428 345 326.588 350.6C326.748 355.48 327.508 359.84 328.868 363.68C330.308 367.52 332.308 370.56 334.868 372.8C337.508 374.96 340.708 376.04 344.468 376.04Z" fill="white"/>
<path d="M415.226 381.92C409.706 381.92 404.706 380.64 400.226 378.08C395.826 375.44 392.346 371.76 389.786 367.04C387.226 362.24 385.946 356.6 385.946 350.12C385.946 344.52 387.186 339.28 389.666 334.4C392.226 329.52 395.786 325.6 400.346 322.64C404.906 319.6 410.186 318.08 416.186 318.08C419.546 318.08 422.666 318.64 425.546 319.76C428.506 320.8 431.106 322.44 433.346 324.68C435.586 326.84 437.346 329.6 438.626 332.96C439.906 336.24 440.546 340.12 440.546 344.6L398.306 345.32C398.306 351.4 398.946 356.76 400.226 361.4C401.586 365.96 403.746 369.52 406.706 372.08C409.666 374.56 413.466 375.8 418.106 375.8C420.586 375.8 423.106 375.36 425.666 374.48C428.306 373.6 430.746 372.4 432.986 370.88C435.226 369.36 437.026 367.68 438.386 365.84L441.266 368.24C439.106 371.6 436.506 374.28 433.466 376.28C430.426 378.28 427.306 379.72 424.106 380.6C420.906 381.48 417.946 381.92 415.226 381.92ZM398.666 340.28H429.266C429.266 337.4 428.826 334.64 427.946 332C427.146 329.28 425.786 327.08 423.866 325.4C421.946 323.64 419.426 322.76 416.306 322.76C411.666 322.76 407.786 324.16 404.666 326.96C401.626 329.68 399.626 334.12 398.666 340.28Z" fill="white"/>
<path d="M450.025 376.4C452.505 376.4 454.225 375.8 455.185 374.6C456.145 373.32 456.705 371.6 456.865 369.44C457.025 367.2 457.105 364.64 457.105 361.76V305C457.105 303.72 457.105 302.52 457.105 301.4C457.185 300.2 457.305 298.8 457.465 297.2C456.025 297.28 454.585 297.36 453.145 297.44C451.785 297.52 450.385 297.6 448.945 297.68V292.64C452.465 292.64 455.185 292.48 457.105 292.16C459.105 291.84 460.585 291.44 461.545 290.96C462.585 290.48 463.385 289.96 463.945 289.4H467.425L467.545 367.28C467.545 368.88 467.505 370.32 467.425 371.6C467.345 372.8 467.185 374.08 466.945 375.44C468.225 375.36 469.465 375.32 470.665 375.32C471.945 375.24 473.225 375.16 474.505 375.08V380H450.025V376.4Z" fill="white"/>
<path d="M483.921 376.4C486.401 376.4 488.121 375.8 489.081 374.6C490.041 373.32 490.601 371.6 490.761 369.44C490.921 367.2 491.001 364.64 491.001 361.76V334.4C491.001 333.12 491.041 331.92 491.121 330.8C491.201 329.6 491.321 328.2 491.481 326.6C490.041 326.68 488.601 326.76 487.161 326.84C485.801 326.92 484.401 327 482.961 327.08V322.04C486.481 322.04 489.201 321.88 491.121 321.56C493.041 321.24 494.481 320.84 495.441 320.36C496.481 319.88 497.281 319.36 497.841 318.8H501.321V367.28C501.321 368.88 501.281 370.32 501.201 371.6C501.201 372.8 501.081 374.08 500.841 375.44C502.121 375.36 503.361 375.32 504.561 375.32C505.841 375.24 507.121 375.16 508.401 375.08V380H483.921V376.4ZM495.561 306.92C493.881 306.92 492.401 306.24 491.121 304.88C489.841 303.52 489.201 301.84 489.201 299.84C489.201 297.84 489.841 296.16 491.121 294.8C492.481 293.36 494.001 292.64 495.681 292.64C497.521 292.64 499.041 293.36 500.241 294.8C501.521 296.16 502.161 297.84 502.161 299.84C502.161 301.84 501.481 303.52 500.121 304.88C498.841 306.24 497.321 306.92 495.561 306.92Z" fill="white"/>
<path d="M540.471 380.36L523.311 341.24C522.031 338.2 521.031 335.6 520.311 333.44C519.591 331.28 519.071 329.48 518.751 328.04C518.511 326.6 518.351 325.44 518.271 324.56L513.111 324.92V320H535.191V323.6C532.791 323.6 531.231 324.24 530.511 325.52C529.871 326.72 529.791 328.36 530.271 330.44C530.751 332.44 531.471 334.6 532.431 336.92L541.671 358.04C542.311 359.4 542.911 360.84 543.471 362.36C544.111 363.8 544.711 365.32 545.271 366.92H545.391C545.791 365.72 546.231 364.44 546.711 363.08C547.271 361.72 547.751 360.4 548.151 359.12L557.751 332.84C558.391 330.92 559.071 329.24 559.791 327.8C560.511 326.36 561.031 325.28 561.351 324.56L553.671 324.92V320H572.631V323.6C570.871 323.6 569.391 324.2 568.191 325.4C566.991 326.6 565.831 328.4 564.711 330.8C563.671 333.2 562.431 336.2 560.991 339.8L545.271 380.36H540.471Z" fill="white"/>
<path d="M606.711 381.92C601.191 381.92 596.191 380.64 591.711 378.08C587.311 375.44 583.831 371.76 581.271 367.04C578.711 362.24 577.431 356.6 577.431 350.12C577.431 344.52 578.671 339.28 581.151 334.4C583.711 329.52 587.271 325.6 591.831 322.64C596.391 319.6 601.671 318.08 607.671 318.08C611.031 318.08 614.151 318.64 617.031 319.76C619.991 320.8 622.591 322.44 624.831 324.68C627.071 326.84 628.831 329.6 630.111 332.96C631.391 336.24 632.031 340.12 632.031 344.6L589.791 345.32C589.791 351.4 590.431 356.76 591.711 361.4C593.071 365.96 595.231 369.52 598.191 372.08C601.151 374.56 604.951 375.8 609.591 375.8C612.071 375.8 614.591 375.36 617.151 374.48C619.791 373.6 622.231 372.4 624.471 370.88C626.711 369.36 628.511 367.68 629.871 365.84L632.751 368.24C630.591 371.6 627.991 374.28 624.951 376.28C621.911 378.28 618.791 379.72 615.591 380.6C612.391 381.48 609.431 381.92 606.711 381.92ZM590.151 340.28H620.751C620.751 337.4 620.311 334.64 619.431 332C618.631 329.28 617.271 327.08 615.351 325.4C613.431 323.64 610.911 322.76 607.791 322.76C603.151 322.76 599.271 324.16 596.151 326.96C593.111 329.68 591.111 334.12 590.151 340.28Z" fill="white"/>
<path d="M642.71 376.4C645.19 376.4 646.91 375.8 647.87 374.6C648.83 373.32 649.39 371.6 649.55 369.44C649.71 367.2 649.79 364.64 649.79 361.76V334.4C649.79 333.12 649.79 331.84 649.79 330.56C649.87 329.28 650.03 327.96 650.27 326.6C648.83 326.68 647.39 326.76 645.95 326.84C644.59 326.84 643.19 326.88 641.75 326.96V322.04H645.47C648.91 322.04 651.27 321.72 652.55 321.08C653.91 320.36 655.03 319.6 655.91 318.8H659.39C659.55 320.08 659.67 321.68 659.75 323.6C659.83 325.44 659.91 327.8 659.99 330.68C661.19 328.68 662.83 326.72 664.91 324.8C666.99 322.88 669.31 321.28 671.87 320C674.51 318.72 677.27 318.08 680.15 318.08C682.39 318.08 684.35 318.68 686.03 319.88C687.71 321.08 688.55 323 688.55 325.64C688.55 326.28 688.35 327.08 687.95 328.04C687.55 328.92 686.91 329.72 686.03 330.44C685.15 331.08 683.99 331.4 682.55 331.4C680.79 331.32 679.39 330.64 678.35 329.36C677.31 328 676.91 326.44 677.15 324.68C675.15 324.6 673.07 325.12 670.91 326.24C668.83 327.36 666.87 328.92 665.03 330.92C663.19 332.84 661.55 335.12 660.11 337.76L660.23 367.28C660.23 368.88 660.19 370.32 660.11 371.6C660.11 372.8 659.99 374.08 659.75 375.44C661.03 375.36 662.27 375.32 663.47 375.32C664.75 375.24 666.03 375.16 667.31 375.08V380H642.71V376.4Z" fill="white"/>
<path d="M705.856 412.52C703.376 412.52 701.256 411.92 699.496 410.72C697.736 409.52 696.856 407.68 696.856 405.2C696.856 403.76 697.336 402.44 698.296 401.24C699.256 400.04 700.496 399.44 702.016 399.44C703.936 399.36 705.216 399.96 705.856 401.24C706.576 402.52 706.936 403.64 706.936 404.6C706.936 404.84 706.936 405.08 706.936 405.32C706.936 405.64 706.896 405.96 706.816 406.28C707.056 406.44 707.496 406.52 708.136 406.52C709.096 406.52 710.136 406.12 711.256 405.32C712.376 404.52 713.376 403.36 714.256 401.84C715.296 400.08 716.496 397.44 717.856 393.92C719.296 390.4 720.896 386.2 722.656 381.32L703.936 341.24C701.856 336.76 700.336 333.2 699.376 330.56C698.496 327.92 697.896 325.96 697.576 324.68L691.816 324.92V320H716.656V323.6H716.176C712.816 323.84 710.976 325.12 710.656 327.44C710.336 329.68 711.256 333.12 713.416 337.76L727.456 367.88C729.296 362.76 731.056 357.72 732.736 352.76C734.416 347.72 736.096 342.72 737.776 337.76C738.416 336 739.056 334.2 739.696 332.36C740.416 330.44 741.096 328.76 741.736 327.32C742.456 325.8 743.096 324.84 743.656 324.44L735.376 324.92V320H754.216V323.6C751.256 324.72 749.016 326.6 747.496 329.24C746.056 331.8 744.576 335.12 743.056 339.2L728.056 381.08C725.656 387.8 723.456 393.48 721.456 398.12C719.456 402.84 717.256 406.4 714.856 408.8C712.456 411.28 709.456 412.52 705.856 412.52Z" fill="white"/>
</g>
<defs>
<clipPath id="clip0_936_1545">
<path d="M0 7.99999C0 3.58171 3.58172 0 8 0H1020C1024.42 0 1028 3.58172 1028 8V498C1028 502.418 1024.42 506 1020 506H8C3.58172 506 0 502.418 0 498V7.99999Z" fill="white"/>
</clipPath>
</defs>
</svg>
