<svg width="617" height="347" viewBox="0 0 617 347" fill="none" xmlns="http://www.w3.org/2000/svg">
<g clip-path="url(#clip0)">
<g filter="url(#filter0_dddddd)">
<rect y="-0.000244141" width="617" height="347" rx="4" fill="#F2FFFC"/>
</g>
<g clip-path="url(#clip1)">
<path d="M180 138C157.5 138 147 152 147 152H196.927C198.739 152 200.325 150.059 200.792 148.526L204 138H180Z" fill="#5EECD7"/>
<path d="M204 138L207.208 125.969C207.675 124.218 209.266 122.973 211.07 123.154C226.832 124.738 237 138 237 138H204Z" fill="#5EECD7"/>
<path d="M246 172C246 172 237 157 212 157H203.073C201.261 157 199.675 158.218 199.208 159.969L196 172H246Z" fill="#12ACB3"/>
<path d="M146 172C146 172 156.5 187 176 187H188.927C190.739 187 192.325 185.781 192.792 184.03L196 172H146Z" fill="#12ACB3"/>
<path d="M216 208C234 208 245 192 245 192H195.123C193.288 192 191.688 193.249 191.243 195.029L188 208H216Z" fill="#025570"/>
<path d="M188 208L184.792 220.03C184.325 221.781 182.733 223.026 180.929 222.853C164.757 221.304 155 208 155 208H188Z" fill="#025570"/>
<path d="M439 152L415.5 207C411.695 216.581 404.724 223 394 223C388.765 223 383.961 221.509 380 218L384.291 210.198C384.91 209.072 386.415 208.83 387.518 209.487C393.29 212.926 399.949 210.412 402.508 204.002L380 152H393.292C394.927 152 396.398 152.995 397.006 154.514L410 187L423.961 154.424C424.591 152.953 426.037 152 427.638 152H439Z" fill="#24282B"/>
<path d="M294.462 208C286.139 208 275.876 204.07 271.084 200.745L273.33 191.756C273.546 190.891 274.787 190.668 275.426 191.29C279.824 195.57 288.859 197.23 294.247 197.23C297.404 197.23 299.843 196.8 301.565 195.938C303.287 195.077 304.148 193.892 304.148 192.384C304.148 191.164 303.323 190.123 301.673 189.261C300.094 188.4 297.332 187.574 293.386 186.784C285.135 185.133 279.323 182.979 275.951 180.323C272.65 177.595 271 173.933 271 169.338C271 166.323 271.933 163.487 273.798 160.83C275.664 158.174 278.426 156.056 282.085 154.477C285.744 152.825 290.121 152 295.215 152C301.858 152 312.836 155.618 318.099 159.935L315.697 169.916C315.512 170.687 314.539 170.945 313.973 170.39C306.72 163.275 301.436 162.769 295.43 162.769C292.489 162.769 290.121 163.271 288.327 164.277C286.605 165.282 285.744 166.502 285.744 167.938C285.744 169.446 286.605 170.702 288.327 171.707C290.049 172.712 293.099 173.646 297.475 174.507C305.296 176.087 310.821 178.169 314.049 180.753C317.35 183.266 319 186.784 319 191.307C319 196.333 316.848 200.389 312.543 203.477C308.309 206.492 302.283 208 294.462 208Z" fill="#24282B"/>
<path d="M378.222 197.984C379.07 197.984 379.83 197.942 380.501 197.856C381.217 197.765 381.9 198.357 381.811 199.073L380.889 206.492C378.815 207.497 376.407 208 373.667 208C366.556 208 362.296 205.307 360.889 199.923C359.259 202.579 356.741 204.589 353.333 205.953C349.926 207.318 345.889 208 341.222 208C335.815 208 331.593 206.815 328.556 204.446C325.519 202.077 324 198.666 324 194.215C324 185.456 331.222 179.784 345.667 177.2L359 174.723V172.138C359 169.266 358.148 167.005 356.444 165.353C354.815 163.63 352.519 162.769 349.556 162.769C346.148 162.769 343.37 163.487 341.222 164.923C340.168 165.628 339.274 166.549 338.541 167.686C337.222 169.731 334.764 171.099 332.512 170.178L324.667 166.969C325.852 162.302 328.519 158.641 332.667 155.984C336.815 153.328 342.222 152 348.889 152C356.815 152 363 153.687 367.444 157.061C371.889 160.364 374.111 165.282 374.111 171.815V193.892C374.111 195.328 374.444 196.369 375.111 197.015C375.778 197.661 376.815 197.984 378.222 197.984ZM346 197.984C349.259 197.984 352.222 197.23 354.889 195.723C357.63 194.143 359 192.025 359 189.369V183.769L347.111 186.353C344.593 186.928 342.704 187.718 341.444 188.723C340.259 189.656 339.667 190.984 339.667 192.707C339.667 194.43 340.222 195.759 341.333 196.692C342.444 197.553 344 197.984 346 197.984Z" fill="#24282B"/>
<path fill-rule="evenodd" clip-rule="evenodd" d="M465.381 201.441C462.699 200.388 459.674 199.199 459.5 190.017V152H452.5C452.5 152 455.013 148.66 459.5 144.941V123.017H449C446.791 123.017 445 124.808 445 127.017V192C445 197.584 446.158 201.665 448.473 204.242C450.859 206.748 454.878 208.017 460 208.017C463.188 208.017 469.524 208.001 469.524 208.001C469.524 203.069 467.566 202.3 465.381 201.441Z" fill="#24282B"/>
</g>
<path opacity="0.1" d="M575.667 7L489.5 208.667C475.548 243.797 449.987 267.333 410.667 267.333C391.471 267.333 373.856 261.869 359.333 249L375.067 220.393C377.337 216.266 382.854 215.377 386.9 217.787C408.063 230.397 432.478 221.18 441.863 197.677L359.333 7H408.07C414.067 7 419.461 10.6513 421.688 16.2196L469.333 135.333L520.524 15.8892C522.835 10.4965 528.137 7 534.004 7H575.667Z" fill="#23CCC4"/>
<path opacity="0.1" d="M45.6936 212.333C15.1777 212.333 -22.4548 197.924 -40.0248 185.731L-31.7902 152.772C-30.9978 149.6 -26.4492 148.785 -24.106 151.065C-7.9772 166.758 25.1486 172.846 44.9044 172.846C56.4799 172.846 65.4245 171.267 71.7384 168.108C78.0523 164.949 81.2093 160.605 81.2093 155.077C81.2093 150.602 78.1839 146.785 72.1331 143.626C66.3453 140.467 56.2168 137.439 41.7474 134.544C11.4933 128.489 -9.81613 120.591 -22.1808 110.851C-34.2825 100.848 -40.3333 87.4222 -40.3333 70.5744C-40.3333 59.518 -36.9133 49.1197 -30.0732 39.3795C-23.2332 29.6393 -13.1046 21.8735 0.312435 16.0821C13.7295 10.0273 29.7773 7 48.4559 7C72.8141 7 113.066 20.2656 132.361 36.0958L123.557 72.6924C122.877 75.521 119.311 76.4681 117.235 74.4307C90.6418 48.3421 71.2645 46.4872 49.2452 46.4872C38.4589 46.4872 29.7773 48.3299 23.2003 52.0154C16.8864 55.7009 13.7295 60.1761 13.7295 65.441C13.7295 70.9692 16.8864 75.5761 23.2003 79.2615C29.5142 82.947 40.6951 86.3692 56.7429 89.5282C85.4186 95.3197 105.676 102.954 117.514 112.431C129.616 121.644 135.667 134.544 135.667 151.128C135.667 169.556 127.774 184.429 111.99 195.749C96.4679 206.805 74.3692 212.333 45.6936 212.333Z" fill="#23CCC4"/>
<path opacity="0.1" d="M352.815 175.61C355.923 175.61 358.709 175.454 361.172 175.141C363.796 174.808 366.301 176.975 365.974 179.601L362.593 206.805C354.988 210.491 346.16 212.333 336.111 212.333C310.037 212.333 294.42 202.462 289.259 182.718C283.284 192.458 274.049 199.829 261.556 204.831C249.062 209.832 234.259 212.333 217.148 212.333C197.321 212.333 181.84 207.99 170.704 199.303C159.568 190.615 154 178.111 154 161.79C154 129.674 180.481 108.877 233.444 99.4L282.333 90.3179V80.841C282.333 70.3111 279.21 62.0188 272.963 55.9641C266.988 49.6462 258.568 46.4872 247.704 46.4872C235.21 46.4872 225.025 49.1197 217.148 54.3846C213.282 56.969 210.004 60.3464 207.316 64.5166C202.482 72.0149 193.468 77.031 185.211 73.6535L156.444 61.8872C160.79 44.7761 170.568 31.3504 185.778 21.6103C200.988 11.8701 220.815 7 245.259 7C274.321 7 297 13.1863 313.296 25.559C329.593 37.6684 337.741 55.7009 337.741 79.6564V160.605C337.741 165.87 338.963 169.687 341.407 172.056C343.852 174.426 347.654 175.61 352.815 175.61ZM234.667 175.61C246.617 175.61 257.481 172.846 267.259 167.318C277.309 161.527 282.333 153.761 282.333 144.021V123.487L238.741 132.964C229.506 135.07 222.58 137.966 217.963 141.651C213.617 145.074 211.444 149.944 211.444 156.262C211.444 162.579 213.481 167.45 217.556 170.872C221.63 174.031 227.333 175.61 234.667 175.61Z" fill="#23CCC4"/>
<path opacity="0.1" fill-rule="evenodd" clip-rule="evenodd" d="M672.397 188.287C662.564 184.423 651.471 180.064 650.833 146.396V7H625.167C625.167 7 634.382 -5.2457 650.833 -18.8817V-99.2706H612.333C604.233 -99.2706 597.667 -92.7041 597.667 -84.604V153.667C597.667 174.143 601.912 189.107 610.402 198.557C619.15 207.745 633.885 212.396 652.667 212.396C664.357 212.396 687.587 212.339 687.587 212.339C687.587 194.255 680.41 191.435 672.397 188.287Z" fill="#23CCC4"/>
</g>
<defs>
<filter id="filter0_dddddd" x="-80" y="-0.000244141" width="777" height="527" filterUnits="userSpaceOnUse" color-interpolation-filters="sRGB">
<feFlood flood-opacity="0" result="BackgroundImageFix"/>
<feColorMatrix in="SourceAlpha" type="matrix" values="0 0 0 0 0 0 0 0 0 0 0 0 0 0 0 0 0 0 127 0"/>
<feOffset dy="2.76726"/>
<feGaussianBlur stdDeviation="1.1069"/>
<feColorMatrix type="matrix" values="0 0 0 0 0 0 0 0 0 0 0 0 0 0 0 0 0 0 0.01 0"/>
<feBlend mode="normal" in2="BackgroundImageFix" result="effect1_dropShadow"/>
<feColorMatrix in="SourceAlpha" type="matrix" values="0 0 0 0 0 0 0 0 0 0 0 0 0 0 0 0 0 0 127 0"/>
<feOffset dy="6.6501"/>
<feGaussianBlur stdDeviation="2.66004"/>
<feColorMatrix type="matrix" values="0 0 0 0 0 0 0 0 0 0 0 0 0 0 0 0 0 0 0.0121168 0"/>
<feBlend mode="normal" in2="effect1_dropShadow" result="effect2_dropShadow"/>
<feColorMatrix in="SourceAlpha" type="matrix" values="0 0 0 0 0 0 0 0 0 0 0 0 0 0 0 0 0 0 127 0"/>
<feOffset dy="12.5216"/>
<feGaussianBlur stdDeviation="5.00862"/>
<feColorMatrix type="matrix" values="0 0 0 0 0 0 0 0 0 0 0 0 0 0 0 0 0 0 0.015 0"/>
<feBlend mode="normal" in2="effect2_dropShadow" result="effect3_dropShadow"/>
<feColorMatrix in="SourceAlpha" type="matrix" values="0 0 0 0 0 0 0 0 0 0 0 0 0 0 0 0 0 0 127 0"/>
<feOffset dy="22.3363"/>
<feGaussianBlur stdDeviation="8.93452"/>
<feColorMatrix type="matrix" values="0 0 0 0 0 0 0 0 0 0 0 0 0 0 0 0 0 0 0.0178832 0"/>
<feBlend mode="normal" in2="effect3_dropShadow" result="effect4_dropShadow"/>
<feColorMatrix in="SourceAlpha" type="matrix" values="0 0 0 0 0 0 0 0 0 0 0 0 0 0 0 0 0 0 127 0"/>
<feOffset dy="41.7776"/>
<feGaussianBlur stdDeviation="16.711"/>
<feColorMatrix type="matrix" values="0 0 0 0 0 0 0 0 0 0 0 0 0 0 0 0 0 0 0.0215656 0"/>
<feBlend mode="normal" in2="effect4_dropShadow" result="effect5_dropShadow"/>
<feColorMatrix in="SourceAlpha" type="matrix" values="0 0 0 0 0 0 0 0 0 0 0 0 0 0 0 0 0 0 127 0"/>
<feOffset dy="100"/>
<feGaussianBlur stdDeviation="40"/>
<feColorMatrix type="matrix" values="0 0 0 0 0 0 0 0 0 0 0 0 0 0 0 0 0 0 0.03 0"/>
<feBlend mode="normal" in2="effect5_dropShadow" result="effect6_dropShadow"/>
<feBlend mode="normal" in="SourceGraphic" in2="effect6_dropShadow" result="shape"/>
</filter>
<clipPath id="clip0">
<rect width="617" height="347" fill="white" transform="translate(0 -0.000244141)"/>
</clipPath>
<clipPath id="clip1">
<rect width="374" height="150" fill="white" transform="translate(121 97.9996)"/>
</clipPath>
</defs>
</svg>
