<svg width="1028" height="578" viewBox="0 0 1028 578" fill="none" xmlns="http://www.w3.org/2000/svg">
<g clip-path="url(#clip0)">
<path opacity="0.02" d="M499.801 343.72C499.801 361.121 513.907 375.227 531.307 375.227C548.708 375.227 562.814 361.121 562.814 343.72C562.814 326.319 548.708 312.213 531.307 312.213H499.801V343.72Z" fill="#FCFEFF"/>
<path opacity="0.05" d="M125.427 42.5533C125.427 18.4995 105.927 -1 81.8735 -1C57.8196 -1 38.3202 18.4995 38.3202 42.5533C38.3202 66.6071 57.8196 86.1066 81.8735 86.1066H125.427V42.5533Z" fill="white"/>
<line x1="1007.74" y1="339.123" x2="1090.09" y2="339.123" stroke="#1480AB" stroke-width="38.8851" stroke-linecap="round"/>
<line x1="1035.19" y1="339.123" x2="1090.09" y2="339.123" stroke="#002B38" stroke-width="38.8851" stroke-linecap="round"/>
<line x1="914.271" y1="205.002" x2="1062.95" y2="205.002" stroke="#E8AE2E" stroke-width="38.8851" stroke-linecap="round"/>
<line x1="860.955" y1="104.752" x2="1009.63" y2="104.752" stroke="#46C78C" stroke-width="38.8851" stroke-linecap="round"/>
<line x1="936.439" y1="104.752" x2="1165.17" y2="104.752" stroke="#BDFCEF" stroke-width="38.8851" stroke-linecap="round"/>
<line x1="19.4425" y1="-19.4425" x2="200.144" y2="-19.4425" transform="matrix(-1 8.74228e-08 8.74228e-08 1 1109.53 438.623)" stroke="#FCBDCA" stroke-width="38.8851" stroke-linecap="round"/>
<line x1="19.4425" y1="-19.4425" x2="101.787" y2="-19.4425" transform="matrix(-1 -8.74228e-08 -8.74228e-08 1 1011.17 438.623)" stroke="#F58AA0" stroke-width="38.8851" stroke-linecap="round"/>
<line x1="19.4425" y1="-19.4425" x2="74.3391" y2="-19.4425" transform="matrix(-1 8.74228e-08 8.74228e-08 1 983.724 438.623)" stroke="#DE3C58" stroke-width="38.8851" stroke-linecap="round"/>
<line x1="-18.8788" y1="391.732" x2="78.3339" y2="391.732" stroke="#BDFCEF" stroke-width="38.8851" stroke-linecap="round"/>
<g clip-path="url(#clip1)">
<rect x="142.146" y="238.256" width="102.876" height="34.3222" rx="17.1611" fill="#CC4B23"/>
<rect x="176.438" y="272.578" width="102.876" height="34.3222" rx="17.1611" fill="#4FB5E1"/>
<rect x="210.73" y="306.9" width="102.876" height="34.3222" rx="17.1611" fill="#E8AE2E"/>
<path d="M210.73 255.402C210.73 245.932 218.407 238.256 227.876 238.256C237.346 238.256 245.022 245.94 245.022 255.409C245.022 264.887 237.339 272.578 227.861 272.578H210.73V255.402Z" fill="#EC845E"/>
<path d="M210.73 324.069C210.73 314.591 218.414 306.9 227.892 306.9H245.022V324.076C245.022 333.546 237.346 341.222 227.876 341.222C218.407 341.222 210.73 333.538 210.73 324.069Z" fill="#F8D280"/>
<path d="M210.73 272.578H245.022V306.9H210.73V272.578Z" fill="#80CDF0"/>
<path d="M868.402 327.662C875.887 327.662 881.637 329.251 885.653 332.428C889.76 335.606 891.814 340.152 891.814 346.065C891.814 353.126 888.437 358.643 881.682 362.615C874.928 366.587 866.029 368.573 854.985 368.573C843.576 368.573 835.087 367.116 829.519 364.204C824.043 361.291 821.305 357.319 821.305 352.288C821.305 349.287 822.354 346.683 824.454 344.476C826.553 342.27 829.656 340.681 833.764 339.71C830.66 338.475 828.196 336.753 826.37 334.547C824.545 332.252 823.632 329.56 823.632 326.471C823.632 323.293 824.591 320.557 826.507 318.262C828.424 315.967 831.071 314.246 834.448 313.098C830.98 311.157 828.333 308.685 826.507 305.684C824.682 302.595 823.769 299.064 823.769 295.093C823.769 288.12 826.553 282.647 832.121 278.675C837.78 274.615 845.447 272.585 855.122 272.585C860.051 272.585 864.66 273.159 868.95 274.306C870.136 269.099 872.418 265.039 875.795 262.126C879.254 259.133 883.892 257.808 889.71 258.151C889.739 258.153 889.764 258.174 889.77 258.203L891.692 268.327C891.954 269.703 890.765 270.996 889.35 270.996C885.972 270.996 883.143 271.57 880.861 272.718C878.67 273.865 877.119 275.41 876.206 277.351C879.583 279.293 882.139 281.765 883.873 284.766C885.699 287.767 886.611 291.209 886.611 295.093C886.611 301.977 883.782 307.45 878.123 311.51C872.555 315.482 864.888 317.468 855.122 317.468C850.649 317.468 846.542 317.07 842.8 316.276C839.24 317.159 837.46 319.145 837.46 322.234C837.46 323.999 838.145 325.367 839.514 326.338C840.883 327.221 842.8 327.662 845.264 327.662H868.402ZM855.122 283.971C851.471 283.971 848.459 284.986 846.086 287.016C843.804 289.046 842.663 291.694 842.663 294.96C842.663 298.314 843.804 301.006 846.086 303.036C848.459 305.066 851.471 306.081 855.122 306.081C858.864 306.081 861.876 305.066 864.158 303.036C866.531 301.006 867.718 298.314 867.718 294.96C867.718 291.694 866.531 289.046 864.158 287.016C861.876 284.986 858.864 283.971 855.122 283.971ZM856.491 356.127C862.88 356.127 867.809 355.333 871.277 353.744C874.746 352.244 876.48 350.302 876.48 347.919C876.48 346.065 875.658 344.653 874.015 343.682C872.464 342.799 869.863 342.358 866.212 342.358H847.592C840.016 342.358 836.228 344.344 836.228 348.316C836.228 350.787 837.917 352.685 841.294 354.009C844.671 355.421 849.737 356.127 856.491 356.127Z" fill="white"/>
<path d="M809.061 328.945C809.15 328.945 809.238 328.945 809.325 328.944C811.378 328.926 813.367 330.667 813.122 332.664L812.296 339.374C809.78 340.606 806.86 341.222 803.535 341.222C794.909 341.222 789.743 337.922 788.035 331.322C786.059 334.578 783.004 337.042 778.87 338.714C774.737 340.386 769.84 341.222 764.179 341.222C757.62 341.222 752.498 339.77 748.814 336.866C745.13 333.962 743.288 329.782 743.288 324.325C743.288 313.588 752.049 306.636 769.57 303.468L785.744 300.432V297.263C785.744 293.743 784.711 290.971 782.644 288.947C780.667 286.835 777.882 285.779 774.288 285.779C770.155 285.779 766.785 286.659 764.179 288.419C763.826 288.658 763.487 288.916 763.164 289.196C759.529 292.331 754.743 295.327 750.281 293.483C746.718 292.011 744.63 288.115 746.573 284.84C748.307 281.918 750.716 279.458 753.801 277.462C758.833 274.206 765.392 272.578 773.479 272.578C783.093 272.578 790.596 274.646 795.988 278.782C801.379 282.831 804.074 288.859 804.074 296.867V323.929C804.074 325.689 804.479 326.965 805.287 327.757C806.096 328.549 807.354 328.945 809.061 328.945ZM769.975 328.945C773.928 328.945 777.523 328.021 780.757 326.173C784.082 324.237 785.744 321.641 785.744 318.385V311.52L771.323 314.689C768.268 315.393 765.976 316.361 764.449 317.593C763.011 318.737 762.292 320.365 762.292 322.477C762.292 324.589 762.966 326.217 764.314 327.361C765.662 328.417 767.549 328.945 769.975 328.945Z" fill="white"/>
<path d="M734.719 335.72C732.549 337.421 729.791 338.764 726.445 339.749C723.19 340.733 719.754 341.226 716.137 341.226C701.035 341.226 693.485 334.467 693.485 320.95V286.44H688.059C684.239 286.44 681.142 283.374 681.142 279.592C681.142 275.81 684.239 272.744 688.059 272.744H693.485V264.296C693.485 260.163 696.27 256.537 700.293 255.432C706.212 253.807 712.068 258.214 712.068 264.296V272.744H727.124C730.944 272.744 734.041 275.81 734.041 279.592C734.041 283.374 730.944 286.44 727.124 286.44H712.068V317.995C712.068 324.172 715.187 327.261 721.427 327.261C723.761 327.261 725.925 326.829 727.917 325.966C729.877 325.117 732.444 325.961 732.925 328.024L734.719 335.72Z" fill="white"/>
<path d="M670.322 340.886H651.704V274.564C651.704 273.715 652.666 273.185 653.443 273.545C658.103 275.703 664.162 275.747 668.491 273.678C669.29 273.296 670.322 273.833 670.322 274.711V340.886Z" fill="white"/>
<path d="M611.449 272.578C620.619 272.578 627.817 275.662 633.044 281.829C638.271 287.907 640.884 296.398 640.884 307.302C640.884 318.296 638.271 326.877 633.044 333.044C627.817 339.211 620.619 342.295 611.449 342.295C606.498 342.295 602.188 341.222 598.52 339.077C594.852 336.843 591.964 333.804 589.855 329.96V369.109H571.011V281.32C571.011 276.662 574.825 272.886 579.53 272.886C584.078 272.886 587.824 276.422 588.04 280.919L588.342 287.192C590.359 282.723 593.339 279.192 597.282 276.6C601.317 273.919 606.039 272.578 611.449 272.578ZM605.81 328.217C610.945 328.217 614.934 326.43 617.776 322.855C620.619 319.279 622.04 314.14 622.04 307.436C622.04 300.733 620.619 295.593 617.776 292.018C614.934 288.443 610.945 286.655 605.81 286.655C601.225 286.655 597.511 288.22 594.669 291.348C591.826 294.387 590.221 298.766 589.855 304.487V310.386C590.221 316.017 591.826 320.397 594.669 323.525C597.511 326.653 601.225 328.217 605.81 328.217Z" fill="white"/>
<path d="M528.21 272.578C539.135 272.578 547.622 275.614 553.671 281.686C559.811 287.759 562.88 296.163 562.88 306.9C562.88 317.637 559.811 326.041 553.671 332.114C547.622 338.186 539.135 341.222 528.21 341.222C517.286 341.222 508.753 338.186 502.614 332.114C496.565 326.041 493.54 317.637 493.54 306.9C493.54 296.163 496.565 287.759 502.614 281.686C508.753 275.614 517.286 272.578 528.21 272.578ZM528.21 286.043C522.974 286.043 518.956 287.803 516.157 291.323C513.448 294.755 512.094 299.948 512.094 306.9C512.094 313.852 513.448 319.089 516.157 322.609C518.956 326.041 522.974 327.757 528.21 327.757C533.447 327.757 537.42 326.041 540.128 322.609C542.927 319.089 544.326 313.852 544.326 306.9C544.326 299.948 542.927 294.755 540.128 291.323C537.42 287.803 533.447 286.043 528.21 286.043Z" fill="white"/>
<path d="M461.09 272.653C468.388 272.653 474.244 274.749 478.659 278.941C483.164 283.133 485.416 289.154 485.416 297.003V340.886H466.901V302.354C466.901 292.186 462.892 287.102 454.873 287.102C450.549 287.102 446.855 288.619 443.791 291.651C440.818 294.684 439.331 299.322 439.331 305.565V340.886H420.816V253.856C420.816 248.794 424.961 244.691 430.074 244.691C435.187 244.691 439.331 248.794 439.331 253.856V285.363C441.404 281.082 444.287 277.916 447.981 275.864C451.765 273.723 456.135 272.653 461.09 272.653Z" fill="white"/>
<path d="M381.269 341.222C366.168 341.222 355.679 336.998 349.801 328.549L357.792 320.578C359.183 319.19 361.545 319.607 362.735 321.167C364.279 323.189 366.162 324.725 368.383 325.777C371.819 327.273 376.024 328.021 380.997 328.021C384.976 328.021 388.05 327.493 390.22 326.437C392.391 325.381 393.476 323.929 393.476 322.081C393.476 320.585 392.436 319.309 390.356 318.253C388.367 317.197 384.885 316.185 379.912 315.217C369.514 313.192 362.189 310.552 357.939 307.296C353.78 303.952 351.7 299.464 351.7 293.831C351.7 290.135 352.876 286.659 355.227 283.403C357.578 280.146 361.059 277.55 365.671 275.614C370.282 273.59 375.798 272.578 382.218 272.578C389.813 272.578 395.962 273.722 400.664 276.01C404.675 277.887 408.126 280.724 411.019 284.521C411.886 285.66 411.631 287.258 410.524 288.171L403.57 293.904C402.2 295.033 400.144 294.639 399.069 293.232C397.454 291.12 395.59 289.471 393.476 288.287C390.582 286.615 386.92 285.779 382.489 285.779C378.782 285.779 375.798 286.395 373.537 287.627C371.367 288.859 370.282 290.355 370.282 292.115C370.282 293.963 371.367 295.503 373.537 296.735C375.707 297.967 379.55 299.112 385.066 300.168C394.922 302.104 401.885 304.656 405.954 307.824C410.113 310.904 412.193 315.217 412.193 320.761C412.193 326.921 409.481 331.894 404.055 335.678C398.72 339.374 391.125 341.222 381.269 341.222Z" fill="white"/>
<path d="M670.412 255.417C670.412 260.452 666.289 264.534 661.203 264.534C656.117 264.534 651.994 260.452 651.994 255.417C651.994 250.382 656.117 246.3 661.203 246.3C666.289 246.3 670.412 250.382 670.412 255.417Z" fill="white"/>
</g>
</g>
<defs>
<clipPath id="clip0">
<rect width="1028" height="578" fill="white"/>
</clipPath>
<clipPath id="clip1">
<rect width="812.292" height="171.611" fill="white" transform="translate(107.854 203.934)"/>
</clipPath>
</defs>
</svg>
