<svg width="617" height="349" viewBox="0 0 617 349" fill="none" xmlns="http://www.w3.org/2000/svg">
<g clip-path="url(#clip0)">
<rect y="6.10352e-05" width="617" height="348.398" rx="4" fill="#0C2831"/>
<path opacity="0.02" d="M299.978 206.899C299.978 217.343 308.444 225.809 318.888 225.809C329.331 225.809 337.798 217.343 337.798 206.899C337.798 196.455 329.331 187.989 318.888 187.989H299.978V206.899Z" fill="#FCFEFF"/>
<path opacity="0.05" d="M75.2808 26.1405C75.2808 11.7035 63.5773 6.10352e-05 49.1403 6.10352e-05C34.7033 6.10352e-05 22.9999 11.7035 22.9999 26.1405C22.9999 40.5775 34.7033 52.281 49.1403 52.281H75.2808V26.1405Z" fill="white"/>
<line x1="604.841" y1="204.14" x2="654.264" y2="204.14" stroke="#1480AB" stroke-width="23.3386" stroke-linecap="round"/>
<line x1="621.315" y1="204.14" x2="654.264" y2="204.14" stroke="#002B38" stroke-width="23.3386" stroke-linecap="round"/>
<line x1="548.741" y1="123.64" x2="637.976" y2="123.64" stroke="#E8AE2E" stroke-width="23.3386" stroke-linecap="round"/>
<line x1="516.74" y1="63.4718" x2="605.976" y2="63.4718" stroke="#46C78C" stroke-width="23.3386" stroke-linecap="round"/>
<line x1="562.045" y1="63.4718" x2="699.331" y2="63.4718" stroke="#BDFCEF" stroke-width="23.3386" stroke-linecap="round"/>
<line x1="11.6693" y1="-11.6693" x2="120.125" y2="-11.6693" transform="matrix(-1 8.74228e-08 8.74228e-08 1 665.933 263.859)" stroke="#FCBDCA" stroke-width="23.3386" stroke-linecap="round"/>
<line x1="11.6693" y1="-11.6693" x2="61.0922" y2="-11.6693" transform="matrix(-1 -8.74228e-08 -8.74228e-08 1 606.9 263.859)" stroke="#F58AA0" stroke-width="23.3386" stroke-linecap="round"/>
<line x1="11.6693" y1="-11.6693" x2="44.6179" y2="-11.6693" transform="matrix(-1 8.74228e-08 8.74228e-08 1 590.426 263.859)" stroke="#DE3C58" stroke-width="23.3386" stroke-linecap="round"/>
<line x1="-11.3307" y1="235.715" x2="47.0158" y2="235.715" stroke="#BDFCEF" stroke-width="23.3386" stroke-linecap="round"/>
<g clip-path="url(#clip1)">
<rect x="85.3152" y="143.6" width="61.7456" height="20.6" rx="10.3" fill="#CC4B23"/>
<rect x="105.897" y="164.2" width="61.7456" height="20.6" rx="10.3" fill="#4FB5E1"/>
<rect x="126.479" y="184.8" width="61.7456" height="20.6" rx="10.3" fill="#E8AE2E"/>
<path d="M126.479 153.891C126.479 148.207 131.086 143.6 136.77 143.6C142.453 143.6 147.061 148.212 147.061 153.896C147.061 159.584 142.449 164.2 136.761 164.2H126.479V153.891Z" fill="#EC845E"/>
<path d="M126.479 195.105C126.479 189.416 131.09 184.8 136.779 184.8H147.061V195.109C147.061 200.793 142.453 205.4 136.77 205.4C131.086 205.4 126.479 200.788 126.479 195.105Z" fill="#F8D280"/>
<path d="M126.479 164.2H147.061V184.8H126.479V164.2Z" fill="#80CDF0"/>
<path d="M521.21 197.261C525.702 197.261 529.153 198.215 531.564 200.122C534.029 202.029 535.262 204.757 535.262 208.307C535.262 212.545 533.235 215.856 529.181 218.24C525.127 220.624 519.786 221.816 513.157 221.816C506.309 221.816 501.215 220.942 497.873 219.193C494.586 217.445 492.942 215.061 492.942 212.042C492.942 210.24 493.572 208.678 494.832 207.353C496.092 206.029 497.955 205.075 500.42 204.493C498.558 203.751 497.078 202.718 495.983 201.393C494.887 200.016 494.339 198.4 494.339 196.546C494.339 194.639 494.915 192.997 496.065 191.619C497.215 190.242 498.804 189.209 500.831 188.52C498.749 187.355 497.161 185.872 496.065 184.07C494.969 182.216 494.422 180.097 494.422 177.713C494.422 173.528 496.092 170.244 499.434 167.86C502.831 165.423 507.432 164.204 513.239 164.204C516.197 164.204 518.964 164.549 521.539 165.237C522.251 162.112 523.62 159.675 525.647 157.927C527.723 156.131 530.507 155.336 533.999 155.541C534.016 155.542 534.031 155.555 534.035 155.572L535.189 161.648C535.346 162.475 534.632 163.251 533.783 163.251C531.756 163.251 530.057 163.595 528.688 164.284C527.373 164.973 526.442 165.9 525.894 167.065C527.921 168.231 529.455 169.714 530.496 171.515C531.591 173.316 532.139 175.382 532.139 177.713C532.139 181.845 530.441 185.13 527.044 187.567C523.703 189.951 519.101 191.143 513.239 191.143C510.555 191.143 508.09 190.904 505.844 190.427C503.707 190.957 502.639 192.149 502.639 194.003C502.639 195.063 503.05 195.884 503.871 196.467C504.693 196.996 505.844 197.261 507.323 197.261H521.21ZM513.239 171.038C511.048 171.038 509.24 171.648 507.816 172.866C506.446 174.084 505.761 175.674 505.761 177.634C505.761 179.647 506.446 181.263 507.816 182.481C509.24 183.7 511.048 184.309 513.239 184.309C515.485 184.309 517.293 183.7 518.663 182.481C520.087 181.263 520.799 179.647 520.799 177.634C520.799 175.674 520.087 174.084 518.663 172.866C517.293 171.648 515.485 171.038 513.239 171.038ZM514.061 214.346C517.896 214.346 520.854 213.869 522.936 212.916C525.017 212.015 526.058 210.85 526.058 209.419C526.058 208.307 525.565 207.459 524.579 206.876C523.648 206.347 522.087 206.082 519.895 206.082H508.72C504.173 206.082 501.899 207.274 501.899 209.658C501.899 211.141 502.913 212.28 504.94 213.075C506.967 213.922 510.007 214.346 514.061 214.346Z" fill="white"/>
<path d="M485.594 198.032C485.647 198.032 485.7 198.031 485.752 198.031C486.985 198.02 488.178 199.065 488.031 200.263L487.535 204.291C486.025 205.03 484.273 205.4 482.277 205.4C477.1 205.4 473.999 203.419 472.974 199.458C471.788 201.412 469.954 202.891 467.473 203.895C464.993 204.898 462.054 205.4 458.656 205.4C454.719 205.4 451.645 204.528 449.434 202.785C447.223 201.042 446.117 198.533 446.117 195.258C446.117 188.814 451.375 184.642 461.892 182.74L471.599 180.918V179.016C471.599 176.903 470.979 175.239 469.739 174.025C468.552 172.757 466.88 172.123 464.723 172.123C462.242 172.123 460.22 172.651 458.656 173.708C458.444 173.851 458.241 174.006 458.047 174.174C455.865 176.055 452.992 177.854 450.314 176.747C448.176 175.863 446.923 173.525 448.089 171.56C449.129 169.806 450.575 168.33 452.427 167.132C455.447 165.177 459.384 164.2 464.238 164.2C470.008 164.2 474.511 165.441 477.747 167.924C480.983 170.354 482.601 173.972 482.601 178.778V195.021C482.601 196.077 482.844 196.843 483.329 197.318C483.814 197.794 484.569 198.032 485.594 198.032ZM462.134 198.032C464.507 198.032 466.665 197.477 468.606 196.368C470.601 195.206 471.599 193.647 471.599 191.693V187.573L462.943 189.475C461.11 189.897 459.734 190.478 458.818 191.218C457.955 191.904 457.523 192.882 457.523 194.149C457.523 195.417 457.928 196.394 458.737 197.081C459.546 197.715 460.678 198.032 462.134 198.032Z" fill="white"/>
<path d="M440.975 202.098C439.672 203.119 438.017 203.925 436.008 204.516C434.055 205.107 431.992 205.402 429.821 205.402C420.758 205.402 416.226 201.346 416.226 193.233V172.52H412.969C410.676 172.52 408.817 170.68 408.817 168.41C408.817 166.14 410.676 164.3 412.969 164.3H416.226V159.229C416.226 156.748 417.897 154.572 420.312 153.909C423.865 152.934 427.379 155.579 427.379 159.229V164.3H436.416C438.709 164.3 440.567 166.14 440.567 168.41C440.567 170.68 438.709 172.52 436.416 172.52H427.379V191.459C427.379 195.167 429.251 197.02 432.996 197.02C434.398 197.02 435.696 196.761 436.892 196.243C438.068 195.734 439.609 196.24 439.898 197.479L440.975 202.098Z" fill="white"/>
<path d="M402.323 205.198H391.149V165.392C391.149 164.882 391.726 164.564 392.193 164.78C394.99 166.075 398.626 166.102 401.224 164.86C401.704 164.631 402.323 164.953 402.323 165.48V205.198Z" fill="white"/>
<path d="M366.988 164.2C372.492 164.2 376.812 166.051 379.949 169.752C383.086 173.4 384.655 178.497 384.655 185.041C384.655 191.64 383.086 196.79 379.949 200.491C376.812 204.193 372.492 206.044 366.988 206.044C364.016 206.044 361.43 205.4 359.228 204.112C357.027 202.771 355.293 200.947 354.027 198.641V222.137H342.717V169.447C342.717 166.651 345.007 164.385 347.831 164.385C350.56 164.385 352.808 166.507 352.938 169.206L353.119 172.971C354.33 170.289 356.119 168.17 358.485 166.614C360.907 165.005 363.741 164.2 366.988 164.2ZM363.604 197.595C366.686 197.595 369.08 196.522 370.786 194.376C372.492 192.23 373.345 189.145 373.345 185.122C373.345 181.098 372.492 178.014 370.786 175.868C369.08 173.722 366.686 172.649 363.604 172.649C360.852 172.649 358.623 173.588 356.917 175.466C355.211 177.29 354.247 179.918 354.027 183.352V186.892C354.247 190.272 355.211 192.901 356.917 194.778C358.623 196.656 360.852 197.595 363.604 197.595Z" fill="white"/>
<path d="M317.029 164.2C323.586 164.2 328.679 166.022 332.31 169.667C335.995 173.312 337.837 178.356 337.837 184.8C337.837 191.244 335.995 196.288 332.31 199.933C328.679 203.578 323.586 205.4 317.029 205.4C310.472 205.4 305.351 203.578 301.666 199.933C298.035 196.288 296.22 191.244 296.22 184.8C296.22 178.356 298.035 173.312 301.666 169.667C305.351 166.022 310.472 164.2 317.029 164.2ZM317.029 172.282C313.886 172.282 311.474 173.338 309.794 175.451C308.169 177.511 307.356 180.627 307.356 184.8C307.356 188.973 308.169 192.116 309.794 194.228C311.474 196.288 313.886 197.318 317.029 197.318C320.172 197.318 322.556 196.288 324.182 194.228C325.862 192.116 326.701 188.973 326.701 184.8C326.701 180.627 325.862 177.511 324.182 175.451C322.556 173.338 320.172 172.282 317.029 172.282Z" fill="white"/>
<path d="M276.744 164.245C281.124 164.245 284.639 165.503 287.288 168.019C289.992 170.535 291.344 174.149 291.344 178.86V205.198H280.231V182.072C280.231 175.969 277.825 172.918 273.012 172.918C270.417 172.918 268.2 173.828 266.361 175.648C264.576 177.468 263.684 180.252 263.684 183.999V205.198H252.572V152.963C252.572 149.925 255.059 147.463 258.128 147.463C261.197 147.463 263.684 149.925 263.684 152.963V171.874C264.928 169.304 266.658 167.404 268.875 166.172C271.147 164.888 273.769 164.245 276.744 164.245Z" fill="white"/>
<path d="M228.835 205.4C219.772 205.4 213.476 202.865 209.948 197.794L214.745 193.009C215.579 192.176 216.997 192.427 217.711 193.363C218.638 194.576 219.768 195.499 221.101 196.13C223.164 197.028 225.687 197.477 228.672 197.477C231.06 197.477 232.905 197.16 234.208 196.526C235.51 195.892 236.162 195.021 236.162 193.912C236.162 193.014 235.537 192.248 234.289 191.614C233.095 190.98 231.006 190.373 228.021 189.792C221.78 188.577 217.384 186.992 214.833 185.038C212.336 183.031 211.088 180.337 211.088 176.956C211.088 174.738 211.794 172.651 213.205 170.697C214.616 168.743 216.705 167.184 219.473 166.022C222.241 164.807 225.552 164.2 229.405 164.2C233.964 164.2 237.654 164.887 240.476 166.26C242.883 167.386 244.955 169.089 246.691 171.368C247.212 172.052 247.059 173.011 246.394 173.559L242.22 177C241.398 177.677 240.164 177.441 239.518 176.596C238.549 175.329 237.43 174.339 236.162 173.628C234.425 172.625 232.227 172.123 229.568 172.123C227.342 172.123 225.552 172.493 224.195 173.232C222.892 173.972 222.241 174.87 222.241 175.926C222.241 177.035 222.892 177.96 224.195 178.699C225.497 179.439 227.804 180.125 231.114 180.759C237.03 181.921 241.209 183.453 243.651 185.355C246.148 187.203 247.396 189.792 247.396 193.119C247.396 196.817 245.768 199.801 242.511 202.072C239.309 204.291 234.751 205.4 228.835 205.4Z" fill="white"/>
<path d="M402.377 153.9C402.377 156.922 399.903 159.372 396.85 159.372C393.797 159.372 391.323 156.922 391.323 153.9C391.323 150.878 393.797 148.428 396.85 148.428C399.903 148.428 402.377 150.878 402.377 153.9Z" fill="white"/>
</g>
</g>
<defs>
<clipPath id="clip0">
<rect y="6.10352e-05" width="617" height="348.398" rx="4" fill="white"/>
</clipPath>
<clipPath id="clip1">
<rect width="487.533" height="103" fill="white" transform="translate(64.7334 123)"/>
</clipPath>
</defs>
</svg>
