<svg width="617" height="349" viewBox="0 0 617 349" fill="none" xmlns="http://www.w3.org/2000/svg">
<g clip-path="url(#clip0)">
<rect width="617" height="348.398" rx="4" fill="#013C4F"/>
<g opacity="0.02">
<path d="M572.273 330.033C578.743 330.033 583.713 331.42 587.185 334.195C590.735 336.969 592.51 340.938 592.51 346.102C592.51 352.267 589.591 357.084 583.753 360.552C577.914 364.02 570.222 365.754 560.676 365.754C550.814 365.754 543.477 364.482 538.664 361.939C533.93 359.396 531.563 355.928 531.563 351.535C531.563 348.915 532.471 346.641 534.285 344.715C536.1 342.788 538.782 341.401 542.333 340.553C539.65 339.474 537.52 337.971 535.942 336.044C534.364 334.041 533.575 331.69 533.575 328.993C533.575 326.218 534.404 323.829 536.06 321.825C537.717 319.822 540.005 318.319 542.924 317.317C539.926 315.622 537.638 313.464 536.06 310.843C534.482 308.146 533.693 305.063 533.693 301.595C533.693 295.507 536.1 290.729 540.912 287.261C545.804 283.716 552.431 281.943 560.794 281.943C565.055 281.943 569.039 282.444 572.747 283.446C573.772 278.899 575.745 275.354 578.664 272.81C581.653 270.198 585.663 269.041 590.691 269.34C590.717 269.341 590.738 269.36 590.743 269.385L592.405 278.225C592.631 279.427 591.603 280.556 590.38 280.556C587.461 280.556 585.015 281.057 583.043 282.059C581.149 283.06 579.808 284.409 579.019 286.105C581.938 287.8 584.147 289.958 585.646 292.578C587.224 295.199 588.013 298.204 588.013 301.595C588.013 307.606 585.567 312.385 580.676 315.93C575.863 319.398 569.236 321.132 560.794 321.132C556.928 321.132 553.378 320.785 550.143 320.091C547.066 320.862 545.528 322.596 545.528 325.294C545.528 326.835 546.12 328.029 547.303 328.877C548.486 329.648 550.143 330.033 552.273 330.033H572.273ZM560.794 291.885C557.638 291.885 555.035 292.771 552.983 294.544C551.011 296.316 550.025 298.628 550.025 301.48C550.025 304.408 551.011 306.759 552.983 308.531C555.035 310.304 557.638 311.19 560.794 311.19C564.029 311.19 566.632 310.304 568.605 308.531C570.656 306.759 571.682 304.408 571.682 301.48C571.682 298.628 570.656 296.316 568.605 294.544C566.632 292.771 564.029 291.885 560.794 291.885ZM561.978 354.888C567.5 354.888 571.761 354.194 574.759 352.807C577.757 351.497 579.256 349.801 579.256 347.72C579.256 346.102 578.546 344.869 577.126 344.021C575.784 343.25 573.536 342.865 570.38 342.865H554.285C547.737 342.865 544.463 344.599 544.463 348.067C544.463 350.225 545.922 351.882 548.841 353.038C551.761 354.271 556.139 354.888 561.978 354.888Z" fill="white"/>
<path d="M520.98 331.154C521.057 331.154 521.133 331.153 521.208 331.153C522.983 331.137 524.702 332.657 524.49 334.4L523.776 340.259C521.602 341.335 519.077 341.873 516.204 341.873C508.748 341.873 504.282 338.992 502.806 333.228C501.097 336.072 498.457 338.223 494.884 339.683C491.311 341.143 487.078 341.873 482.185 341.873C476.515 341.873 472.088 340.605 468.904 338.069C465.719 335.534 464.127 331.884 464.127 327.119C464.127 317.745 471.7 311.674 486.845 308.908L500.825 306.257V303.491C500.825 300.417 499.932 297.996 498.146 296.229C496.437 294.385 494.029 293.463 490.923 293.463C487.35 293.463 484.437 294.231 482.185 295.768C481.88 295.976 481.587 296.202 481.307 296.446C478.166 299.183 474.028 301.8 470.172 300.19C467.092 298.904 465.287 295.502 466.966 292.643C468.465 290.092 470.548 287.944 473.214 286.201C477.564 283.358 483.234 281.937 490.224 281.937C498.534 281.937 505.019 283.742 509.68 287.354C514.34 290.889 516.67 296.152 516.67 303.145V326.774C516.67 328.311 517.019 329.425 517.718 330.116C518.417 330.808 519.505 331.154 520.98 331.154ZM487.195 331.154C490.612 331.154 493.719 330.347 496.515 328.733C499.389 327.043 500.825 324.776 500.825 321.933V315.939L488.36 318.705C485.719 319.32 483.738 320.165 482.418 321.241C481.175 322.24 480.554 323.662 480.554 325.506C480.554 327.35 481.136 328.772 482.302 329.771C483.467 330.693 485.098 331.154 487.195 331.154Z" fill="white"/>
<path d="M456.721 337.069C454.845 338.554 452.461 339.727 449.569 340.586C446.755 341.446 443.785 341.876 440.658 341.876C427.605 341.876 421.078 335.975 421.078 324.172V294.04H416.389C413.086 294.04 410.409 291.363 410.409 288.061C410.409 284.758 413.086 282.081 416.389 282.081H421.078V274.705C421.078 271.096 423.486 267.93 426.963 266.966C432.08 265.547 437.141 269.395 437.141 274.705V282.081H450.155C453.457 282.081 456.135 284.758 456.135 288.061C456.135 291.363 453.457 294.04 450.155 294.04H437.141V321.593C437.141 326.986 439.838 329.683 445.231 329.683C447.249 329.683 449.119 329.306 450.841 328.552C452.535 327.811 454.754 328.547 455.17 330.349L456.721 337.069Z" fill="white"/>
<path d="M401.057 341.579H384.964V283.67C384.964 282.929 385.795 282.467 386.467 282.781C390.495 284.665 395.732 284.703 399.474 282.897C400.165 282.564 401.057 283.032 401.057 283.799V341.579Z" fill="white"/>
<path d="M350.168 281.937C358.094 281.937 364.316 284.629 368.834 290.014C373.352 295.321 375.611 302.735 375.611 312.256C375.611 321.855 373.352 329.347 368.834 334.732C364.316 340.117 358.094 342.81 350.168 342.81C345.888 342.81 342.163 341.873 338.992 340C335.822 338.049 333.325 335.396 331.502 332.04V366.222H315.214V289.57C315.214 285.503 318.511 282.206 322.578 282.206C326.509 282.206 329.747 285.293 329.934 289.22L330.194 294.696C331.938 290.794 334.514 287.712 337.922 285.448C341.41 283.107 345.492 281.937 350.168 281.937ZM345.294 330.518C349.732 330.518 353.18 328.957 355.637 325.835C358.094 322.714 359.323 318.226 359.323 312.373C359.323 306.52 358.094 302.032 355.637 298.911C353.18 295.789 349.732 294.228 345.294 294.228C341.331 294.228 338.12 295.594 335.663 298.325C333.206 300.979 331.819 304.803 331.502 309.798V314.948C331.819 319.865 333.206 323.689 335.663 326.421C338.12 329.152 341.331 330.518 345.294 330.518Z" fill="white"/>
<path d="M278.218 281.937C287.661 281.937 294.997 284.588 300.226 289.89C305.533 295.192 308.186 302.53 308.186 311.905C308.186 321.279 305.533 328.618 300.226 333.92C294.997 339.222 287.661 341.873 278.218 341.873C268.775 341.873 261.4 339.222 256.093 333.92C250.864 328.618 248.25 321.279 248.25 311.905C248.25 302.53 250.864 295.192 256.093 289.89C261.4 284.588 268.775 281.937 278.218 281.937ZM278.218 293.693C273.692 293.693 270.219 295.23 267.799 298.304C265.458 301.301 264.287 305.834 264.287 311.905C264.287 317.975 265.458 322.547 267.799 325.621C270.219 328.618 273.692 330.116 278.218 330.116C282.744 330.116 286.178 328.618 288.52 325.621C290.939 322.547 292.149 317.975 292.149 311.905C292.149 305.834 290.939 301.301 288.52 298.304C286.178 295.23 282.744 293.693 278.218 293.693Z" fill="white"/>
<path d="M220.201 282.002C226.509 282.002 231.571 283.832 235.387 287.493C239.281 291.153 241.228 296.41 241.228 303.263V341.579H225.224V307.936C225.224 299.058 221.758 294.619 214.827 294.619C211.089 294.619 207.896 295.943 205.248 298.59C202.678 301.238 201.393 305.288 201.393 310.739V341.579H185.389V265.589C185.389 261.17 188.972 257.587 193.391 257.587C197.81 257.587 201.393 261.17 201.393 265.589V293.1C203.184 289.362 205.676 286.597 208.869 284.806C212.14 282.937 215.917 282.002 220.201 282.002Z" fill="white"/>
<path d="M151.204 341.873C138.151 341.873 129.085 338.185 124.005 330.808L130.912 323.847C132.114 322.636 134.155 323 135.184 324.362C136.519 326.127 138.146 327.469 140.066 328.387C143.036 329.694 146.671 330.347 150.97 330.347C154.409 330.347 157.066 329.886 158.942 328.964C160.818 328.042 161.756 326.774 161.756 325.16C161.756 323.854 160.857 322.739 159.059 321.817C157.34 320.895 154.331 320.012 150.032 319.166C141.043 317.399 134.712 315.094 131.039 312.251C127.444 309.331 125.646 305.412 125.646 300.494C125.646 297.266 126.662 294.231 128.694 291.388C130.726 288.545 133.735 286.278 137.722 284.588C141.708 282.82 146.476 281.937 152.025 281.937C158.59 281.937 163.905 282.935 167.97 284.933C171.436 286.572 174.42 289.049 176.92 292.365C177.67 293.359 177.449 294.754 176.492 295.551L170.481 300.557C169.297 301.543 167.52 301.199 166.59 299.97C165.195 298.126 163.583 296.687 161.756 295.653C159.255 294.193 156.089 293.463 152.259 293.463C149.055 293.463 146.476 294.001 144.522 295.076C142.646 296.152 141.708 297.459 141.708 298.995C141.708 300.609 142.646 301.954 144.522 303.03C146.397 304.105 149.719 305.104 154.487 306.026C163.006 307.717 169.025 309.945 172.542 312.712C176.137 315.401 177.935 319.166 177.935 324.007C177.935 329.386 175.59 333.728 170.901 337.032C166.289 340.259 159.724 341.873 151.204 341.873Z" fill="white"/>
<path d="M401.135 266.952C401.135 271.349 397.571 274.913 393.174 274.913C388.778 274.913 385.214 271.349 385.214 266.952C385.214 262.556 388.778 258.992 393.174 258.992C397.571 258.992 401.135 262.556 401.135 266.952Z" fill="white"/>
</g>
<path opacity="0.02" d="M299.977 206.899C299.977 217.343 308.444 225.809 318.888 225.809C329.331 225.809 337.798 217.343 337.798 206.899C337.798 196.455 329.331 187.989 318.888 187.989H299.977V206.899Z" fill="#FCFEFF"/>
<path opacity="0.05" d="M75.2809 26.1405C75.2809 11.7035 63.5774 0 49.1404 0C34.7035 0 23 11.7035 23 26.1405C23 40.5774 34.7035 52.2809 49.1404 52.2809H75.2809V26.1405Z" fill="white"/>
<line x1="604.841" y1="204.14" x2="654.263" y2="204.14" stroke="#1480AB" stroke-width="23.3386" stroke-linecap="round"/>
<line x1="621.315" y1="204.14" x2="654.264" y2="204.14" stroke="#002B38" stroke-width="23.3386" stroke-linecap="round"/>
<line x1="548.74" y1="123.64" x2="637.976" y2="123.64" stroke="#E8AE2E" stroke-width="23.3386" stroke-linecap="round"/>
<line x1="516.74" y1="63.4717" x2="605.976" y2="63.4717" stroke="#46C78C" stroke-width="23.3386" stroke-linecap="round"/>
<line x1="562.045" y1="63.4717" x2="699.331" y2="63.4717" stroke="#BDFCEF" stroke-width="23.3386" stroke-linecap="round"/>
<line x1="11.6693" y1="-11.6693" x2="120.125" y2="-11.6693" transform="matrix(-1 8.74228e-08 8.74228e-08 1 665.933 263.859)" stroke="#FCBDCA" stroke-width="23.3386" stroke-linecap="round"/>
<line x1="11.6693" y1="-11.6693" x2="61.0922" y2="-11.6693" transform="matrix(-1 -8.74228e-08 -8.74228e-08 1 606.9 263.859)" stroke="#F58AA0" stroke-width="23.3386" stroke-linecap="round"/>
<line x1="11.6693" y1="-11.6693" x2="44.6179" y2="-11.6693" transform="matrix(-1 8.74228e-08 8.74228e-08 1 590.426 263.859)" stroke="#DE3C58" stroke-width="23.3386" stroke-linecap="round"/>
<line x1="-11.3307" y1="235.715" x2="47.0158" y2="235.715" stroke="#BDFCEF" stroke-width="23.3386" stroke-linecap="round"/>
<g clip-path="url(#clip1)">
<rect x="85.3154" y="143.6" width="61.7456" height="20.6" rx="10.3" fill="#CC4B23"/>
<rect x="105.897" y="164.2" width="61.7456" height="20.6" rx="10.3" fill="#4FB5E1"/>
<rect x="126.479" y="184.8" width="61.7456" height="20.6" rx="10.3" fill="#E8AE2E"/>
<path d="M126.479 153.891C126.479 148.207 131.087 143.6 136.77 143.6C142.454 143.6 147.061 148.212 147.061 153.895C147.061 159.584 142.45 164.2 136.761 164.2H126.479V153.891Z" fill="#EC845E"/>
<path d="M126.479 195.104C126.479 189.416 131.091 184.8 136.779 184.8H147.061V195.109C147.061 200.792 142.454 205.4 136.77 205.4C131.087 205.4 126.479 200.788 126.479 195.104Z" fill="#F8D280"/>
<path d="M126.479 164.2H147.061V184.8H126.479V164.2Z" fill="#80CDF0"/>
<path d="M521.21 197.261C525.702 197.261 529.153 198.215 531.564 200.122C534.029 202.029 535.262 204.757 535.262 208.307C535.262 212.545 533.235 215.856 529.181 218.24C525.127 220.624 519.786 221.816 513.157 221.816C506.309 221.816 501.215 220.941 497.873 219.193C494.586 217.445 492.942 215.061 492.942 212.042C492.942 210.24 493.572 208.678 494.832 207.353C496.092 206.029 497.955 205.075 500.42 204.492C498.558 203.751 497.078 202.718 495.983 201.393C494.887 200.016 494.339 198.4 494.339 196.546C494.339 194.639 494.915 192.997 496.065 191.619C497.215 190.242 498.804 189.209 500.831 188.52C498.749 187.355 497.161 185.871 496.065 184.07C494.969 182.216 494.422 180.097 494.422 177.713C494.422 173.528 496.092 170.244 499.434 167.86C502.831 165.423 507.432 164.204 513.239 164.204C516.197 164.204 518.964 164.549 521.539 165.237C522.251 162.112 523.62 159.675 525.647 157.927C527.723 156.131 530.507 155.335 533.999 155.541C534.016 155.542 534.031 155.555 534.035 155.572L535.189 161.648C535.346 162.475 534.632 163.251 533.783 163.251C531.756 163.251 530.057 163.595 528.688 164.284C527.373 164.972 526.442 165.9 525.894 167.065C527.921 168.231 529.455 169.714 530.496 171.515C531.591 173.316 532.139 175.382 532.139 177.713C532.139 181.845 530.441 185.13 527.044 187.567C523.703 189.951 519.101 191.143 513.239 191.143C510.555 191.143 508.09 190.904 505.844 190.427C503.707 190.957 502.639 192.149 502.639 194.003C502.639 195.063 503.05 195.884 503.871 196.467C504.693 196.996 505.844 197.261 507.323 197.261H521.21ZM513.239 171.038C511.048 171.038 509.24 171.647 507.816 172.866C506.446 174.084 505.761 175.674 505.761 177.634C505.761 179.647 506.446 181.263 507.816 182.481C509.24 183.699 511.048 184.309 513.239 184.309C515.485 184.309 517.293 183.699 518.663 182.481C520.087 181.263 520.799 179.647 520.799 177.634C520.799 175.674 520.087 174.084 518.663 172.866C517.293 171.647 515.485 171.038 513.239 171.038ZM514.061 214.346C517.896 214.346 520.854 213.869 522.936 212.916C525.017 212.015 526.058 210.85 526.058 209.419C526.058 208.307 525.565 207.459 524.579 206.876C523.648 206.347 522.087 206.082 519.895 206.082H508.72C504.173 206.082 501.899 207.274 501.899 209.658C501.899 211.141 502.913 212.28 504.94 213.075C506.967 213.922 510.007 214.346 514.061 214.346Z" fill="white"/>
<path d="M485.594 198.031C485.647 198.031 485.7 198.031 485.752 198.031C486.985 198.02 488.178 199.065 488.031 200.263L487.535 204.291C486.025 205.03 484.273 205.4 482.277 205.4C477.1 205.4 473.999 203.419 472.974 199.458C471.788 201.412 469.954 202.891 467.473 203.895C464.993 204.898 462.053 205.4 458.656 205.4C454.719 205.4 451.645 204.528 449.434 202.785C447.223 201.042 446.117 198.533 446.117 195.258C446.117 188.814 451.375 184.641 461.892 182.74L471.599 180.918V179.016C471.599 176.903 470.979 175.239 469.738 174.025C468.552 172.757 466.88 172.123 464.723 172.123C462.242 172.123 460.22 172.651 458.656 173.708C458.444 173.851 458.241 174.006 458.046 174.174C455.865 176.055 452.992 177.854 450.314 176.747C448.176 175.863 446.922 173.525 448.089 171.56C449.129 169.806 450.575 168.33 452.427 167.131C455.447 165.177 459.384 164.2 464.238 164.2C470.008 164.2 474.511 165.441 477.747 167.924C480.983 170.354 482.601 173.972 482.601 178.778V195.021C482.601 196.077 482.843 196.843 483.329 197.318C483.814 197.794 484.569 198.031 485.594 198.031ZM462.134 198.031C464.507 198.031 466.664 197.477 468.606 196.368C470.601 195.206 471.599 193.647 471.599 191.693V187.573L462.943 189.475C461.11 189.897 459.734 190.478 458.818 191.218C457.955 191.904 457.523 192.881 457.523 194.149C457.523 195.417 457.928 196.394 458.737 197.081C459.546 197.715 460.678 198.031 462.134 198.031Z" fill="white"/>
<path d="M440.974 202.098C439.672 203.118 438.017 203.924 436.008 204.515C434.055 205.106 431.992 205.402 429.821 205.402C420.758 205.402 416.226 201.345 416.226 193.232V172.52H412.969C410.676 172.52 408.817 170.68 408.817 168.41C408.817 166.14 410.676 164.299 412.969 164.299H416.226V159.229C416.226 156.748 417.897 154.572 420.312 153.909C423.865 152.934 427.379 155.579 427.379 159.229V164.299H436.415C438.709 164.299 440.567 166.14 440.567 168.41C440.567 170.68 438.709 172.52 436.415 172.52H427.379V191.459C427.379 195.167 429.251 197.02 432.996 197.02C434.398 197.02 435.696 196.761 436.892 196.243C438.068 195.734 439.609 196.24 439.898 197.479L440.974 202.098Z" fill="white"/>
<path d="M402.324 205.198H391.149V165.392C391.149 164.882 391.726 164.564 392.193 164.78C394.99 166.075 398.626 166.102 401.224 164.86C401.704 164.631 402.324 164.953 402.324 165.48V205.198Z" fill="white"/>
<path d="M366.988 164.2C372.492 164.2 376.812 166.051 379.949 169.752C383.086 173.4 384.655 178.497 384.655 185.041C384.655 191.64 383.086 196.79 379.949 200.491C376.812 204.193 372.492 206.044 366.988 206.044C364.016 206.044 361.43 205.4 359.228 204.112C357.027 202.771 355.293 200.947 354.027 198.641V222.137H342.717V169.447C342.717 166.651 345.007 164.385 347.831 164.385C350.56 164.385 352.808 166.507 352.938 169.206L353.119 172.971C354.33 170.289 356.119 168.17 358.485 166.614C360.907 165.005 363.741 164.2 366.988 164.2ZM363.603 197.594C366.686 197.594 369.08 196.522 370.786 194.376C372.492 192.23 373.345 189.145 373.345 185.122C373.345 181.098 372.492 178.014 370.786 175.868C369.08 173.722 366.686 172.649 363.603 172.649C360.852 172.649 358.623 173.588 356.917 175.466C355.21 177.29 354.247 179.918 354.027 183.352V186.892C354.247 190.272 355.21 192.9 356.917 194.778C358.623 196.656 360.852 197.594 363.603 197.594Z" fill="white"/>
<path d="M317.029 164.2C323.586 164.2 328.679 166.022 332.31 169.667C335.995 173.311 337.838 178.356 337.838 184.8C337.838 191.244 335.995 196.288 332.31 199.933C328.679 203.578 323.586 205.4 317.029 205.4C310.472 205.4 305.351 203.578 301.666 199.933C298.035 196.288 296.22 191.244 296.22 184.8C296.22 178.356 298.035 173.311 301.666 169.667C305.351 166.022 310.472 164.2 317.029 164.2ZM317.029 172.281C313.886 172.281 311.474 173.338 309.794 175.451C308.169 177.511 307.356 180.627 307.356 184.8C307.356 188.973 308.169 192.116 309.794 194.228C311.474 196.288 313.886 197.318 317.029 197.318C320.172 197.318 322.556 196.288 324.182 194.228C325.862 192.116 326.702 188.973 326.702 184.8C326.702 180.627 325.862 177.511 324.182 175.451C322.556 173.338 320.172 172.281 317.029 172.281Z" fill="white"/>
<path d="M276.744 164.245C281.124 164.245 284.639 165.503 287.288 168.019C289.992 170.535 291.344 174.149 291.344 178.86V205.198H280.231V182.072C280.231 175.969 277.825 172.917 273.012 172.917C270.417 172.917 268.2 173.828 266.361 175.648C264.576 177.468 263.684 180.252 263.684 183.999V205.198H252.572V152.963C252.572 149.925 255.059 147.462 258.128 147.462C261.197 147.462 263.684 149.925 263.684 152.963V171.874C264.928 169.304 266.658 167.404 268.875 166.172C271.147 164.888 273.769 164.245 276.744 164.245Z" fill="white"/>
<path d="M228.835 205.4C219.772 205.4 213.476 202.865 209.948 197.794L214.745 193.009C215.579 192.176 216.997 192.427 217.711 193.363C218.638 194.576 219.768 195.499 221.101 196.13C223.164 197.028 225.687 197.477 228.672 197.477C231.06 197.477 232.905 197.16 234.208 196.526C235.51 195.892 236.162 195.021 236.162 193.911C236.162 193.014 235.537 192.248 234.289 191.614C233.095 190.98 231.006 190.372 228.021 189.791C221.78 188.577 217.384 186.992 214.833 185.038C212.336 183.03 211.088 180.337 211.088 176.956C211.088 174.738 211.794 172.651 213.205 170.697C214.616 168.743 216.705 167.184 219.473 166.022C222.241 164.807 225.551 164.2 229.405 164.2C233.964 164.2 237.654 164.887 240.476 166.26C242.883 167.386 244.955 169.089 246.691 171.368C247.211 172.052 247.058 173.011 246.394 173.559L242.22 177C241.398 177.677 240.164 177.441 239.518 176.596C238.549 175.329 237.43 174.339 236.162 173.628C234.425 172.625 232.227 172.123 229.568 172.123C227.342 172.123 225.551 172.493 224.195 173.232C222.892 173.972 222.241 174.87 222.241 175.926C222.241 177.035 222.892 177.96 224.195 178.699C225.497 179.439 227.804 180.125 231.114 180.759C237.03 181.921 241.209 183.453 243.651 185.355C246.147 187.203 247.396 189.791 247.396 193.119C247.396 196.817 245.768 199.801 242.511 202.072C239.309 204.291 234.75 205.4 228.835 205.4Z" fill="white"/>
<path d="M402.378 153.9C402.378 156.922 399.903 159.372 396.85 159.372C393.798 159.372 391.323 156.922 391.323 153.9C391.323 150.878 393.798 148.428 396.85 148.428C399.903 148.428 402.378 150.878 402.378 153.9Z" fill="white"/>
</g>
</g>
<defs>
<clipPath id="clip0">
<rect width="617" height="348.398" rx="4" fill="white"/>
</clipPath>
<clipPath id="clip1">
<rect width="487.533" height="103" fill="white" transform="translate(64.7335 123)"/>
</clipPath>
</defs>
</svg>
