<svg width="16" height="16" viewBox="0 0 16 16" fill="none" xmlns="http://www.w3.org/2000/svg">
<g clip-path="url(#clip0)">
<path d="M8 0.00100708C3.58875 0.00100708 0 3.58976 0 8.00092C0 12.4121 3.58875 16.0008 8 16.0008C12.4112 16.0008 16 12.4121 16 8.00092C16 3.58976 12.4112 0.00100708 8 0.00100708ZM13.2133 3.77395C14.1114 4.87946 14.6643 6.27484 14.7103 7.79592C13.0466 7.45151 11.5402 7.49192 10.2103 7.75267C9.96954 7.18956 9.72026 6.65307 9.46867 6.14605C10.917 5.52213 12.1778 4.72524 13.2133 3.77395ZM12.3121 2.85803C11.2842 3.79622 10.0931 4.49086 8.87345 5.00372C7.97825 3.36669 7.12176 2.13393 6.6 1.43337C7.0518 1.33712 7.51995 1.28549 8 1.28549C9.64045 1.28549 11.1446 1.87755 12.3121 2.85803ZM5.30268 1.85289C5.69667 2.36342 6.63511 3.64174 7.64317 5.46048C5.10966 6.28588 2.65134 6.42495 1.47004 6.43788C1.96243 4.381 3.40285 2.68968 5.30268 1.85289ZM1.2915 7.72561C1.30418 7.72561 1.31642 7.7257 1.32935 7.7257C2.1456 7.7257 3.64107 7.67081 5.40167 7.34978C6.40613 7.16661 7.35862 6.92007 8.25236 6.61454C8.48502 7.07824 8.71631 7.56737 8.94058 8.08004C7.68916 8.48294 6.63383 9.06267 5.79789 9.63829C4.39609 10.6036 3.41406 11.6746 2.87784 12.3368C1.88502 11.166 1.28448 9.65268 1.28448 8.00092C1.28448 7.90861 1.28773 7.81707 1.2915 7.72561ZM3.80343 13.2381C4.26507 12.6568 5.20471 11.5988 6.56395 10.6705C7.48766 10.0396 8.44332 9.57081 9.42714 9.26314C9.99797 10.7427 10.4853 12.3775 10.7758 14.1133C9.92912 14.4994 8.98973 14.7164 8 14.7164C6.41307 14.7164 4.95398 14.1619 3.80343 13.2381ZM11.9576 13.4217C11.6581 11.8275 11.2115 10.3285 10.6953 8.95854C11.9652 8.74429 13.2777 8.78848 14.6257 9.09127C14.335 10.863 13.3491 12.403 11.9576 13.4217Z" fill="#4E575D"/>
</g>
<defs>
<clipPath id="clip0">
<rect width="16" height="16" fill="white"/>
</clipPath>
</defs>
</svg>
