<svg width="16" height="17" viewBox="0 0 16 17" fill="none" xmlns="http://www.w3.org/2000/svg">
<g clip-path="url(#clip0_599_1070)">
<path d="M8 0.500977C3.58875 0.500977 0 4.08973 0 8.50089C0 12.9121 3.58875 16.5008 8 16.5008C12.4112 16.5008 16 12.9121 16 8.50089C16 4.08973 12.4112 0.500977 8 0.500977ZM13.2133 4.27392C14.1114 5.37943 14.6643 6.77481 14.7103 8.29589C13.0466 7.95148 11.5402 7.99189 10.2103 8.25264C9.96954 7.68953 9.72026 7.15304 9.46867 6.64602C10.917 6.0221 12.1778 5.22521 13.2133 4.27392ZM12.3121 3.358C11.2842 4.29619 10.0931 4.99083 8.87345 5.50368C7.97825 3.86666 7.12176 2.6339 6.6 1.93334C7.0518 1.83709 7.51995 1.78546 8 1.78546C9.64045 1.78546 11.1446 2.37752 12.3121 3.358ZM5.30268 2.35285C5.69667 2.86339 6.63511 4.14171 7.64317 5.96045C5.10966 6.78585 2.65134 6.92492 1.47004 6.93785C1.96243 4.88097 3.40285 3.18965 5.30268 2.35285ZM1.2915 8.22558C1.30418 8.22558 1.31642 8.22567 1.32935 8.22567C2.1456 8.22567 3.64107 8.17078 5.40167 7.84974C6.40613 7.66658 7.35862 7.42004 8.25236 7.11451C8.48502 7.57821 8.71631 8.06734 8.94058 8.58001C7.68916 8.98291 6.63383 9.56264 5.79789 10.1383C4.39609 11.1036 3.41406 12.1746 2.87784 12.8368C1.88502 11.6659 1.28448 10.1526 1.28448 8.50089C1.28448 8.40858 1.28773 8.31704 1.2915 8.22558ZM3.80343 13.7381C4.26507 13.1568 5.20471 12.0988 6.56395 11.1705C7.48766 10.5395 8.44332 10.0708 9.42714 9.76311C9.99797 11.2427 10.4853 12.8775 10.7758 14.6133C9.92912 14.9993 8.98973 15.2163 8 15.2163C6.41307 15.2163 4.95398 14.6619 3.80343 13.7381ZM11.9576 13.9217C11.6581 12.3274 11.2115 10.8285 10.6953 9.45851C11.9652 9.24426 13.2777 9.28845 14.6257 9.59124C14.335 11.363 13.3491 12.903 11.9576 13.9217Z" fill="#4E575D"/>
</g>
<defs>
<clipPath id="clip0_599_1070">
<rect width="16" height="16" fill="white" transform="translate(0 0.5)"/>
</clipPath>
</defs>
</svg>
