<svg width="16" height="17" viewBox="0 0 16 17" fill="none" xmlns="http://www.w3.org/2000/svg">
<g clip-path="url(#clip0_599_1139)">
<path d="M7.999 0.666504C3.582 0.666504 0 4.2625 0 8.69851C0 12.2465 2.292 15.2565 5.472 16.3195C5.872 16.3935 6.018 16.1455 6.018 15.9325C6.018 15.7415 6.011 15.2365 6.007 14.5665C3.782 15.0515 3.312 13.4895 3.312 13.4895C2.949 12.5615 2.424 12.3145 2.424 12.3145C1.697 11.8165 2.478 11.8265 2.478 11.8265C3.281 11.8835 3.703 12.6545 3.703 12.6545C4.417 13.8815 5.576 13.5275 6.032 13.3215C6.104 12.8025 6.311 12.4485 6.54 12.2475C4.764 12.0445 2.896 11.3555 2.896 8.27851C2.896 7.40151 3.208 6.68451 3.72 6.12251C3.637 5.91951 3.363 5.1025 3.798 3.9975C3.798 3.9975 4.47 3.7815 5.998 4.82051C6.636 4.64251 7.32 4.5535 8.001 4.5505C8.68 4.5545 9.365 4.64251 10.004 4.82151C11.531 3.7825 12.202 3.9985 12.202 3.9985C12.638 5.10451 12.364 5.92051 12.282 6.12351C12.795 6.68551 13.104 7.40251 13.104 8.27951C13.104 11.3645 11.234 12.0435 9.452 12.2425C9.739 12.4905 9.995 12.9805 9.995 13.7295C9.995 14.8035 9.985 15.6695 9.985 15.9325C9.985 16.1475 10.129 16.3975 10.535 16.3185C13.71 15.2545 16 12.2455 16 8.69851C16 4.2625 12.418 0.666504 7.999 0.666504Z" fill="#4E575D"/>
</g>
<defs>
<clipPath id="clip0_599_1139">
<rect width="16" height="16" fill="white" transform="translate(0 0.5)"/>
</clipPath>
</defs>
</svg>
