<svg width="16" height="17" viewBox="0 0 16 17" fill="none" xmlns="http://www.w3.org/2000/svg">
<g clip-path="url(#clip0_599_978)">
<path d="M5 16.5H11C13.761 16.5 16 14.261 16 11.5V5.5C16 2.739 13.761 0.5 11 0.5H5C2.239 0.5 0 2.739 0 5.5V11.5C0 14.261 2.239 16.5 5 16.5ZM1.5 5.5C1.5 3.57 3.07 2 5 2H11C12.93 2 14.5 3.57 14.5 5.5V11.5C14.5 13.43 12.93 15 11 15H5C3.07 15 1.5 13.43 1.5 11.5V5.5Z" fill="#4E575D"/>
<path d="M8 12.5C10.209 12.5 12 10.709 12 8.5C12 6.291 10.209 4.5 8 4.5C5.791 4.5 4 6.291 4 8.5C4 10.709 5.791 12.5 8 12.5ZM8 6C9.378 6 10.5 7.122 10.5 8.5C10.5 9.879 9.378 11 8 11C6.622 11 5.5 9.879 5.5 8.5C5.5 7.122 6.622 6 8 6Z" fill="#4E575D"/>
<path d="M3.70003 12.267C3.40566 12.267 3.16703 12.5056 3.16703 12.8C3.16703 13.0944 3.40566 13.333 3.70003 13.333C3.9944 13.333 4.23303 13.0944 4.23303 12.8C4.23303 12.5056 3.9944 12.267 3.70003 12.267Z" fill="#4E575D"/>
</g>
<defs>
<clipPath id="clip0_599_978">
<rect width="16" height="16" fill="white" transform="translate(16 16.5) rotate(-180)"/>
</clipPath>
</defs>
</svg>
