<svg width="16" height="16" viewBox="0 0 16 16" fill="none" xmlns="http://www.w3.org/2000/svg">
<path d="M5 16H11C13.761 16 16 13.761 16 11V5C16 2.239 13.761 0 11 0H5C2.239 0 0 2.239 0 5V11C0 13.761 2.239 16 5 16ZM1.5 5C1.5 3.07 3.07 1.5 5 1.5H11C12.93 1.5 14.5 3.07 14.5 5V11C14.5 12.93 12.93 14.5 11 14.5H5C3.07 14.5 1.5 12.93 1.5 11V5Z" fill="#4E575D"/>
<path d="M8 12C10.209 12 12 10.209 12 8C12 5.791 10.209 4 8 4C5.791 4 4 5.791 4 8C4 10.209 5.791 12 8 12ZM8 5.5C9.378 5.5 10.5 6.622 10.5 8C10.5 9.379 9.378 10.5 8 10.5C6.622 10.5 5.5 9.379 5.5 8C5.5 6.622 6.622 5.5 8 5.5Z" fill="#4E575D"/>
<path d="M3.69991 11.767C3.40554 11.767 3.16691 12.0056 3.16691 12.3C3.16691 12.5944 3.40554 12.833 3.69991 12.833C3.99428 12.833 4.23291 12.5944 4.23291 12.3C4.23291 12.0056 3.99428 11.767 3.69991 11.767Z" fill="#4E575D"/>
</svg>
